<svg width="47" height="48" viewBox="0 0 47 48" fill="none" xmlns="http://www.w3.org/2000/svg">
<path d="M43.8136 47.9681H8.91612C3.99468 47.9681 0 43.9734 0 39.052V3.03598C0 1.37419 1.34221 0.0319824 3.004 0.0319824H36.6871C42.2797 0.0319824 46.8496 4.56993 46.8496 10.1944V44.996C46.8496 46.6578 45.5074 48 43.8456 48" fill="#167AA1"/>
<path d="M0.415473 4.09056C0.255686 4.09056 0.127855 4.15447 0.0319824 4.2823V5.1771C0.127855 5.30493 0.287643 5.40081 0.44743 5.40081C0.767004 5.40081 0.990705 5.1132 0.990705 4.72971C0.990705 4.34622 0.735047 4.05859 0.44743 4.05859L0.415473 4.09056ZM0.415473 5.1132C0.255686 5.1132 0.0958987 4.95341 0.0958987 4.72971C0.0958987 4.50601 0.223728 4.34622 0.415473 4.34622C0.57526 4.34622 0.735047 4.50601 0.735047 4.72971C0.735047 4.92146 0.607217 5.1132 0.415473 5.1132Z" fill="#167AA1"/>
<path d="M3.16381 13.7097C3.00402 13.7097 2.87619 13.7737 2.78032 13.9015L0.0319824 10.6418V10.9614L2.68445 14.0932L2.62053 14.3809C2.62053 14.7324 2.87619 15.052 3.16381 15.052C3.48338 15.052 3.70709 14.7644 3.70709 14.3809C3.70709 13.9974 3.45143 13.7097 3.16381 13.7097ZM3.16381 14.6685C3.03598 14.6685 2.90815 14.5407 2.90815 14.3809C2.90815 14.2211 3.00402 14.0932 3.16381 14.0932C3.3236 14.0932 3.41947 14.2211 3.41947 14.3809C3.41947 14.5407 3.3236 14.6685 3.16381 14.6685Z" fill="#167AA1"/>
<path d="M3.16378 16.0427C3.004 16.0427 2.87617 16.1066 2.78029 16.2345L0 12.9429V13.2624L2.65247 16.3943L2.58855 16.6499C2.58855 17.0015 2.84421 17.321 3.13183 17.321C3.4514 17.321 3.6751 17.0334 3.6751 16.6499C3.6751 16.2664 3.41944 15.9788 3.13183 15.9788L3.16378 16.0427ZM3.16378 17.0334C3.004 17.0334 2.87617 16.8736 2.87617 16.6819C2.87617 16.4901 3.004 16.3303 3.16378 16.3303C3.32357 16.3303 3.4514 16.4901 3.4514 16.6819C3.4514 16.8736 3.32357 17.0334 3.16378 17.0334Z" fill="#167AA1"/>
<path d="M3.16378 18.3435C3.004 18.3435 2.87617 18.4074 2.78029 18.5353L0 15.2437V15.5632L2.65247 18.727L2.58855 19.0146C2.58855 19.3662 2.84421 19.6857 3.13183 19.6857C3.4514 19.6857 3.6751 19.3981 3.6751 19.0146C3.6751 18.6631 3.41944 18.3435 3.13183 18.3435H3.16378ZM3.16378 19.3342C3.004 19.3342 2.87617 19.1744 2.87617 18.9827C2.87617 18.7909 3.004 18.6631 3.16378 18.6631C3.32357 18.6631 3.4514 18.8229 3.4514 18.9827C3.4514 19.1744 3.32357 19.3342 3.16378 19.3342Z" fill="#167AA1"/>
<path d="M3.16378 20.6443C3.004 20.6443 2.87617 20.7082 2.78029 20.836L0 17.5444V17.864L2.65247 21.0278V21.2835C2.62051 21.635 2.84421 21.9546 3.16378 21.9546C3.48336 21.9546 3.70706 21.6669 3.70706 21.2835C3.70706 20.9 3.4514 20.6124 3.16378 20.6124V20.6443ZM3.16378 21.6669C3.004 21.6669 2.87617 21.5071 2.87617 21.3154C2.87617 21.1237 3.004 20.9639 3.16378 20.9639C3.32357 20.9639 3.4514 21.1237 3.4514 21.3154C3.4514 21.5071 3.32357 21.6669 3.16378 21.6669Z" fill="#167AA1"/>
<path d="M3.54721 1.11839C3.38742 1.11839 3.2596 1.18231 3.16372 1.31014L2.17304 0.159668C2.10913 0.159668 2.01326 0.191629 1.94934 0.223587L3.03589 1.50188L2.97198 1.7895C2.97198 2.14103 3.22764 2.4606 3.51525 2.4606C3.83483 2.4606 4.05853 2.17299 4.05853 1.7895C4.05853 1.43797 3.80287 1.11839 3.51525 1.11839H3.54721ZM3.54721 2.14103C3.38742 2.14103 3.22764 1.98124 3.22764 1.75754C3.22764 1.53384 3.35547 1.37405 3.54721 1.37405C3.707 1.37405 3.86679 1.53384 3.86679 1.75754C3.86679 1.98124 3.73896 2.14103 3.54721 2.14103Z" fill="#167AA1"/>
<path d="M5.33689 23.9041V13.3261L0 7.0625V7.38207L5.01731 13.3261V23.9041C4.79361 23.968 4.60187 24.2236 4.60187 24.5432C4.60187 24.8628 4.85753 25.2143 5.14514 25.2143C5.46472 25.2143 5.68842 24.9267 5.68842 24.5432C5.68842 24.2236 5.52863 23.968 5.30493 23.9041H5.33689ZM5.1771 24.8947C5.01731 24.8947 4.88949 24.7349 4.88949 24.5432C4.88949 24.3515 5.01731 24.1917 5.1771 24.1917C5.33689 24.1917 5.46472 24.3515 5.46472 24.5432C5.46472 24.7349 5.33689 24.8947 5.1771 24.8947Z" fill="#167AA1"/>
<path d="M5.84817 4.44212V1.78966L4.37813 0.0639648H4.09052L5.56056 1.78966V4.44212C5.3049 4.50604 5.14511 4.7617 5.14511 5.08127C5.14511 5.40084 5.40077 5.75239 5.68839 5.75239C6.00796 5.75239 6.23166 5.46476 6.23166 5.08127C6.23166 4.79365 6.07187 4.53799 5.84817 4.44212ZM5.68839 5.43281C5.5286 5.43281 5.40077 5.27301 5.40077 5.08127C5.40077 4.88953 5.5286 4.72975 5.68839 4.72975C5.84817 4.72975 5.976 4.88953 5.976 5.08127C5.976 5.27301 5.84817 5.43281 5.68839 5.43281Z" fill="#167AA1"/>
<path d="M7.22242 6.07194V0.766999L6.58327 0.0319824H6.29565L6.9348 0.766999V6.07194C6.7111 6.13585 6.51936 6.39151 6.51936 6.71108C6.51936 7.06262 6.77502 7.38218 7.09459 7.38218C7.41416 7.38218 7.63787 7.09457 7.63787 6.71108C7.63787 6.42347 7.47808 6.16781 7.22242 6.07194ZM7.06263 7.09456C6.90285 7.09456 6.74306 6.93479 6.74306 6.71108C6.74306 6.48738 6.87089 6.32759 7.06263 6.32759C7.22242 6.32759 7.38221 6.48738 7.38221 6.71108C7.38221 6.90283 7.25438 7.09456 7.06263 7.09456Z" fill="#167AA1"/>
<path d="M7.54191 23.9041V12.3355L2.78026 6.74298V3.09983L0.894772 0.894775C0.830858 0.95869 0.7989 0.990648 0.734985 1.05456L2.49264 3.13179V6.77493L7.22234 12.3675V23.9361C6.99864 24 6.80689 24.2556 6.80689 24.5752C6.80689 24.8948 7.06255 25.2463 7.35017 25.2463C7.63779 25.2463 7.89344 24.9587 7.89344 24.5752C7.89344 24.2876 7.73366 24.0319 7.478 23.9361L7.54191 23.9041ZM7.38213 24.8628C7.22234 24.8628 7.12647 24.703 7.12647 24.5433C7.12647 24.3515 7.2543 24.2237 7.38213 24.2237C7.50996 24.2237 7.66974 24.3835 7.66974 24.5433C7.66974 24.703 7.54191 24.8628 7.38213 24.8628Z" fill="#167AA1"/>
<path d="M10.0027 4.7617V1.11856L9.07588 0.0639648H8.78827L9.68308 1.15051V4.79367C9.45938 4.85758 9.26763 5.11324 9.26763 5.43281C9.26763 5.75239 9.52329 6.10391 9.81091 6.10391C10.1305 6.10391 10.3542 5.8163 10.3542 5.43281C10.3542 5.04932 10.1944 4.88954 9.93874 4.79367L10.0027 4.7617ZM9.84286 5.78434C9.65112 5.78434 9.52329 5.59259 9.52329 5.40084C9.52329 5.2091 9.68308 5.01735 9.84286 5.01735C10.0027 5.01735 10.1944 5.17714 10.1944 5.40084C10.1944 5.62455 10.0346 5.78433 9.84286 5.81629V5.78434Z" fill="#167AA1"/>
<path d="M9.77899 23.9042V13.3263L13.6139 8.69243V0.0319824H13.3263V8.69243L9.49138 13.3263V23.9042C9.26767 23.9681 9.07593 24.2237 9.07593 24.5433C9.07593 24.8629 9.33159 25.2144 9.61921 25.2144C9.93878 25.2144 10.1625 24.9268 10.1625 24.5433C10.1625 24.1598 10.0027 24 9.74704 23.9042H9.77899ZM9.61921 24.8948C9.45942 24.8948 9.33159 24.7351 9.33159 24.5433C9.33159 24.3516 9.45942 24.1918 9.61921 24.1918C9.77899 24.1918 9.90682 24.3516 9.90682 24.5433C9.90682 24.7351 9.77899 24.8948 9.61921 24.8948Z" fill="#167AA1"/>
<path d="M11.9521 19.2703V13.6458L14.988 10.0027V0.0319824H14.7004V10.0027L11.6964 13.6458V19.2703C11.4727 19.3662 11.3129 19.5899 11.3129 19.9095C11.3129 20.261 11.5686 20.5806 11.8562 20.5806C12.1438 20.5806 12.3995 20.293 12.3995 19.9095C12.3995 19.5899 12.2077 19.3343 11.9521 19.2703ZM11.8242 20.2291C11.6645 20.2291 11.5686 20.1012 11.5686 19.9095C11.5686 19.7177 11.6964 19.5899 11.8242 19.5899C11.9521 19.5899 12.0799 19.7177 12.0799 19.9095C12.0799 20.0693 11.9521 20.2291 11.8242 20.2291Z" fill="#167AA1"/>
<path d="M14.4767 23.5526V17.257L16.1065 15.2757V0.0319824H15.787V15.2757C15.8189 15.2757 14.1571 17.257 14.1571 17.257V23.5526C13.9334 23.6165 13.7417 23.8722 13.7417 24.1918C13.7417 24.5113 13.9974 24.8629 14.285 24.8629C14.6045 24.8629 14.8282 24.5753 14.8282 24.1918C14.8282 23.9042 14.6685 23.6485 14.4128 23.5526H14.4767ZM14.3169 24.5113C14.1571 24.5113 14.0293 24.3516 14.0293 24.1918C14.0293 24 14.1571 23.8722 14.3169 23.8722C14.4767 23.8722 14.6045 24.032 14.6045 24.1918C14.6045 24.3835 14.4767 24.5113 14.3169 24.5113Z" fill="#167AA1"/>
<path d="M16.9694 27.5153L16.9055 0.0319824H16.6179L16.6818 27.4834C16.4261 27.5473 16.2344 27.803 16.2344 28.1225C16.2344 28.4741 16.49 28.7936 16.7777 28.7936C17.0972 28.7936 17.3209 28.506 17.3209 28.1225C17.3209 27.739 17.1611 27.5793 16.9055 27.4834L16.9694 27.5153ZM16.8416 28.506C16.6818 28.506 16.522 28.3462 16.522 28.1225C16.522 27.8988 16.6498 27.771 16.8416 27.771C17.0333 27.771 17.1611 27.9308 17.1611 28.1225C17.1611 28.3143 17.0333 28.506 16.8416 28.506Z" fill="#167AA1"/>
<path d="M19.2064 27.5154V23.2011L20.2929 21.8909V16.2664L18.0559 13.6458V0.0639648H17.7363V13.6458L20.0053 16.2664V21.8909L18.9188 23.2011V27.5154C18.695 27.5793 18.5033 27.8349 18.5033 28.1545C18.5033 28.4741 18.759 28.8256 19.0466 28.8256C19.3662 28.8256 19.5899 28.538 19.5899 28.1545C19.5899 27.8669 19.4301 27.6112 19.1744 27.5154H19.2064ZM19.0466 28.4741C18.8868 28.4741 18.759 28.3143 18.759 28.1545C18.759 27.9947 18.8868 27.8349 19.0466 27.8349C19.2064 27.8349 19.3342 27.9947 19.3342 28.1545C19.3342 28.3463 19.2064 28.4741 19.0466 28.4741Z" fill="#167AA1"/>
<path d="M21.4115 27.4834V15.9148L18.8868 12.9428V0H18.5673V12.9428L21.0919 15.9148V27.4834C20.8682 27.5473 20.7084 27.8029 20.7084 28.1225C20.7084 28.4421 20.9641 28.7936 21.2517 28.7936C21.5713 28.7936 21.795 28.506 21.795 28.1225C21.795 27.739 21.6352 27.5792 21.3795 27.4834H21.4115ZM21.2836 28.474C21.1239 28.474 20.996 28.3143 20.996 28.1545C20.996 27.9947 21.1239 27.8349 21.2836 27.8349C21.4434 27.8349 21.5713 27.9947 21.5713 28.1545C21.5713 28.3143 21.4434 28.474 21.2836 28.474Z" fill="#167AA1"/>
<path d="M23.6485 27.4834V27.1318L22.2424 25.47V15.5632L19.7178 12.5912V0H19.3982V12.5912L21.9228 15.5632V25.47L23.329 27.1318V27.4834C23.0733 27.5473 22.9135 27.8029 22.9135 28.1225C22.9135 28.4741 23.1692 28.7936 23.4568 28.7936C23.7764 28.7936 24.0001 28.506 24.0001 28.1225C24.0001 27.8349 23.8403 27.5792 23.5846 27.4834H23.6485ZM23.4887 28.4421C23.329 28.4421 23.2011 28.2823 23.2011 28.1225C23.2011 27.9627 23.329 27.8029 23.4887 27.8029C23.6485 27.8029 23.7764 27.9627 23.7764 28.1225C23.7764 28.2823 23.6485 28.4421 23.4887 28.4421Z" fill="#167AA1"/>
<path d="M24.2877 0.0319824H23.2331C23.1692 0.127855 23.1372 0.255688 23.1372 0.415475C23.1372 0.767006 23.3929 1.08657 23.6805 1.08657C24.0001 1.08657 24.2238 0.798964 24.2238 0.415475L24.1598 0.127851L24.2557 0.0319824H24.2877ZM23.7124 0.735049C23.5527 0.735049 23.4248 0.575262 23.4248 0.415475C23.4248 0.255688 23.5527 0.0959011 23.6805 0.0959011C23.8403 0.0959011 23.9361 0.255688 23.9681 0.415475C23.9681 0.607219 23.8403 0.735049 23.7124 0.735049Z" fill="#167AA1"/>
<path d="M25.0226 23.2011V16.2344L21.1238 11.6325V0.0319824H20.8043V11.6325L24.735 16.2344V23.1691C24.5113 23.2331 24.3196 23.4887 24.3196 23.8083C24.3196 24.1279 24.5752 24.4794 24.8629 24.4794C25.1824 24.4794 25.4061 24.1918 25.4061 23.8083C25.4061 23.4248 25.2463 23.265 24.9907 23.1691L25.0226 23.2011ZM24.8629 24.1918C24.7031 24.1918 24.5433 24.032 24.5433 23.8402C24.5433 23.6485 24.6711 23.4887 24.8629 23.4887C25.0546 23.4887 25.1824 23.6485 25.1824 23.8402C25.1824 24.032 25.0546 24.1918 24.8629 24.2237V24.1918Z" fill="#167AA1"/>
<path d="M25.6937 27.4514L25.47 27.5154L23.201 24.8309V15.2757L20.3888 11.9841V0.0639648H20.0692V11.9841L22.8815 15.2757V24.8309L25.2783 27.6432C25.1824 27.771 25.1185 27.9308 25.1185 28.1226C25.1185 28.4741 25.3741 28.7937 25.6618 28.7937C25.9494 28.7937 26.205 28.5061 26.205 28.1226C26.205 27.7391 25.9494 27.4514 25.6618 27.4514H25.6937ZM25.6937 28.4102C25.5659 28.4102 25.4381 28.2824 25.4381 28.1226C25.4381 27.9628 25.5339 27.8349 25.6937 27.8349C25.8535 27.8349 25.9494 27.9628 25.9494 28.1226C25.9494 28.2824 25.8535 28.4102 25.6937 28.4102Z" fill="#167AA1"/>
<path d="M26.237 0.0319594H25.9494L24.0959 2.23702C24 2.10919 23.8722 2.04527 23.7124 2.04527C23.3928 2.04527 23.1691 2.33289 23.1691 2.71638C23.1691 3.06791 23.4248 3.38749 23.7124 3.38749C24.032 3.38749 24.2557 3.09987 24.2557 2.71638L24.1918 2.42876L26.2051 0L26.237 0.0319594ZM23.7124 3.06791C23.5526 3.06791 23.3928 2.90812 23.3928 2.71638C23.3928 2.52463 23.5207 2.36485 23.7124 2.36485C23.9041 2.36485 24.032 2.52463 24.032 2.71638C24.032 2.90812 23.9041 3.06791 23.7124 3.06791Z" fill="#167AA1"/>
<path d="M27.2278 23.2011V17.5766L22.2104 11.6645V0.0639648H21.8909V11.6645L26.9401 17.5766V23.2011C26.7164 23.265 26.5247 23.5207 26.5247 23.8403C26.5247 24.1918 26.7804 24.5114 27.068 24.5114C27.3875 24.5114 27.6112 24.2238 27.6112 23.8403C27.6112 23.5526 27.4515 23.297 27.1958 23.2011H27.2278ZM27.068 24.1598C26.9082 24.1598 26.7804 24.0001 26.7804 23.8083C26.7804 23.6166 26.9082 23.4568 27.068 23.4568C27.2278 23.4568 27.3556 23.6166 27.3556 23.8083C27.3556 24.0001 27.2278 24.1598 27.068 24.1598Z" fill="#167AA1"/>
<path d="M29.4647 23.2011V18.5673L24.1598 12.3037V5.04932L28.3142 0.0639648H28.0266L23.8402 5.04932V12.3037L29.1451 18.5673V23.2011C28.9214 23.265 28.7297 23.5207 28.7297 23.8403C28.7297 24.1598 28.9854 24.5114 29.273 24.5114C29.5925 24.5114 29.8162 24.2238 29.8162 23.8403C29.8162 23.4568 29.6565 23.297 29.4008 23.2011H29.4647ZM29.3049 24.0959C29.1771 24.0959 29.0812 23.9681 29.0812 23.8083C29.0812 23.6485 29.1771 23.5207 29.3049 23.5207C29.4328 23.5207 29.5286 23.6485 29.5286 23.8083C29.5286 23.9681 29.4328 24.0959 29.3049 24.0959Z" fill="#167AA1"/>
<path d="M31.7656 11.281C31.6059 11.281 31.478 11.3449 31.3822 11.4727L26.7803 6.00802L31.7656 0.0319824H31.478L26.4927 6.00802L31.2543 11.6645L31.1904 11.9521C31.1904 12.3036 31.4461 12.6232 31.7337 12.6232C32.0213 12.6232 32.277 12.3356 32.277 11.9521C32.277 11.6006 32.0213 11.281 31.7337 11.281H31.7656ZM31.7656 12.3036C31.6059 12.3036 31.478 12.1438 31.478 11.9521C31.478 11.7603 31.6059 11.6006 31.7656 11.6006C31.9254 11.6006 32.0533 11.7603 32.0533 11.9521C32.0533 12.1438 31.9254 12.3036 31.7656 12.3036Z" fill="#167AA1"/>
<path d="M33.1398 9.6192C32.98 9.6192 32.8522 9.68311 32.7563 9.81094L28.6977 5.01733L32.8522 0.0319824H32.5646L28.3782 5.01733L32.5966 10.0027L32.5326 10.2903C32.5326 10.6418 32.7883 10.9614 33.0759 10.9614C33.3635 10.9614 33.6192 10.6738 33.6192 10.2903C33.6192 9.93877 33.3635 9.6192 33.0759 9.6192H33.1398ZM33.1398 10.6418C32.98 10.6418 32.8522 10.482 32.8522 10.2903C32.8522 10.0986 32.98 9.93878 33.1398 9.93878C33.2996 9.93878 33.4274 10.0986 33.4274 10.2903C33.4274 10.482 33.2996 10.6418 33.1398 10.6418Z" fill="#167AA1"/>
<path d="M33.1718 23.1372C33.012 23.1372 32.8842 23.2011 32.7883 23.3289L30.6791 20.8362V17.8642L25.6618 11.9521V4.69775L29.5286 0.0319824H29.241L25.3422 4.69775V11.9521L30.3595 17.8642V20.8362L32.6285 23.5207L32.5646 23.8083C32.5646 24.1598 32.8203 24.4794 33.1079 24.4794C33.3955 24.4794 33.6512 24.1918 33.6512 23.8402C33.6512 23.4568 33.3955 23.1691 33.1079 23.1691L33.1718 23.1372ZM33.1718 24.1598C33.012 24.1598 32.8842 24 32.8842 23.8083C32.8842 23.6165 33.012 23.4567 33.1718 23.4567C33.3316 23.4567 33.4594 23.6165 33.4594 23.8083C33.4594 24 33.3316 24.1598 33.1718 24.1598Z" fill="#167AA1"/>
<path d="M34.546 7.63784C34.3862 7.63784 34.2584 7.70176 34.1625 7.82959L30.9348 4.02666L34.2584 0.0319824H33.9708L30.6152 4.02666L34.0027 8.02133L33.9388 8.30896C33.9388 8.66049 34.1945 8.98005 34.4821 8.98005C34.8017 8.98005 35.0254 8.69244 35.0254 8.30896C35.0254 7.95742 34.7697 7.63784 34.4821 7.63784H34.546ZM34.546 8.59656C34.4182 8.59656 34.2903 8.46874 34.2903 8.30896C34.2903 8.14917 34.4182 7.98938 34.546 7.98938C34.6738 7.98938 34.8017 8.1172 34.8017 8.27699C34.8017 8.43677 34.7058 8.56461 34.546 8.56461V8.59656Z" fill="#167AA1"/>
<path d="M38.285 0.159645C38.1891 0.159645 38.1252 0.159643 38.0293 0.127686L34.8975 3.8667C34.8016 3.73888 34.6418 3.67496 34.514 3.67496C34.1944 3.67496 33.9707 3.96258 33.9707 4.34607C33.9707 4.72955 34.2264 5.01716 34.5459 5.01716C34.8655 5.01716 35.0892 4.72955 35.0892 4.34607L35.0253 4.05844L38.285 0.159645ZM34.514 4.63369C34.3861 4.63369 34.2903 4.50585 34.2903 4.34607C34.2903 4.18628 34.3861 4.05844 34.514 4.05844C34.6418 4.05844 34.7377 4.18628 34.7377 4.34607C34.7377 4.50585 34.6418 4.63369 34.514 4.63369Z" fill="#167AA1"/>
<path d="M36.4634 4.34628L39.6911 0.479436C39.6272 0.479436 39.5313 0.447485 39.4674 0.415527L36.1758 4.34628V9.93883L33.2676 13.4541C33.1718 13.3263 33.0439 13.2624 32.8842 13.2624C32.5646 13.2624 32.3409 13.55 32.3409 13.9335C32.3409 14.285 32.5965 14.6046 32.8842 14.6046C33.1718 14.6046 33.4274 14.317 33.4274 13.9335L33.3635 13.6459L36.4634 9.93883V4.34628ZM32.8842 14.2211C32.7244 14.2211 32.6285 14.0933 32.6285 13.9016C32.6285 13.7098 32.7563 13.582 32.8842 13.582C33.012 13.582 33.1398 13.7098 33.1398 13.9016C33.1398 14.0933 33.012 14.2211 32.8842 14.2211Z" fill="#167AA1"/>
<path d="M37.5819 4.34627L40.554 0.798993C40.49 0.798993 40.4261 0.735082 40.3622 0.703125L37.3263 4.31432V12.2397L34.7058 15.4035C34.6099 15.2757 34.4501 15.2118 34.3223 15.2118C34.0027 15.2118 33.779 15.4994 33.779 15.8829C33.779 16.2664 34.0347 16.554 34.3223 16.554C34.6099 16.554 34.8655 16.2664 34.8655 15.8829L34.8016 15.5953L37.6139 12.2397V4.31432L37.5819 4.34627ZM34.2903 16.2025C34.1625 16.2025 34.0347 16.0746 34.0347 15.9148C34.0347 15.7551 34.1625 15.6272 34.2903 15.6272C34.4181 15.6272 34.546 15.7551 34.546 15.9148C34.546 16.0746 34.4181 16.2025 34.2903 16.2025Z" fill="#167AA1"/>
<path d="M38.317 17.8961V4.3462L41.0653 1.02264C41.0014 0.990678 40.9375 0.958715 40.8736 0.926758L38.0294 4.3462V17.8961C37.8057 17.9601 37.6459 18.2157 37.6459 18.5353C37.6459 18.8868 37.9015 19.2064 38.1891 19.2064C38.4768 19.2064 38.4768 19.1425 38.5726 19.0147C38.6685 18.8868 38.7324 18.727 38.7324 18.5353C38.7324 18.2477 38.5726 17.992 38.317 17.8961ZM38.1572 18.8229C38.0294 18.8229 37.9015 18.6951 37.9015 18.5033C37.9015 18.3116 38.0294 18.1838 38.1572 18.1838C38.285 18.1838 38.4129 18.3116 38.4129 18.5033C38.4129 18.6951 38.285 18.8229 38.1572 18.8229Z" fill="#167AA1"/>
<path d="M40.2664 17.8961V3.67501C40.2344 3.67501 42.024 1.53387 42.024 1.53387C41.9921 1.53387 41.9601 1.50191 41.8962 1.46995C41.8962 1.46995 41.8642 1.46995 41.8323 1.43799L39.9468 3.67501V17.8641C39.7231 17.928 39.5633 18.1837 39.5633 18.5032C39.5633 18.8228 39.819 19.1744 40.1066 19.1744C40.4261 19.1744 40.6498 18.8867 40.6498 18.5032C40.6498 18.2156 40.4901 17.96 40.2344 17.8641L40.2664 17.8961ZM40.1066 18.8548C39.9468 18.8548 39.819 18.695 39.819 18.5032C39.819 18.3115 39.9468 18.1517 40.1066 18.1517C40.2664 18.1517 40.3942 18.3115 40.3942 18.5032C40.3942 18.695 40.2664 18.8548 40.1066 18.8548Z" fill="#167AA1"/>
<path d="M43.2704 2.49258C43.2064 2.46063 43.1745 2.3967 43.1106 2.36475L41.8323 3.8987C41.7364 3.77087 41.6086 3.70696 41.4488 3.70696C41.1292 3.70696 40.9055 3.99457 40.9055 4.37806C40.9055 4.76155 41.1612 5.04918 41.4488 5.04918C41.7684 5.04918 41.9921 4.76155 41.9921 4.37806L41.9282 4.09045L43.2384 2.52453L43.2704 2.49258ZM41.4488 4.7296C41.257 4.7296 41.1292 4.56981 41.1292 4.34611C41.1292 4.12241 41.289 3.96262 41.4488 3.96262C41.6405 3.96262 41.7684 4.12241 41.7684 4.34611C41.7684 4.56981 41.6086 4.7296 41.4488 4.7296Z" fill="#167AA1"/>
<path d="M44.3249 3.51526C44.2929 3.45134 44.229 3.41938 44.197 3.35547L41.8641 6.16773C41.7683 6.0399 41.6085 5.97597 41.4807 5.97597C41.1611 5.97597 40.9374 6.2636 40.9374 6.64709C40.9374 6.99862 41.193 7.31818 41.4807 7.31818C41.8002 7.31818 42.0239 7.03057 42.0239 6.64709L41.96 6.35946L44.3249 3.51526ZM41.4487 7.06253C41.2569 7.06253 41.0972 6.87079 41.0972 6.64709C41.0972 6.42338 41.2569 6.23164 41.4487 6.23164C41.6404 6.23164 41.8002 6.42338 41.8002 6.64709C41.8002 6.87079 41.6404 7.06253 41.4487 7.06253Z" fill="#167AA1"/>
<path d="M45.2516 4.76156C45.2197 4.69765 45.1558 4.63374 45.1238 4.56982L41.8641 8.46863C41.7683 8.3408 41.6404 8.27687 41.4807 8.27687C41.1611 8.27687 40.9374 8.5645 40.9374 8.94799C40.9374 9.33148 41.193 9.61909 41.4807 9.61909C41.7683 9.61909 42.0239 9.33148 42.0239 8.94799L41.96 8.66037L45.2516 4.72961V4.76156ZM41.4807 9.33146C41.3209 9.33146 41.1611 9.17169 41.1611 8.94799C41.1611 8.72429 41.3209 8.5645 41.4807 8.5645C41.6404 8.5645 41.8002 8.72429 41.8002 8.94799C41.8002 9.17169 41.6724 9.33146 41.4807 9.33146Z" fill="#167AA1"/>
<path d="M45.9867 6.16776C45.9867 6.16776 45.9867 6.1358 45.9867 6.10385C45.9867 6.10385 45.9867 6.07188 45.9867 6.03993C45.9867 6.00797 45.9548 5.97602 45.9228 5.91211L41.8962 10.7377C41.8003 10.6098 41.6405 10.5459 41.5127 10.5459C41.1931 10.5459 40.9694 10.8335 40.9694 11.217C40.9694 11.6005 41.2251 11.8881 41.5127 11.8881C41.8323 11.8881 42.056 11.6005 42.056 11.217L41.9921 10.9294L46.0187 6.1358L45.9867 6.16776ZM41.4807 11.6325C41.289 11.6325 41.1612 11.4727 41.1612 11.249C41.1612 11.0253 41.321 10.8655 41.4807 10.8655C41.6725 10.8655 41.8003 11.0253 41.8003 11.249C41.8003 11.4727 41.6725 11.6325 41.4807 11.6325Z" fill="#167AA1"/>
<path d="M46.8176 10.7056L43.2703 14.9559C43.1745 14.8281 43.0466 14.7641 42.8868 14.7641C42.5673 14.7641 42.3436 15.0518 42.3436 15.4353C42.3436 15.8187 42.5992 16.1064 42.8868 16.1064C43.2064 16.1064 43.4301 15.8187 43.4301 15.4353L43.3662 15.1476L46.8176 11.0251V10.7056ZM42.8868 15.8187C42.6951 15.8187 42.5673 15.659 42.5673 15.4353C42.5673 15.2116 42.7271 15.0518 42.8868 15.0518C43.0786 15.0518 43.2064 15.2435 43.2064 15.4353C43.2064 15.627 43.0466 15.8187 42.8868 15.8187Z" fill="#167AA1"/>
<path d="M38.253 26.94H32.6925C32.6285 26.6524 32.4048 26.4287 32.1492 26.4287C31.8296 26.4287 31.6059 26.7163 31.6059 27.0998C31.6059 27.4833 31.8616 27.7709 32.1492 27.7709C32.4368 27.7709 32.6285 27.5791 32.6925 27.2915H38.253L46.8176 17.0332V16.7136L38.253 26.94ZM32.1492 27.4194C31.9894 27.4194 31.8616 27.2596 31.8616 27.0998C31.8616 26.908 31.9894 26.7802 32.1492 26.7802C32.309 26.7802 32.4368 26.94 32.4368 27.0998C32.4368 27.2596 32.309 27.4194 32.1492 27.4194Z" fill="#167AA1"/>
<path d="M3.16378 20.6443C3.004 20.6443 2.87617 20.7082 2.78029 20.836L0 17.5444V17.864L2.65247 21.0278V21.2835C2.62051 21.635 2.84421 21.9546 3.16378 21.9546C3.48336 21.9546 3.70706 21.6669 3.70706 21.2835C3.70706 20.9 3.4514 20.6124 3.16378 20.6124V20.6443ZM3.16378 21.6669C3.004 21.6669 2.87617 21.5071 2.87617 21.3154C2.87617 21.1237 3.004 20.9639 3.16378 20.9639C3.32357 20.9639 3.4514 21.1237 3.4514 21.3154C3.4514 21.5071 3.32357 21.6669 3.16378 21.6669Z" fill="#A6BBD6"/>
<path d="M7.22242 6.07194V0.766999L6.58327 0.0319824H6.29565L6.9348 0.766999V6.07194C6.7111 6.13585 6.51936 6.39151 6.51936 6.71108C6.51936 7.06262 6.77502 7.38218 7.09459 7.38218C7.41416 7.38218 7.63787 7.09457 7.63787 6.71108C7.63787 6.42347 7.47808 6.16781 7.22242 6.07194ZM7.06263 7.09456C6.90285 7.09456 6.74306 6.93479 6.74306 6.71108C6.74306 6.48738 6.87089 6.32759 7.06263 6.32759C7.22242 6.32759 7.38221 6.48738 7.38221 6.71108C7.38221 6.90283 7.25438 7.09456 7.06263 7.09456Z" fill="#A6BBD6"/>
<path d="M5.33689 23.9041V13.3261L0 7.0625V7.38207L5.01731 13.3261V23.9041C4.79361 23.968 4.60187 24.2236 4.60187 24.5432C4.60187 24.8628 4.85753 25.2143 5.14514 25.2143C5.46472 25.2143 5.68842 24.9267 5.68842 24.5432C5.68842 24.2236 5.52863 23.968 5.30493 23.9041H5.33689ZM5.1771 24.8947C5.01731 24.8947 4.88949 24.7349 4.88949 24.5432C4.88949 24.3515 5.01731 24.1917 5.1771 24.1917C5.33689 24.1917 5.46472 24.3515 5.46472 24.5432C5.46472 24.7349 5.33689 24.8947 5.1771 24.8947Z" fill="#A6BBD6"/>
<path d="M7.54191 23.9041V12.3355L2.78026 6.74298V3.09983L0.894772 0.894775C0.830858 0.95869 0.7989 0.990648 0.734985 1.05456L2.49264 3.13179V6.77493L7.22234 12.3675V23.9361C6.99864 24 6.80689 24.2556 6.80689 24.5752C6.80689 24.8948 7.06255 25.2463 7.35017 25.2463C7.63779 25.2463 7.89344 24.9587 7.89344 24.5752C7.89344 24.2876 7.73366 24.0319 7.478 23.9361L7.54191 23.9041ZM7.38213 24.8628C7.22234 24.8628 7.12647 24.703 7.12647 24.5433C7.12647 24.3515 7.2543 24.2237 7.38213 24.2237C7.50996 24.2237 7.66974 24.3835 7.66974 24.5433C7.66974 24.703 7.54191 24.8628 7.38213 24.8628Z" fill="#A6BBD6"/>
<path d="M5.84817 4.44212V1.78966L4.37813 0.0639648H4.09052L5.56056 1.78966V4.44212C5.3049 4.50604 5.14511 4.7617 5.14511 5.08127C5.14511 5.40084 5.40077 5.75239 5.68839 5.75239C6.00796 5.75239 6.23166 5.46476 6.23166 5.08127C6.23166 4.79365 6.07187 4.53799 5.84817 4.44212ZM5.68839 5.43281C5.5286 5.43281 5.40077 5.27301 5.40077 5.08127C5.40077 4.88953 5.5286 4.72975 5.68839 4.72975C5.84817 4.72975 5.976 4.88953 5.976 5.08127C5.976 5.27301 5.84817 5.43281 5.68839 5.43281Z" fill="#A6BBD6"/>
<path d="M3.16378 18.3435C3.004 18.3435 2.87617 18.4074 2.78029 18.5353L0 15.2437V15.5632L2.65247 18.727L2.58855 19.0146C2.58855 19.3662 2.84421 19.6857 3.13183 19.6857C3.4514 19.6857 3.6751 19.3981 3.6751 19.0146C3.6751 18.6631 3.41944 18.3435 3.13183 18.3435H3.16378ZM3.16378 19.3342C3.004 19.3342 2.87617 19.1744 2.87617 18.9827C2.87617 18.7909 3.004 18.6631 3.16378 18.6631C3.32357 18.6631 3.4514 18.8229 3.4514 18.9827C3.4514 19.1744 3.32357 19.3342 3.16378 19.3342Z" fill="#A6BBD6"/>
<path d="M0.415473 4.09056C0.255686 4.09056 0.127855 4.15447 0.0319824 4.2823V5.1771C0.127855 5.30493 0.287643 5.40081 0.44743 5.40081C0.767004 5.40081 0.990705 5.1132 0.990705 4.72971C0.990705 4.34622 0.735047 4.05859 0.44743 4.05859L0.415473 4.09056ZM0.415473 5.1132C0.255686 5.1132 0.0958987 4.95341 0.0958987 4.72971C0.0958987 4.50601 0.223728 4.34622 0.415473 4.34622C0.57526 4.34622 0.735047 4.50601 0.735047 4.72971C0.735047 4.92146 0.607217 5.1132 0.415473 5.1132Z" fill="#A6BBD6"/>
<path d="M3.16378 16.0427C3.004 16.0427 2.87617 16.1066 2.78029 16.2345L0 12.9429V13.2624L2.65247 16.3943L2.58855 16.6499C2.58855 17.0015 2.84421 17.321 3.13183 17.321C3.4514 17.321 3.6751 17.0334 3.6751 16.6499C3.6751 16.2664 3.41944 15.9788 3.13183 15.9788L3.16378 16.0427ZM3.16378 17.0334C3.004 17.0334 2.87617 16.8736 2.87617 16.6819C2.87617 16.4901 3.004 16.3303 3.16378 16.3303C3.32357 16.3303 3.4514 16.4901 3.4514 16.6819C3.4514 16.8736 3.32357 17.0334 3.16378 17.0334Z" fill="#A6BBD6"/>
<path d="M3.16381 13.7097C3.00402 13.7097 2.87619 13.7737 2.78032 13.9015L0.0319824 10.6418V10.9614L2.68445 14.0932L2.62053 14.3809C2.62053 14.7324 2.87619 15.052 3.16381 15.052C3.48338 15.052 3.70709 14.7644 3.70709 14.3809C3.70709 13.9974 3.45143 13.7097 3.16381 13.7097ZM3.16381 14.6685C3.03598 14.6685 2.90815 14.5407 2.90815 14.3809C2.90815 14.2211 3.00402 14.0932 3.16381 14.0932C3.3236 14.0932 3.41947 14.2211 3.41947 14.3809C3.41947 14.5407 3.3236 14.6685 3.16381 14.6685Z" fill="#A6BBD6"/>
<path d="M3.54721 1.11839C3.38742 1.11839 3.2596 1.18231 3.16372 1.31014L2.17304 0.159668C2.10913 0.159668 2.01326 0.191629 1.94934 0.223587L3.03589 1.50188L2.97198 1.7895C2.97198 2.14103 3.22764 2.4606 3.51525 2.4606C3.83483 2.4606 4.05853 2.17299 4.05853 1.7895C4.05853 1.43797 3.80287 1.11839 3.51525 1.11839H3.54721ZM3.54721 2.14103C3.38742 2.14103 3.22764 1.98124 3.22764 1.75754C3.22764 1.53384 3.35547 1.37405 3.54721 1.37405C3.707 1.37405 3.86679 1.53384 3.86679 1.75754C3.86679 1.98124 3.73896 2.14103 3.54721 2.14103Z" fill="#A6BBD6"/>
<path d="M36.4634 4.34628L39.6911 0.479436C39.6272 0.479436 39.5313 0.447485 39.4674 0.415527L36.1758 4.34628V9.93883L33.2676 13.4541C33.1718 13.3263 33.0439 13.2624 32.8842 13.2624C32.5646 13.2624 32.3409 13.55 32.3409 13.9335C32.3409 14.285 32.5965 14.6046 32.8842 14.6046C33.1718 14.6046 33.4274 14.317 33.4274 13.9335L33.3635 13.6459L36.4634 9.93883V4.34628ZM32.8842 14.2211C32.7244 14.2211 32.6285 14.0933 32.6285 13.9016C32.6285 13.7098 32.7563 13.582 32.8842 13.582C33.012 13.582 33.1398 13.7098 33.1398 13.9016C33.1398 14.0933 33.012 14.2211 32.8842 14.2211Z" fill="#A6BBD6"/>
<path d="M33.1398 9.6192C32.98 9.6192 32.8522 9.68311 32.7563 9.81094L28.6977 5.01733L32.8522 0.0319824H32.5646L28.3782 5.01733L32.5966 10.0027L32.5326 10.2903C32.5326 10.6418 32.7883 10.9614 33.0759 10.9614C33.3635 10.9614 33.6192 10.6738 33.6192 10.2903C33.6192 9.93877 33.3635 9.6192 33.0759 9.6192H33.1398ZM33.1398 10.6418C32.98 10.6418 32.8522 10.482 32.8522 10.2903C32.8522 10.0986 32.98 9.93878 33.1398 9.93878C33.2996 9.93878 33.4274 10.0986 33.4274 10.2903C33.4274 10.482 33.2996 10.6418 33.1398 10.6418Z" fill="#A6BBD6"/>
<path d="M38.285 0.159645C38.1891 0.159645 38.1252 0.159643 38.0293 0.127686L34.8975 3.8667C34.8016 3.73888 34.6418 3.67496 34.514 3.67496C34.1944 3.67496 33.9707 3.96258 33.9707 4.34607C33.9707 4.72955 34.2264 5.01716 34.5459 5.01716C34.8655 5.01716 35.0892 4.72955 35.0892 4.34607L35.0253 4.05844L38.285 0.159645ZM34.514 4.63369C34.3861 4.63369 34.2903 4.50585 34.2903 4.34607C34.2903 4.18628 34.3861 4.05844 34.514 4.05844C34.6418 4.05844 34.7377 4.18628 34.7377 4.34607C34.7377 4.50585 34.6418 4.63369 34.514 4.63369Z" fill="#A6BBD6"/>
<path d="M31.7656 11.281C31.6059 11.281 31.478 11.3449 31.3822 11.4727L26.7803 6.00802L31.7656 0.0319824H31.478L26.4927 6.00802L31.2543 11.6645L31.1904 11.9521C31.1904 12.3036 31.4461 12.6232 31.7337 12.6232C32.0213 12.6232 32.277 12.3356 32.277 11.9521C32.277 11.6006 32.0213 11.281 31.7337 11.281H31.7656ZM31.7656 12.3036C31.6059 12.3036 31.478 12.1438 31.478 11.9521C31.478 11.7603 31.6059 11.6006 31.7656 11.6006C31.9254 11.6006 32.0533 11.7603 32.0533 11.9521C32.0533 12.1438 31.9254 12.3036 31.7656 12.3036Z" fill="#A6BBD6"/>
<path d="M34.546 7.63784C34.3862 7.63784 34.2584 7.70176 34.1625 7.82959L30.9348 4.02666L34.2584 0.0319824H33.9708L30.6152 4.02666L34.0027 8.02133L33.9388 8.30896C33.9388 8.66049 34.1945 8.98005 34.4821 8.98005C34.8017 8.98005 35.0254 8.69244 35.0254 8.30896C35.0254 7.95742 34.7697 7.63784 34.4821 7.63784H34.546ZM34.546 8.59656C34.4182 8.59656 34.2903 8.46874 34.2903 8.30896C34.2903 8.14917 34.4182 7.98938 34.546 7.98938C34.6738 7.98938 34.8017 8.1172 34.8017 8.27699C34.8017 8.43677 34.7058 8.56461 34.546 8.56461V8.59656Z" fill="#A6BBD6"/>
<path d="M33.1718 23.1372C33.012 23.1372 32.8842 23.2011 32.7883 23.3289L30.6791 20.8362V17.8642L25.6618 11.9521V4.69775L29.5286 0.0319824H29.241L25.3422 4.69775V11.9521L30.3595 17.8642V20.8362L32.6285 23.5207L32.5646 23.8083C32.5646 24.1598 32.8203 24.4794 33.1079 24.4794C33.3955 24.4794 33.6512 24.1918 33.6512 23.8402C33.6512 23.4568 33.3955 23.1691 33.1079 23.1691L33.1718 23.1372ZM33.1718 24.1598C33.012 24.1598 32.8842 24 32.8842 23.8083C32.8842 23.6165 33.012 23.4567 33.1718 23.4567C33.3316 23.4567 33.4594 23.6165 33.4594 23.8083C33.4594 24 33.3316 24.1598 33.1718 24.1598Z" fill="#A6BBD6"/>
<path d="M29.4647 23.2011V18.5673L24.1598 12.3037V5.04932L28.3142 0.0639648H28.0266L23.8402 5.04932V12.3037L29.1451 18.5673V23.2011C28.9214 23.265 28.7297 23.5207 28.7297 23.8403C28.7297 24.1598 28.9854 24.5114 29.273 24.5114C29.5925 24.5114 29.8162 24.2238 29.8162 23.8403C29.8162 23.4568 29.6565 23.297 29.4008 23.2011H29.4647ZM29.3049 24.0959C29.1771 24.0959 29.0812 23.9681 29.0812 23.8083C29.0812 23.6485 29.1771 23.5207 29.3049 23.5207C29.4328 23.5207 29.5286 23.6485 29.5286 23.8083C29.5286 23.9681 29.4328 24.0959 29.3049 24.0959Z" fill="#A6BBD6"/>
<path d="M40.2664 17.8961V3.67501C40.2344 3.67501 42.024 1.53387 42.024 1.53387C41.9921 1.53387 41.9601 1.50191 41.8962 1.46995C41.8962 1.46995 41.8642 1.46995 41.8323 1.43799L39.9468 3.67501V17.8641C39.7231 17.928 39.5633 18.1837 39.5633 18.5032C39.5633 18.8228 39.819 19.1744 40.1066 19.1744C40.4261 19.1744 40.6498 18.8867 40.6498 18.5032C40.6498 18.2156 40.4901 17.96 40.2344 17.8641L40.2664 17.8961ZM40.1066 18.8548C39.9468 18.8548 39.819 18.695 39.819 18.5032C39.819 18.3115 39.9468 18.1517 40.1066 18.1517C40.2664 18.1517 40.3942 18.3115 40.3942 18.5032C40.3942 18.695 40.2664 18.8548 40.1066 18.8548Z" fill="#A6BBD6"/>
<path d="M46.8176 10.7056L43.2703 14.9559C43.1745 14.8281 43.0466 14.7641 42.8868 14.7641C42.5673 14.7641 42.3436 15.0518 42.3436 15.4353C42.3436 15.8187 42.5992 16.1064 42.8868 16.1064C43.2064 16.1064 43.4301 15.8187 43.4301 15.4353L43.3662 15.1476L46.8176 11.0251V10.7056ZM42.8868 15.8187C42.6951 15.8187 42.5673 15.659 42.5673 15.4353C42.5673 15.2116 42.7271 15.0518 42.8868 15.0518C43.0786 15.0518 43.2064 15.2435 43.2064 15.4353C43.2064 15.627 43.0466 15.8187 42.8868 15.8187Z" fill="#A6BBD6"/>
<path d="M45.9867 6.1678V6.13583C45.9867 6.13583 45.9867 6.10389 45.9867 6.07193C45.9867 6.03997 45.9548 6.00801 45.9228 5.94409L41.8962 10.7697C41.8003 10.6418 41.6405 10.5779 41.5127 10.5779C41.1931 10.5779 40.9694 10.8655 40.9694 11.249C40.9694 11.6325 41.2251 11.9201 41.5127 11.9201C41.8323 11.9201 42.056 11.6325 42.056 11.249L41.9921 10.9614L46.0187 6.1678H45.9867ZM41.4807 11.6325C41.289 11.6325 41.1612 11.4727 41.1612 11.249C41.1612 11.0253 41.321 10.8655 41.4807 10.8655C41.6725 10.8655 41.8003 11.0253 41.8003 11.249C41.8003 11.4727 41.6725 11.6325 41.4807 11.6325Z" fill="#A6BBD6"/>
<path d="M45.2516 4.76156C45.2197 4.69765 45.1558 4.63374 45.1238 4.56982L41.8641 8.46863C41.7683 8.3408 41.6404 8.27687 41.4807 8.27687C41.1611 8.27687 40.9374 8.5645 40.9374 8.94799C40.9374 9.33148 41.193 9.61909 41.4807 9.61909C41.7683 9.61909 42.0239 9.33148 42.0239 8.94799L41.96 8.66037L45.2516 4.72961V4.76156ZM41.4807 9.33146C41.3209 9.33146 41.1611 9.17169 41.1611 8.94799C41.1611 8.72429 41.3209 8.5645 41.4807 8.5645C41.6404 8.5645 41.8002 8.72429 41.8002 8.94799C41.8002 9.17169 41.6724 9.33146 41.4807 9.33146Z" fill="#A6BBD6"/>
<path d="M38.253 26.94H32.6925C32.6285 26.6524 32.4048 26.4287 32.1492 26.4287C31.8296 26.4287 31.6059 26.7163 31.6059 27.0998C31.6059 27.4833 31.8616 27.7709 32.1492 27.7709C32.4368 27.7709 32.6285 27.5791 32.6925 27.2915H38.253L46.8176 17.0332V16.7136L38.253 26.94ZM32.1492 27.4194C31.9894 27.4194 31.8616 27.2596 31.8616 27.0998C31.8616 26.908 31.9894 26.7802 32.1492 26.7802C32.309 26.7802 32.4368 26.94 32.4368 27.0998C32.4368 27.2596 32.309 27.4194 32.1492 27.4194Z" fill="#A6BBD6"/>
<path d="M38.317 17.8961V4.3462L41.0653 1.02264C41.0014 0.990678 40.9375 0.958715 40.8736 0.926758L38.0294 4.3462V17.8961C37.8057 17.9601 37.6459 18.2157 37.6459 18.5353C37.6459 18.8868 37.9015 19.2064 38.1891 19.2064C38.4768 19.2064 38.4768 19.1425 38.5726 19.0147C38.6685 18.8868 38.7324 18.727 38.7324 18.5353C38.7324 18.2477 38.5726 17.992 38.317 17.8961ZM38.1572 18.8229C38.0294 18.8229 37.9015 18.6951 37.9015 18.5033C37.9015 18.3116 38.0294 18.1838 38.1572 18.1838C38.285 18.1838 38.4129 18.3116 38.4129 18.5033C38.4129 18.6951 38.285 18.8229 38.1572 18.8229Z" fill="#A6BBD6"/>
<path d="M37.5819 4.34627L40.554 0.798993C40.49 0.798993 40.4261 0.735082 40.3622 0.703125L37.3263 4.31432V12.2397L34.7058 15.4035C34.6099 15.2757 34.4501 15.2118 34.3223 15.2118C34.0027 15.2118 33.779 15.4994 33.779 15.8829C33.779 16.2664 34.0347 16.554 34.3223 16.554C34.6099 16.554 34.8655 16.2664 34.8655 15.8829L34.8016 15.5953L37.6139 12.2397V4.31432L37.5819 4.34627ZM34.2903 16.2025C34.1625 16.2025 34.0347 16.0746 34.0347 15.9148C34.0347 15.7551 34.1625 15.6272 34.2903 15.6272C34.4181 15.6272 34.546 15.7551 34.546 15.9148C34.546 16.0746 34.4181 16.2025 34.2903 16.2025Z" fill="#A6BBD6"/>
<path d="M43.2704 2.49258C43.2064 2.46063 43.1745 2.3967 43.1106 2.36475L41.8323 3.8987C41.7364 3.77087 41.6086 3.70696 41.4488 3.70696C41.1292 3.70696 40.9055 3.99457 40.9055 4.37806C40.9055 4.76155 41.1612 5.04918 41.4488 5.04918C41.7684 5.04918 41.9921 4.76155 41.9921 4.37806L41.9282 4.09045L43.2384 2.52453L43.2704 2.49258ZM41.4488 4.7296C41.257 4.7296 41.1292 4.56981 41.1292 4.34611C41.1292 4.12241 41.289 3.96262 41.4488 3.96262C41.6405 3.96262 41.7684 4.12241 41.7684 4.34611C41.7684 4.56981 41.6086 4.7296 41.4488 4.7296Z" fill="#A6BBD6"/>
<path d="M44.3249 3.51526C44.2929 3.45134 44.229 3.41938 44.197 3.35547L41.8641 6.16773C41.7683 6.0399 41.6085 5.97597 41.4807 5.97597C41.1611 5.97597 40.9374 6.2636 40.9374 6.64709C40.9374 6.99862 41.193 7.31818 41.4807 7.31818C41.8002 7.31818 42.0239 7.03057 42.0239 6.64709L41.96 6.35946L44.3249 3.51526ZM41.4487 7.06253C41.2569 7.06253 41.0972 6.87079 41.0972 6.64709C41.0972 6.42338 41.2569 6.23164 41.4487 6.23164C41.6404 6.23164 41.8002 6.42338 41.8002 6.64709C41.8002 6.87079 41.6404 7.06253 41.4487 7.06253Z" fill="#A6BBD6"/>
<path d="M27.2278 23.2011V17.5766L22.2104 11.6645V0.0639648H21.8909V11.6645L26.9401 17.5766V23.2011C26.7164 23.265 26.5247 23.5207 26.5247 23.8403C26.5247 24.1918 26.7804 24.5114 27.068 24.5114C27.3875 24.5114 27.6112 24.2238 27.6112 23.8403C27.6112 23.5526 27.4515 23.297 27.1958 23.2011H27.2278ZM27.068 24.1598C26.9082 24.1598 26.7804 24.0001 26.7804 23.8083C26.7804 23.6166 26.9082 23.4568 27.068 23.4568C27.2278 23.4568 27.3556 23.6166 27.3556 23.8083C27.3556 24.0001 27.2278 24.1598 27.068 24.1598Z" fill="#A6BBD6"/>
<path d="M11.9521 19.2703V13.6458L14.988 10.0027V0.0319824H14.7004V10.0027L11.6964 13.6458V19.2703C11.4727 19.3662 11.3129 19.5899 11.3129 19.9095C11.3129 20.261 11.5686 20.5806 11.8562 20.5806C12.1438 20.5806 12.3995 20.293 12.3995 19.9095C12.3995 19.5899 12.2077 19.3343 11.9521 19.2703ZM11.8242 20.2291C11.6645 20.2291 11.5686 20.1012 11.5686 19.9095C11.5686 19.7177 11.6964 19.5899 11.8242 19.5899C11.9521 19.5899 12.0799 19.7177 12.0799 19.9095C12.0799 20.0693 11.9521 20.2291 11.8242 20.2291Z" fill="#A6BBD6"/>
<path d="M14.4767 23.5526V17.257L16.1065 15.2757V0.0319824H15.787V15.2757C15.8189 15.2757 14.1571 17.257 14.1571 17.257V23.5526C13.9334 23.6165 13.7417 23.8722 13.7417 24.1918C13.7417 24.5113 13.9974 24.8629 14.285 24.8629C14.6045 24.8629 14.8282 24.5753 14.8282 24.1918C14.8282 23.9042 14.6685 23.6485 14.4128 23.5526H14.4767ZM14.3169 24.5113C14.1571 24.5113 14.0293 24.3516 14.0293 24.1918C14.0293 24 14.1571 23.8722 14.3169 23.8722C14.4767 23.8722 14.6045 24.032 14.6045 24.1918C14.6045 24.3835 14.4767 24.5113 14.3169 24.5113Z" fill="#A6BBD6"/>
<path d="M21.4115 27.4834V15.9148L18.8868 12.9428V0H18.5673V12.9428L21.0919 15.9148V27.4834C20.8682 27.5473 20.7084 27.8029 20.7084 28.1225C20.7084 28.4421 20.9641 28.7936 21.2517 28.7936C21.5713 28.7936 21.795 28.506 21.795 28.1225C21.795 27.739 21.6352 27.5792 21.3795 27.4834H21.4115ZM21.2836 28.474C21.1239 28.474 20.996 28.3143 20.996 28.1545C20.996 27.9947 21.1239 27.8349 21.2836 27.8349C21.4434 27.8349 21.5713 27.9947 21.5713 28.1545C21.5713 28.3143 21.4434 28.474 21.2836 28.474Z" fill="#A6BBD6"/>
<path d="M19.2064 27.5154V23.2011L20.2929 21.8909V16.2664L18.0559 13.6458V0.0639648H17.7363V13.6458L20.0053 16.2664V21.8909L18.9188 23.2011V27.5154C18.695 27.5793 18.5033 27.8349 18.5033 28.1545C18.5033 28.4741 18.759 28.8256 19.0466 28.8256C19.3662 28.8256 19.5899 28.538 19.5899 28.1545C19.5899 27.8669 19.4301 27.6112 19.1744 27.5154H19.2064ZM19.0466 28.4741C18.8868 28.4741 18.759 28.3143 18.759 28.1545C18.759 27.9947 18.8868 27.8349 19.0466 27.8349C19.2064 27.8349 19.3342 27.9947 19.3342 28.1545C19.3342 28.3463 19.2064 28.4741 19.0466 28.4741Z" fill="#A6BBD6"/>
<path d="M16.9694 27.5153L16.9055 0.0319824H16.6179L16.6818 27.4834C16.4261 27.5473 16.2344 27.803 16.2344 28.1225C16.2344 28.4741 16.49 28.7936 16.7777 28.7936C17.0972 28.7936 17.3209 28.506 17.3209 28.1225C17.3209 27.739 17.1611 27.5793 16.9055 27.4834L16.9694 27.5153ZM16.8416 28.506C16.6818 28.506 16.522 28.3462 16.522 28.1225C16.522 27.8988 16.6498 27.771 16.8416 27.771C17.0333 27.771 17.1611 27.9308 17.1611 28.1225C17.1611 28.3143 17.0333 28.506 16.8416 28.506Z" fill="#A6BBD6"/>
<path d="M9.77899 23.9042V13.3263L13.6139 8.69243V0.0319824H13.3263V8.69243L9.49138 13.3263V23.9042C9.26767 23.9681 9.07593 24.2237 9.07593 24.5433C9.07593 24.8629 9.33159 25.2144 9.61921 25.2144C9.93878 25.2144 10.1625 24.9268 10.1625 24.5433C10.1625 24.1598 10.0027 24 9.74704 23.9042H9.77899ZM9.61921 24.8948C9.45942 24.8948 9.33159 24.7351 9.33159 24.5433C9.33159 24.3516 9.45942 24.1918 9.61921 24.1918C9.77899 24.1918 9.90682 24.3516 9.90682 24.5433C9.90682 24.7351 9.77899 24.8948 9.61921 24.8948Z" fill="#A6BBD6"/>
<path d="M25.6937 27.4514L25.47 27.5154L23.201 24.8309V15.2757L20.3888 11.9841V0.0639648H20.0692V11.9841L22.8815 15.2757V24.8309L25.2783 27.6432C25.1824 27.771 25.1185 27.9308 25.1185 28.1226C25.1185 28.4741 25.3741 28.7937 25.6618 28.7937C25.9494 28.7937 26.205 28.5061 26.205 28.1226C26.205 27.7391 25.9494 27.4514 25.6618 27.4514H25.6937ZM25.6937 28.4102C25.5659 28.4102 25.4381 28.2824 25.4381 28.1226C25.4381 27.9628 25.5339 27.8349 25.6937 27.8349C25.8535 27.8349 25.9494 27.9628 25.9494 28.1226C25.9494 28.2824 25.8535 28.4102 25.6937 28.4102Z" fill="#A6BBD6"/>
<path d="M24.2877 0.0319824H23.2331C23.1692 0.127855 23.1372 0.255688 23.1372 0.415475C23.1372 0.767006 23.3929 1.08657 23.6805 1.08657C24.0001 1.08657 24.2238 0.798964 24.2238 0.415475L24.1598 0.127851L24.2557 0.0319824H24.2877ZM23.7124 0.735049C23.5527 0.735049 23.4248 0.575262 23.4248 0.415475C23.4248 0.255688 23.5527 0.0959011 23.6805 0.0959011C23.8403 0.0959011 23.9361 0.255688 23.9681 0.415475C23.9681 0.607219 23.8403 0.735049 23.7124 0.735049Z" fill="#A6BBD6"/>
<path d="M23.6485 27.4834V27.1318L22.2424 25.47V15.5632L19.7178 12.5912V0H19.3982V12.5912L21.9228 15.5632V25.47L23.329 27.1318V27.4834C23.0733 27.5473 22.9135 27.8029 22.9135 28.1225C22.9135 28.4741 23.1692 28.7936 23.4568 28.7936C23.7764 28.7936 24.0001 28.506 24.0001 28.1225C24.0001 27.8349 23.8403 27.5792 23.5846 27.4834H23.6485ZM23.4887 28.4421C23.329 28.4421 23.2011 28.2823 23.2011 28.1225C23.2011 27.9627 23.329 27.8029 23.4887 27.8029C23.6485 27.8029 23.7764 27.9627 23.7764 28.1225C23.7764 28.2823 23.6485 28.4421 23.4887 28.4421Z" fill="#A6BBD6"/>
<path d="M26.237 0.0319594H25.9494L24.0959 2.23702C24 2.10919 23.8722 2.04527 23.7124 2.04527C23.3928 2.04527 23.1691 2.33289 23.1691 2.71638C23.1691 3.06791 23.4248 3.38749 23.7124 3.38749C24.032 3.38749 24.2557 3.09987 24.2557 2.71638L24.1918 2.42876L26.2051 0L26.237 0.0319594ZM23.7124 3.06791C23.5526 3.06791 23.3928 2.90812 23.3928 2.71638C23.3928 2.52463 23.5207 2.36485 23.7124 2.36485C23.9041 2.36485 24.032 2.52463 24.032 2.71638C24.032 2.90812 23.9041 3.06791 23.7124 3.06791Z" fill="#A6BBD6"/>
<path d="M25.0226 23.2011V16.2344L21.1238 11.6325V0.0319824H20.8043V11.6325L24.735 16.2344V23.1691C24.5113 23.2331 24.3196 23.4887 24.3196 23.8083C24.3196 24.1279 24.5752 24.4794 24.8629 24.4794C25.1824 24.4794 25.4061 24.1918 25.4061 23.8083C25.4061 23.4248 25.2463 23.265 24.9907 23.1691L25.0226 23.2011ZM24.8629 24.1918C24.7031 24.1918 24.5433 24.032 24.5433 23.8402C24.5433 23.6485 24.6711 23.4887 24.8629 23.4887C25.0546 23.4887 25.1824 23.6485 25.1824 23.8402C25.1824 24.032 25.0546 24.1918 24.8629 24.2237V24.1918Z" fill="#A6BBD6"/>
<path d="M10.0027 4.7617V1.11856L9.07588 0.0639648H8.78827L9.68308 1.15051V4.79367C9.45938 4.85758 9.26763 5.11324 9.26763 5.43281C9.26763 5.75239 9.52329 6.10391 9.81091 6.10391C10.1305 6.10391 10.3542 5.8163 10.3542 5.43281C10.3542 5.04932 10.1944 4.88954 9.93874 4.79367L10.0027 4.7617ZM9.84286 5.78434C9.65112 5.78434 9.52329 5.59259 9.52329 5.40084C9.52329 5.2091 9.68308 5.01735 9.84286 5.01735C10.0027 5.01735 10.1944 5.17714 10.1944 5.40084C10.1944 5.62455 10.0346 5.78433 9.84286 5.81629V5.78434Z" fill="#A6BBD6"/>
<path d="M36.8149 35.217C35.6964 37.7417 34.5779 38.8282 34.2584 38.5406C33.811 38.1251 33.3316 36.4314 32.9161 34.2263C33.3316 33.715 33.7151 33.2357 34.0986 32.7563C35.4088 31.0945 37.0387 29.0492 37.6778 28.8255C38.6365 28.6018 38.2211 32.0532 36.8149 35.217ZM7.44608 31.6058L7.15847 31.3182C5.46472 28.8256 8.1811 26.0772 10.7057 27.8029L10.9934 28.0905C12.6871 30.5832 9.97072 33.3315 7.44608 31.6058ZM19.6538 32.5965C19.6538 33.8109 18.6631 34.8016 17.4807 34.8016C16.2983 34.8016 15.2757 33.8109 15.2757 32.5965C15.2757 31.3821 16.2663 30.3915 17.4807 30.3915C18.6951 30.3915 19.6538 31.3821 19.6538 32.5965ZM38.4128 27.004C36.6871 26.205 35.0892 28.2823 32.4048 31.6698C32.1172 30.008 31.8615 28.3142 31.6059 26.7483C30.008 16.5219 28.8895 10.2583 25.9494 10.2583C23.0093 10.2583 21.6671 13.6458 17.4488 28.9214C15.4354 28.9214 13.7737 30.5832 13.7737 32.5965C13.7737 34.6098 15.4354 36.2716 17.4488 36.2716C19.4621 36.2716 21.1239 34.6098 21.1239 32.5965C21.1239 30.5832 20.4208 30.1358 19.3662 29.4647C21.028 23.4247 21.9867 21.0599 23.0093 17.3528C24.5753 11.7603 25.534 12.2077 25.6938 12.2077C25.7257 12.2077 26.9401 12.1757 27.8349 16.8735C29.0173 22.9773 31.1585 35.5046 31.1585 35.5046C31.1585 35.5046 30.6791 34.514 30.1998 34.3222C26.7803 38.4128 22.2104 42.8548 16.7457 42.8548C11.281 42.8548 10.4181 37.6138 10.0666 33.6191C12.5273 32.98 14.0932 30.1038 12.4954 27.3236C12.2397 26.8442 11.8243 26.4607 11.3768 26.205C8.18111 24.3835 4.92145 26.6524 4.92145 29.6564C4.92145 32.6604 6.29562 33.2357 8.11719 33.6511C8.30893 36.0479 8.94808 38.5086 9.97072 40.3622C11.5686 43.2703 13.9015 44.8042 16.7457 44.8042C22.7856 44.8042 27.6432 40.3302 31.2863 36.0799C31.8935 38.6045 32.5327 39.9148 33.4275 40.2983C35.1532 41.0013 37.0706 39.3715 38.5726 35.9521C40.1385 32.3728 40.7457 28.0266 38.3809 26.9401" fill="white"/>
</svg>
