<svg width="150" height="48" viewBox="0 0 150 48" fill="none" xmlns="http://www.w3.org/2000/svg">
<path d="M43.8136 47.9683H8.91612C3.99468 47.9683 0 43.9736 0 39.0522V3.03622C0 1.37444 1.34221 0.0322266 3.004 0.0322266H36.6871C42.2797 0.0322266 46.8496 4.57017 46.8496 10.1947V44.9963C46.8496 46.6581 45.5074 48.0003 43.8456 48.0003" fill="#167AA1"/>
<path d="M0.415473 4.09056C0.255686 4.09056 0.127855 4.15447 0.0319824 4.2823V5.1771C0.127855 5.30493 0.287643 5.40081 0.44743 5.40081C0.767004 5.40081 0.990705 5.1132 0.990705 4.72971C0.990705 4.34622 0.735047 4.05859 0.44743 4.05859L0.415473 4.09056ZM0.415473 5.1132C0.255686 5.1132 0.0958987 4.95341 0.0958987 4.72971C0.0958987 4.50601 0.223728 4.34622 0.415473 4.34622C0.57526 4.34622 0.735047 4.50601 0.735047 4.72971C0.735047 4.92146 0.607217 5.1132 0.415473 5.1132Z" fill="#167AA1"/>
<path d="M3.16381 13.7095C3.00402 13.7095 2.87619 13.7734 2.78032 13.9013L0.0319824 10.6416V10.9612L2.68445 14.093L2.62053 14.3806C2.62053 14.7322 2.87619 15.0517 3.16381 15.0517C3.48338 15.0517 3.70709 14.7641 3.70709 14.3806C3.70709 13.9971 3.45143 13.7095 3.16381 13.7095ZM3.16381 14.6682C3.03598 14.6682 2.90815 14.5404 2.90815 14.3806C2.90815 14.2208 3.00402 14.093 3.16381 14.093C3.3236 14.093 3.41947 14.2208 3.41947 14.3806C3.41947 14.5404 3.3236 14.6682 3.16381 14.6682Z" fill="#167AA1"/>
<path d="M3.16378 16.0427C3.004 16.0427 2.87617 16.1066 2.78029 16.2345L0 12.9429V13.2624L2.65247 16.3943L2.58855 16.6499C2.58855 17.0015 2.84421 17.321 3.13183 17.321C3.4514 17.321 3.6751 17.0334 3.6751 16.6499C3.6751 16.2664 3.41944 15.9788 3.13183 15.9788L3.16378 16.0427ZM3.16378 17.0334C3.004 17.0334 2.87617 16.8736 2.87617 16.6819C2.87617 16.4901 3.004 16.3303 3.16378 16.3303C3.32357 16.3303 3.4514 16.4901 3.4514 16.6819C3.4514 16.8736 3.32357 17.0334 3.16378 17.0334Z" fill="#167AA1"/>
<path d="M3.16378 18.3435C3.004 18.3435 2.87617 18.4074 2.78029 18.5353L0 15.2437V15.5632L2.65247 18.727L2.58855 19.0146C2.58855 19.3662 2.84421 19.6857 3.13183 19.6857C3.4514 19.6857 3.6751 19.3981 3.6751 19.0146C3.6751 18.6631 3.41944 18.3435 3.13183 18.3435H3.16378ZM3.16378 19.3342C3.004 19.3342 2.87617 19.1744 2.87617 18.9827C2.87617 18.7909 3.004 18.6631 3.16378 18.6631C3.32357 18.6631 3.4514 18.8229 3.4514 18.9827C3.4514 19.1744 3.32357 19.3342 3.16378 19.3342Z" fill="#167AA1"/>
<path d="M3.16378 20.6443C3.004 20.6443 2.87617 20.7082 2.78029 20.836L0 17.5444V17.864L2.65247 21.0278V21.2835C2.62051 21.635 2.84421 21.9546 3.16378 21.9546C3.48336 21.9546 3.70706 21.6669 3.70706 21.2835C3.70706 20.9 3.4514 20.6124 3.16378 20.6124V20.6443ZM3.16378 21.6669C3.004 21.6669 2.87617 21.5071 2.87617 21.3154C2.87617 21.1237 3.004 20.9639 3.16378 20.9639C3.32357 20.9639 3.4514 21.1237 3.4514 21.3154C3.4514 21.5071 3.32357 21.6669 3.16378 21.6669Z" fill="#167AA1"/>
<path d="M3.54721 1.11839C3.38742 1.11839 3.2596 1.18231 3.16372 1.31014L2.17304 0.159668C2.10913 0.159668 2.01326 0.191629 1.94934 0.223587L3.03589 1.50188L2.97198 1.7895C2.97198 2.14103 3.22764 2.4606 3.51525 2.4606C3.83483 2.4606 4.05853 2.17299 4.05853 1.7895C4.05853 1.43797 3.80287 1.11839 3.51525 1.11839H3.54721ZM3.54721 2.14103C3.38742 2.14103 3.22764 1.98124 3.22764 1.75754C3.22764 1.53384 3.35547 1.37405 3.54721 1.37405C3.707 1.37405 3.86679 1.53384 3.86679 1.75754C3.86679 1.98124 3.73896 2.14103 3.54721 2.14103Z" fill="#167AA1"/>
<path d="M5.33689 23.9041V13.3261L0 7.0625V7.38207L5.01731 13.3261V23.9041C4.79361 23.968 4.60187 24.2236 4.60187 24.5432C4.60187 24.8628 4.85753 25.2143 5.14514 25.2143C5.46472 25.2143 5.68842 24.9267 5.68842 24.5432C5.68842 24.2236 5.52863 23.968 5.30493 23.9041H5.33689ZM5.1771 24.8947C5.01731 24.8947 4.88949 24.7349 4.88949 24.5432C4.88949 24.3515 5.01731 24.1917 5.1771 24.1917C5.33689 24.1917 5.46472 24.3515 5.46472 24.5432C5.46472 24.7349 5.33689 24.8947 5.1771 24.8947Z" fill="#167AA1"/>
<path d="M5.84817 4.44212V1.78966L4.37813 0.0639648H4.09052L5.56056 1.78966V4.44212C5.3049 4.50604 5.14511 4.7617 5.14511 5.08127C5.14511 5.40084 5.40077 5.75239 5.68839 5.75239C6.00796 5.75239 6.23166 5.46476 6.23166 5.08127C6.23166 4.79365 6.07187 4.53799 5.84817 4.44212ZM5.68839 5.43281C5.5286 5.43281 5.40077 5.27301 5.40077 5.08127C5.40077 4.88953 5.5286 4.72975 5.68839 4.72975C5.84817 4.72975 5.976 4.88953 5.976 5.08127C5.976 5.27301 5.84817 5.43281 5.68839 5.43281Z" fill="#167AA1"/>
<path d="M7.22242 6.07218V0.767243L6.58327 0.0322266H6.29565L6.9348 0.767243V6.07218C6.7111 6.1361 6.51936 6.39176 6.51936 6.71133C6.51936 7.06286 6.77502 7.38243 7.09459 7.38243C7.41416 7.38243 7.63787 7.09482 7.63787 6.71133C7.63787 6.42371 7.47808 6.16805 7.22242 6.07218ZM7.06263 7.0948C6.90285 7.0948 6.74306 6.93503 6.74306 6.71133C6.74306 6.48763 6.87089 6.32784 7.06263 6.32784C7.22242 6.32784 7.38221 6.48763 7.38221 6.71133C7.38221 6.90307 7.25438 7.0948 7.06263 7.0948Z" fill="#167AA1"/>
<path d="M7.54191 23.9039V12.3353L2.78026 6.74273V3.09959L0.894772 0.894531C0.830858 0.958446 0.7989 0.990403 0.734985 1.05432L2.49264 3.13155V6.77468L7.22234 12.3672V23.9358C6.99864 23.9997 6.80689 24.2554 6.80689 24.575C6.80689 24.8945 7.06255 25.2461 7.35017 25.2461C7.63779 25.2461 7.89344 24.9584 7.89344 24.575C7.89344 24.2873 7.73366 24.0317 7.478 23.9358L7.54191 23.9039ZM7.38213 24.8626C7.22234 24.8626 7.12647 24.7028 7.12647 24.543C7.12647 24.3513 7.2543 24.2234 7.38213 24.2234C7.50996 24.2234 7.66974 24.3832 7.66974 24.543C7.66974 24.7028 7.54191 24.8626 7.38213 24.8626Z" fill="#167AA1"/>
<path d="M10.0027 4.7617V1.11856L9.07588 0.0639648H8.78827L9.68308 1.15051V4.79367C9.45938 4.85758 9.26763 5.11324 9.26763 5.43281C9.26763 5.75239 9.52329 6.10391 9.81091 6.10391C10.1305 6.10391 10.3542 5.8163 10.3542 5.43281C10.3542 5.04932 10.1944 4.88954 9.93874 4.79367L10.0027 4.7617ZM9.84286 5.78434C9.65112 5.78434 9.52329 5.59259 9.52329 5.40084C9.52329 5.2091 9.68308 5.01735 9.84286 5.01735C10.0027 5.01735 10.1944 5.17714 10.1944 5.40084C10.1944 5.62455 10.0346 5.78433 9.84286 5.81629V5.78434Z" fill="#167AA1"/>
<path d="M9.77899 23.9044V13.3265L13.6139 8.69267V0.0322266H13.3263V8.69267L9.49138 13.3265V23.9044C9.26767 23.9683 9.07593 24.224 9.07593 24.5436C9.07593 24.8631 9.33159 25.2146 9.61921 25.2146C9.93878 25.2146 10.1625 24.927 10.1625 24.5436C10.1625 24.1601 10.0027 24.0003 9.74704 23.9044H9.77899ZM9.61921 24.8951C9.45942 24.8951 9.33159 24.7353 9.33159 24.5436C9.33159 24.3518 9.45942 24.192 9.61921 24.192C9.77899 24.192 9.90682 24.3518 9.90682 24.5436C9.90682 24.7353 9.77899 24.8951 9.61921 24.8951Z" fill="#167AA1"/>
<path d="M11.9521 19.2706V13.6461L14.988 10.0029V0.0322266H14.7004V10.0029L11.6964 13.6461V19.2706C11.4727 19.3665 11.3129 19.5902 11.3129 19.9097C11.3129 20.2613 11.5686 20.5808 11.8562 20.5808C12.1438 20.5808 12.3995 20.2932 12.3995 19.9097C12.3995 19.5902 12.2077 19.3345 11.9521 19.2706ZM11.8242 20.2293C11.6645 20.2293 11.5686 20.1015 11.5686 19.9097C11.5686 19.718 11.6964 19.5902 11.8242 19.5902C11.9521 19.5902 12.0799 19.718 12.0799 19.9097C12.0799 20.0695 11.9521 20.2293 11.8242 20.2293Z" fill="#167AA1"/>
<path d="M14.4767 23.5529V17.2573L16.1065 15.2759V0.0322266H15.787V15.2759C15.8189 15.2759 14.1571 17.2573 14.1571 17.2573V23.5529C13.9334 23.6168 13.7417 23.8724 13.7417 24.192C13.7417 24.5116 13.9974 24.8631 14.285 24.8631C14.6045 24.8631 14.8282 24.5755 14.8282 24.192C14.8282 23.9044 14.6685 23.6487 14.4128 23.5529H14.4767ZM14.3169 24.5116C14.1571 24.5116 14.0293 24.3518 14.0293 24.192C14.0293 24.0003 14.1571 23.8724 14.3169 23.8724C14.4767 23.8724 14.6045 24.0322 14.6045 24.192C14.6045 24.3838 14.4767 24.5116 14.3169 24.5116Z" fill="#167AA1"/>
<path d="M16.9694 27.5156L16.9055 0.0322266H16.6179L16.6818 27.4836C16.4261 27.5476 16.2344 27.8032 16.2344 28.1228C16.2344 28.4743 16.49 28.7939 16.7777 28.7939C17.0972 28.7939 17.3209 28.5063 17.3209 28.1228C17.3209 27.7393 17.1611 27.5795 16.9055 27.4836L16.9694 27.5156ZM16.8416 28.5063C16.6818 28.5063 16.522 28.3465 16.522 28.1228C16.522 27.8991 16.6498 27.7712 16.8416 27.7712C17.0333 27.7712 17.1611 27.931 17.1611 28.1228C17.1611 28.3145 17.0333 28.5063 16.8416 28.5063Z" fill="#167AA1"/>
<path d="M19.2064 27.5154V23.2011L20.2929 21.8909V16.2664L18.0559 13.6458V0.0639648H17.7363V13.6458L20.0053 16.2664V21.8909L18.9188 23.2011V27.5154C18.695 27.5793 18.5033 27.8349 18.5033 28.1545C18.5033 28.4741 18.759 28.8256 19.0466 28.8256C19.3662 28.8256 19.5899 28.538 19.5899 28.1545C19.5899 27.8669 19.4301 27.6112 19.1744 27.5154H19.2064ZM19.0466 28.4741C18.8868 28.4741 18.759 28.3143 18.759 28.1545C18.759 27.9947 18.8868 27.8349 19.0466 27.8349C19.2064 27.8349 19.3342 27.9947 19.3342 28.1545C19.3342 28.3463 19.2064 28.4741 19.0466 28.4741Z" fill="#167AA1"/>
<path d="M21.4115 27.4834V15.9148L18.8868 12.9428V0H18.5673V12.9428L21.0919 15.9148V27.4834C20.8682 27.5473 20.7084 27.8029 20.7084 28.1225C20.7084 28.4421 20.9641 28.7936 21.2517 28.7936C21.5713 28.7936 21.795 28.506 21.795 28.1225C21.795 27.739 21.6352 27.5792 21.3795 27.4834H21.4115ZM21.2836 28.474C21.1239 28.474 20.996 28.3143 20.996 28.1545C20.996 27.9947 21.1239 27.8349 21.2836 27.8349C21.4434 27.8349 21.5713 27.9947 21.5713 28.1545C21.5713 28.3143 21.4434 28.474 21.2836 28.474Z" fill="#167AA1"/>
<path d="M23.6485 27.4834V27.1318L22.2424 25.47V15.5632L19.7178 12.5912V0H19.3982V12.5912L21.9228 15.5632V25.47L23.329 27.1318V27.4834C23.0733 27.5473 22.9135 27.8029 22.9135 28.1225C22.9135 28.4741 23.1692 28.7936 23.4568 28.7936C23.7764 28.7936 24.0001 28.506 24.0001 28.1225C24.0001 27.8349 23.8403 27.5792 23.5846 27.4834H23.6485ZM23.4887 28.4421C23.329 28.4421 23.2011 28.2823 23.2011 28.1225C23.2011 27.9627 23.329 27.8029 23.4887 27.8029C23.6485 27.8029 23.7764 27.9627 23.7764 28.1225C23.7764 28.2823 23.6485 28.4421 23.4887 28.4421Z" fill="#167AA1"/>
<path d="M24.2877 0.0322266H23.2331C23.1692 0.128099 23.1372 0.255932 23.1372 0.415719C23.1372 0.767251 23.3929 1.08682 23.6805 1.08682C24.0001 1.08682 24.2238 0.799208 24.2238 0.415719L24.1598 0.128095L24.2557 0.0322266H24.2877ZM23.7124 0.735293C23.5527 0.735293 23.4248 0.575506 23.4248 0.415719C23.4248 0.255932 23.5527 0.0961453 23.6805 0.0961453C23.8403 0.0961453 23.9361 0.255932 23.9681 0.415719C23.9681 0.607464 23.8403 0.735293 23.7124 0.735293Z" fill="#167AA1"/>
<path d="M25.0226 23.2013V16.2346L21.1238 11.6328V0.0322266H20.8043V11.6328L24.735 16.2346V23.1694C24.5113 23.2333 24.3196 23.489 24.3196 23.8085C24.3196 24.1281 24.5752 24.4796 24.8629 24.4796C25.1824 24.4796 25.4061 24.192 25.4061 23.8085C25.4061 23.425 25.2463 23.2653 24.9907 23.1694L25.0226 23.2013ZM24.8629 24.192C24.7031 24.192 24.5433 24.0322 24.5433 23.8405C24.5433 23.6487 24.6711 23.489 24.8629 23.489C25.0546 23.489 25.1824 23.6487 25.1824 23.8405C25.1824 24.0322 25.0546 24.192 24.8629 24.224V24.192Z" fill="#167AA1"/>
<path d="M25.6937 27.4514L25.47 27.5154L23.201 24.8309V15.2757L20.3888 11.9841V0.0639648H20.0692V11.9841L22.8815 15.2757V24.8309L25.2783 27.6432C25.1824 27.771 25.1185 27.9308 25.1185 28.1226C25.1185 28.4741 25.3741 28.7937 25.6618 28.7937C25.9494 28.7937 26.205 28.5061 26.205 28.1226C26.205 27.7391 25.9494 27.4514 25.6618 27.4514H25.6937ZM25.6937 28.4102C25.5659 28.4102 25.4381 28.2824 25.4381 28.1226C25.4381 27.9628 25.5339 27.8349 25.6937 27.8349C25.8535 27.8349 25.9494 27.9628 25.9494 28.1226C25.9494 28.2824 25.8535 28.4102 25.6937 28.4102Z" fill="#167AA1"/>
<path d="M26.237 0.0319594H25.9494L24.0959 2.23702C24 2.10919 23.8722 2.04527 23.7124 2.04527C23.3928 2.04527 23.1691 2.33289 23.1691 2.71638C23.1691 3.06791 23.4248 3.38749 23.7124 3.38749C24.032 3.38749 24.2557 3.09987 24.2557 2.71638L24.1918 2.42876L26.2051 0L26.237 0.0319594ZM23.7124 3.06791C23.5526 3.06791 23.3928 2.90812 23.3928 2.71638C23.3928 2.52463 23.5207 2.36485 23.7124 2.36485C23.9041 2.36485 24.032 2.52463 24.032 2.71638C24.032 2.90812 23.9041 3.06791 23.7124 3.06791Z" fill="#167AA1"/>
<path d="M27.2278 23.2011V17.5766L22.2104 11.6645V0.0639648H21.8909V11.6645L26.9401 17.5766V23.2011C26.7164 23.265 26.5247 23.5207 26.5247 23.8403C26.5247 24.1918 26.7804 24.5114 27.068 24.5114C27.3875 24.5114 27.6112 24.2238 27.6112 23.8403C27.6112 23.5526 27.4515 23.297 27.1958 23.2011H27.2278ZM27.068 24.1598C26.9082 24.1598 26.7804 24.0001 26.7804 23.8083C26.7804 23.6166 26.9082 23.4568 27.068 23.4568C27.2278 23.4568 27.3556 23.6166 27.3556 23.8083C27.3556 24.0001 27.2278 24.1598 27.068 24.1598Z" fill="#167AA1"/>
<path d="M29.4647 23.2011V18.5673L24.1598 12.3037V5.04932L28.3142 0.0639648H28.0266L23.8402 5.04932V12.3037L29.1451 18.5673V23.2011C28.9214 23.265 28.7297 23.5207 28.7297 23.8403C28.7297 24.1598 28.9854 24.5114 29.273 24.5114C29.5925 24.5114 29.8162 24.2238 29.8162 23.8403C29.8162 23.4568 29.6565 23.297 29.4008 23.2011H29.4647ZM29.3049 24.0959C29.1771 24.0959 29.0812 23.9681 29.0812 23.8083C29.0812 23.6485 29.1771 23.5207 29.3049 23.5207C29.4328 23.5207 29.5286 23.6485 29.5286 23.8083C29.5286 23.9681 29.4328 24.0959 29.3049 24.0959Z" fill="#167AA1"/>
<path d="M31.7656 11.2812C31.6059 11.2812 31.478 11.3451 31.3822 11.473L26.7803 6.00826L31.7656 0.0322266H31.478L26.4927 6.00826L31.2543 11.6647L31.1904 11.9523C31.1904 12.3039 31.4461 12.6235 31.7337 12.6235C32.0213 12.6235 32.277 12.3358 32.277 11.9523C32.277 11.6008 32.0213 11.2812 31.7337 11.2812H31.7656ZM31.7656 12.3039C31.6059 12.3039 31.478 12.1441 31.478 11.9523C31.478 11.7606 31.6059 11.6008 31.7656 11.6008C31.9254 11.6008 32.0533 11.7606 32.0533 11.9523C32.0533 12.1441 31.9254 12.3039 31.7656 12.3039Z" fill="#167AA1"/>
<path d="M33.1398 9.61945C32.98 9.61945 32.8522 9.68335 32.7563 9.81118L28.6977 5.01757L32.8522 0.0322266H32.5646L28.3782 5.01757L32.5966 10.0029L32.5326 10.2905C32.5326 10.6421 32.7883 10.9617 33.0759 10.9617C33.3635 10.9617 33.6192 10.674 33.6192 10.2905C33.6192 9.93901 33.3635 9.61945 33.0759 9.61945H33.1398ZM33.1398 10.6421C32.98 10.6421 32.8522 10.4823 32.8522 10.2905C32.8522 10.0988 32.98 9.93902 33.1398 9.93902C33.2996 9.93902 33.4274 10.0988 33.4274 10.2905C33.4274 10.4823 33.2996 10.6421 33.1398 10.6421Z" fill="#167AA1"/>
<path d="M33.1718 23.1374C33.012 23.1374 32.8842 23.2013 32.7883 23.3292L30.6791 20.8365V17.8644L25.6618 11.9523V4.698L29.5286 0.0322266H29.241L25.3422 4.698V11.9523L30.3595 17.8644V20.8365L32.6285 23.5209L32.5646 23.8085C32.5646 24.1601 32.8203 24.4796 33.1079 24.4796C33.3955 24.4796 33.6512 24.192 33.6512 23.8405C33.6512 23.457 33.3955 23.1694 33.1079 23.1694L33.1718 23.1374ZM33.1718 24.1601C33.012 24.1601 32.8842 24.0003 32.8842 23.8085C32.8842 23.6168 33.012 23.457 33.1718 23.457C33.3316 23.457 33.4594 23.6168 33.4594 23.8085C33.4594 24.0003 33.3316 24.1601 33.1718 24.1601Z" fill="#167AA1"/>
<path d="M34.546 7.63808C34.3862 7.63808 34.2584 7.70201 34.1625 7.82984L30.9348 4.0269L34.2584 0.0322266H33.9708L30.6152 4.0269L34.0027 8.02157L33.9388 8.3092C33.9388 8.66073 34.1945 8.9803 34.4821 8.9803C34.8017 8.9803 35.0254 8.69269 35.0254 8.3092C35.0254 7.95767 34.7697 7.63808 34.4821 7.63808H34.546ZM34.546 8.5968C34.4182 8.5968 34.2903 8.46899 34.2903 8.3092C34.2903 8.14941 34.4182 7.98963 34.546 7.98963C34.6738 7.98963 34.8017 8.11744 34.8017 8.27723C34.8017 8.43702 34.7058 8.56485 34.546 8.56485V8.5968Z" fill="#167AA1"/>
<path d="M38.285 0.159889C38.1891 0.159889 38.1252 0.159887 38.0293 0.12793L34.8975 3.86695C34.8016 3.73912 34.6418 3.6752 34.514 3.6752C34.1944 3.6752 33.9707 3.96282 33.9707 4.34631C33.9707 4.7298 34.2264 5.01741 34.5459 5.01741C34.8655 5.01741 35.0892 4.7298 35.0892 4.34631L35.0253 4.05869L38.285 0.159889ZM34.514 4.63393C34.3861 4.63393 34.2903 4.5061 34.2903 4.34631C34.2903 4.18652 34.3861 4.05869 34.514 4.05869C34.6418 4.05869 34.7377 4.18652 34.7377 4.34631C34.7377 4.5061 34.6418 4.63393 34.514 4.63393Z" fill="#167AA1"/>
<path d="M36.4634 4.34628L39.6911 0.479436C39.6272 0.479436 39.5313 0.447485 39.4674 0.415527L36.1758 4.34628V9.93883L33.2676 13.4541C33.1718 13.3263 33.0439 13.2624 32.8842 13.2624C32.5646 13.2624 32.3409 13.55 32.3409 13.9335C32.3409 14.285 32.5965 14.6046 32.8842 14.6046C33.1718 14.6046 33.4274 14.317 33.4274 13.9335L33.3635 13.6459L36.4634 9.93883V4.34628ZM32.8842 14.2211C32.7244 14.2211 32.6285 14.0933 32.6285 13.9016C32.6285 13.7098 32.7563 13.582 32.8842 13.582C33.012 13.582 33.1398 13.7098 33.1398 13.9016C33.1398 14.0933 33.012 14.2211 32.8842 14.2211Z" fill="#167AA1"/>
<path d="M37.5819 4.34627L40.554 0.798993C40.49 0.798993 40.4261 0.735082 40.3622 0.703125L37.3263 4.31432V12.2397L34.7058 15.4035C34.6099 15.2757 34.4501 15.2118 34.3223 15.2118C34.0027 15.2118 33.779 15.4994 33.779 15.8829C33.779 16.2664 34.0347 16.554 34.3223 16.554C34.6099 16.554 34.8655 16.2664 34.8655 15.8829L34.8016 15.5953L37.6139 12.2397V4.31432L37.5819 4.34627ZM34.2903 16.2025C34.1625 16.2025 34.0347 16.0746 34.0347 15.9148C34.0347 15.7551 34.1625 15.6272 34.2903 15.6272C34.4181 15.6272 34.546 15.7551 34.546 15.9148C34.546 16.0746 34.4181 16.2025 34.2903 16.2025Z" fill="#167AA1"/>
<path d="M38.317 17.8961V4.3462L41.0653 1.02264C41.0014 0.990678 40.9375 0.958715 40.8736 0.926758L38.0294 4.3462V17.8961C37.8057 17.9601 37.6459 18.2157 37.6459 18.5353C37.6459 18.8868 37.9015 19.2064 38.1891 19.2064C38.4768 19.2064 38.4768 19.1425 38.5726 19.0147C38.6685 18.8868 38.7324 18.727 38.7324 18.5353C38.7324 18.2477 38.5726 17.992 38.317 17.8961ZM38.1572 18.8229C38.0294 18.8229 37.9015 18.6951 37.9015 18.5033C37.9015 18.3116 38.0294 18.1838 38.1572 18.1838C38.285 18.1838 38.4129 18.3116 38.4129 18.5033C38.4129 18.6951 38.285 18.8229 38.1572 18.8229Z" fill="#167AA1"/>
<path d="M40.2664 17.8961V3.67501C40.2344 3.67501 42.024 1.53387 42.024 1.53387C41.9921 1.53387 41.9601 1.50191 41.8962 1.46995C41.8962 1.46995 41.8642 1.46995 41.8323 1.43799L39.9468 3.67501V17.8641C39.7231 17.928 39.5633 18.1837 39.5633 18.5032C39.5633 18.8228 39.819 19.1744 40.1066 19.1744C40.4261 19.1744 40.6498 18.8867 40.6498 18.5032C40.6498 18.2156 40.4901 17.96 40.2344 17.8641L40.2664 17.8961ZM40.1066 18.8548C39.9468 18.8548 39.819 18.695 39.819 18.5032C39.819 18.3115 39.9468 18.1517 40.1066 18.1517C40.2664 18.1517 40.3942 18.3115 40.3942 18.5032C40.3942 18.695 40.2664 18.8548 40.1066 18.8548Z" fill="#167AA1"/>
<path d="M43.2704 2.49258C43.2064 2.46063 43.1745 2.3967 43.1106 2.36475L41.8323 3.8987C41.7364 3.77087 41.6086 3.70696 41.4488 3.70696C41.1292 3.70696 40.9055 3.99457 40.9055 4.37806C40.9055 4.76155 41.1612 5.04918 41.4488 5.04918C41.7684 5.04918 41.9921 4.76155 41.9921 4.37806L41.9282 4.09045L43.2384 2.52453L43.2704 2.49258ZM41.4488 4.7296C41.257 4.7296 41.1292 4.56981 41.1292 4.34611C41.1292 4.12241 41.289 3.96262 41.4488 3.96262C41.6405 3.96262 41.7684 4.12241 41.7684 4.34611C41.7684 4.56981 41.6086 4.7296 41.4488 4.7296Z" fill="#167AA1"/>
<path d="M44.3249 3.51526C44.2929 3.45134 44.229 3.41938 44.197 3.35547L41.8641 6.16773C41.7683 6.0399 41.6085 5.97597 41.4807 5.97597C41.1611 5.97597 40.9374 6.2636 40.9374 6.64709C40.9374 6.99862 41.193 7.31818 41.4807 7.31818C41.8002 7.31818 42.0239 7.03057 42.0239 6.64709L41.96 6.35946L44.3249 3.51526ZM41.4487 7.06253C41.2569 7.06253 41.0972 6.87079 41.0972 6.64709C41.0972 6.42338 41.2569 6.23164 41.4487 6.23164C41.6404 6.23164 41.8002 6.42338 41.8002 6.64709C41.8002 6.87079 41.6404 7.06253 41.4487 7.06253Z" fill="#167AA1"/>
<path d="M45.2516 4.76156C45.2197 4.69765 45.1558 4.63374 45.1238 4.56982L41.8641 8.46863C41.7683 8.3408 41.6404 8.27687 41.4807 8.27687C41.1611 8.27687 40.9374 8.5645 40.9374 8.94799C40.9374 9.33148 41.193 9.61909 41.4807 9.61909C41.7683 9.61909 42.0239 9.33148 42.0239 8.94799L41.96 8.66037L45.2516 4.72961V4.76156ZM41.4807 9.33146C41.3209 9.33146 41.1611 9.17169 41.1611 8.94799C41.1611 8.72429 41.3209 8.5645 41.4807 8.5645C41.6404 8.5645 41.8002 8.72429 41.8002 8.94799C41.8002 9.17169 41.6724 9.33146 41.4807 9.33146Z" fill="#167AA1"/>
<path d="M45.9867 6.16776C45.9867 6.16776 45.9867 6.1358 45.9867 6.10385C45.9867 6.10385 45.9867 6.07188 45.9867 6.03993C45.9867 6.00797 45.9548 5.97602 45.9228 5.91211L41.8962 10.7377C41.8003 10.6098 41.6405 10.5459 41.5127 10.5459C41.1931 10.5459 40.9694 10.8335 40.9694 11.217C40.9694 11.6005 41.2251 11.8881 41.5127 11.8881C41.8323 11.8881 42.056 11.6005 42.056 11.217L41.9921 10.9294L46.0187 6.1358L45.9867 6.16776ZM41.4807 11.6325C41.289 11.6325 41.1612 11.4727 41.1612 11.249C41.1612 11.0253 41.321 10.8655 41.4807 10.8655C41.6725 10.8655 41.8003 11.0253 41.8003 11.249C41.8003 11.4727 41.6725 11.6325 41.4807 11.6325Z" fill="#167AA1"/>
<path d="M46.8176 10.7056L43.2703 14.9559C43.1745 14.8281 43.0466 14.7641 42.8868 14.7641C42.5673 14.7641 42.3436 15.0518 42.3436 15.4353C42.3436 15.8187 42.5992 16.1064 42.8868 16.1064C43.2064 16.1064 43.4301 15.8187 43.4301 15.4353L43.3662 15.1476L46.8176 11.0251V10.7056ZM42.8868 15.8187C42.6951 15.8187 42.5673 15.659 42.5673 15.4353C42.5673 15.2116 42.7271 15.0518 42.8868 15.0518C43.0786 15.0518 43.2064 15.2435 43.2064 15.4353C43.2064 15.627 43.0466 15.8187 42.8868 15.8187Z" fill="#167AA1"/>
<path d="M38.253 26.9402H32.6925C32.6285 26.6526 32.4048 26.4289 32.1492 26.4289C31.8296 26.4289 31.6059 26.7165 31.6059 27.1C31.6059 27.4835 31.8616 27.7711 32.1492 27.7711C32.4368 27.7711 32.6285 27.5794 32.6925 27.2918H38.253L46.8176 17.0334V16.7139L38.253 26.9402ZM32.1492 27.4196C31.9894 27.4196 31.8616 27.2598 31.8616 27.1C31.8616 26.9083 31.9894 26.7804 32.1492 26.7804C32.309 26.7804 32.4368 26.9402 32.4368 27.1C32.4368 27.2598 32.309 27.4196 32.1492 27.4196Z" fill="#167AA1"/>
<path d="M3.16378 20.6443C3.004 20.6443 2.87617 20.7082 2.78029 20.836L0 17.5444V17.864L2.65247 21.0278V21.2835C2.62051 21.635 2.84421 21.9546 3.16378 21.9546C3.48336 21.9546 3.70706 21.6669 3.70706 21.2835C3.70706 20.9 3.4514 20.6124 3.16378 20.6124V20.6443ZM3.16378 21.6669C3.004 21.6669 2.87617 21.5071 2.87617 21.3154C2.87617 21.1237 3.004 20.9639 3.16378 20.9639C3.32357 20.9639 3.4514 21.1237 3.4514 21.3154C3.4514 21.5071 3.32357 21.6669 3.16378 21.6669Z" fill="#A6BBD6"/>
<path d="M7.22242 6.07218V0.767243L6.58327 0.0322266H6.29565L6.9348 0.767243V6.07218C6.7111 6.1361 6.51936 6.39176 6.51936 6.71133C6.51936 7.06286 6.77502 7.38243 7.09459 7.38243C7.41416 7.38243 7.63787 7.09482 7.63787 6.71133C7.63787 6.42371 7.47808 6.16805 7.22242 6.07218ZM7.06263 7.0948C6.90285 7.0948 6.74306 6.93503 6.74306 6.71133C6.74306 6.48763 6.87089 6.32784 7.06263 6.32784C7.22242 6.32784 7.38221 6.48763 7.38221 6.71133C7.38221 6.90307 7.25438 7.0948 7.06263 7.0948Z" fill="#A6BBD6"/>
<path d="M5.33689 23.9041V13.3261L0 7.0625V7.38207L5.01731 13.3261V23.9041C4.79361 23.968 4.60187 24.2236 4.60187 24.5432C4.60187 24.8628 4.85753 25.2143 5.14514 25.2143C5.46472 25.2143 5.68842 24.9267 5.68842 24.5432C5.68842 24.2236 5.52863 23.968 5.30493 23.9041H5.33689ZM5.1771 24.8947C5.01731 24.8947 4.88949 24.7349 4.88949 24.5432C4.88949 24.3515 5.01731 24.1917 5.1771 24.1917C5.33689 24.1917 5.46472 24.3515 5.46472 24.5432C5.46472 24.7349 5.33689 24.8947 5.1771 24.8947Z" fill="#A6BBD6"/>
<path d="M7.54191 23.9039V12.3353L2.78026 6.74273V3.09959L0.894772 0.894531C0.830858 0.958446 0.7989 0.990403 0.734985 1.05432L2.49264 3.13155V6.77468L7.22234 12.3672V23.9358C6.99864 23.9997 6.80689 24.2554 6.80689 24.575C6.80689 24.8945 7.06255 25.2461 7.35017 25.2461C7.63779 25.2461 7.89344 24.9584 7.89344 24.575C7.89344 24.2873 7.73366 24.0317 7.478 23.9358L7.54191 23.9039ZM7.38213 24.8626C7.22234 24.8626 7.12647 24.7028 7.12647 24.543C7.12647 24.3513 7.2543 24.2234 7.38213 24.2234C7.50996 24.2234 7.66974 24.3832 7.66974 24.543C7.66974 24.7028 7.54191 24.8626 7.38213 24.8626Z" fill="#A6BBD6"/>
<path d="M5.84817 4.44212V1.78966L4.37813 0.0639648H4.09052L5.56056 1.78966V4.44212C5.3049 4.50604 5.14511 4.7617 5.14511 5.08127C5.14511 5.40084 5.40077 5.75239 5.68839 5.75239C6.00796 5.75239 6.23166 5.46476 6.23166 5.08127C6.23166 4.79365 6.07187 4.53799 5.84817 4.44212ZM5.68839 5.43281C5.5286 5.43281 5.40077 5.27301 5.40077 5.08127C5.40077 4.88953 5.5286 4.72975 5.68839 4.72975C5.84817 4.72975 5.976 4.88953 5.976 5.08127C5.976 5.27301 5.84817 5.43281 5.68839 5.43281Z" fill="#A6BBD6"/>
<path d="M3.16378 18.3435C3.004 18.3435 2.87617 18.4074 2.78029 18.5353L0 15.2437V15.5632L2.65247 18.727L2.58855 19.0146C2.58855 19.3662 2.84421 19.6857 3.13183 19.6857C3.4514 19.6857 3.6751 19.3981 3.6751 19.0146C3.6751 18.6631 3.41944 18.3435 3.13183 18.3435H3.16378ZM3.16378 19.3342C3.004 19.3342 2.87617 19.1744 2.87617 18.9827C2.87617 18.7909 3.004 18.6631 3.16378 18.6631C3.32357 18.6631 3.4514 18.8229 3.4514 18.9827C3.4514 19.1744 3.32357 19.3342 3.16378 19.3342Z" fill="#A6BBD6"/>
<path d="M0.415473 4.09056C0.255686 4.09056 0.127855 4.15447 0.0319824 4.2823V5.1771C0.127855 5.30493 0.287643 5.40081 0.44743 5.40081C0.767004 5.40081 0.990705 5.1132 0.990705 4.72971C0.990705 4.34622 0.735047 4.05859 0.44743 4.05859L0.415473 4.09056ZM0.415473 5.1132C0.255686 5.1132 0.0958987 4.95341 0.0958987 4.72971C0.0958987 4.50601 0.223728 4.34622 0.415473 4.34622C0.57526 4.34622 0.735047 4.50601 0.735047 4.72971C0.735047 4.92146 0.607217 5.1132 0.415473 5.1132Z" fill="#A6BBD6"/>
<path d="M3.16378 16.0427C3.004 16.0427 2.87617 16.1066 2.78029 16.2345L0 12.9429V13.2624L2.65247 16.3943L2.58855 16.6499C2.58855 17.0015 2.84421 17.321 3.13183 17.321C3.4514 17.321 3.6751 17.0334 3.6751 16.6499C3.6751 16.2664 3.41944 15.9788 3.13183 15.9788L3.16378 16.0427ZM3.16378 17.0334C3.004 17.0334 2.87617 16.8736 2.87617 16.6819C2.87617 16.4901 3.004 16.3303 3.16378 16.3303C3.32357 16.3303 3.4514 16.4901 3.4514 16.6819C3.4514 16.8736 3.32357 17.0334 3.16378 17.0334Z" fill="#A6BBD6"/>
<path d="M3.16381 13.7095C3.00402 13.7095 2.87619 13.7734 2.78032 13.9013L0.0319824 10.6416V10.9612L2.68445 14.093L2.62053 14.3806C2.62053 14.7322 2.87619 15.0517 3.16381 15.0517C3.48338 15.0517 3.70709 14.7641 3.70709 14.3806C3.70709 13.9971 3.45143 13.7095 3.16381 13.7095ZM3.16381 14.6682C3.03598 14.6682 2.90815 14.5404 2.90815 14.3806C2.90815 14.2208 3.00402 14.093 3.16381 14.093C3.3236 14.093 3.41947 14.2208 3.41947 14.3806C3.41947 14.5404 3.3236 14.6682 3.16381 14.6682Z" fill="#A6BBD6"/>
<path d="M3.54721 1.11839C3.38742 1.11839 3.2596 1.18231 3.16372 1.31014L2.17304 0.159668C2.10913 0.159668 2.01326 0.191629 1.94934 0.223587L3.03589 1.50188L2.97198 1.7895C2.97198 2.14103 3.22764 2.4606 3.51525 2.4606C3.83483 2.4606 4.05853 2.17299 4.05853 1.7895C4.05853 1.43797 3.80287 1.11839 3.51525 1.11839H3.54721ZM3.54721 2.14103C3.38742 2.14103 3.22764 1.98124 3.22764 1.75754C3.22764 1.53384 3.35547 1.37405 3.54721 1.37405C3.707 1.37405 3.86679 1.53384 3.86679 1.75754C3.86679 1.98124 3.73896 2.14103 3.54721 2.14103Z" fill="#A6BBD6"/>
<path d="M36.4634 4.34628L39.6911 0.479436C39.6272 0.479436 39.5313 0.447485 39.4674 0.415527L36.1758 4.34628V9.93883L33.2676 13.4541C33.1718 13.3263 33.0439 13.2624 32.8842 13.2624C32.5646 13.2624 32.3409 13.55 32.3409 13.9335C32.3409 14.285 32.5965 14.6046 32.8842 14.6046C33.1718 14.6046 33.4274 14.317 33.4274 13.9335L33.3635 13.6459L36.4634 9.93883V4.34628ZM32.8842 14.2211C32.7244 14.2211 32.6285 14.0933 32.6285 13.9016C32.6285 13.7098 32.7563 13.582 32.8842 13.582C33.012 13.582 33.1398 13.7098 33.1398 13.9016C33.1398 14.0933 33.012 14.2211 32.8842 14.2211Z" fill="#A6BBD6"/>
<path d="M33.1398 9.61945C32.98 9.61945 32.8522 9.68335 32.7563 9.81118L28.6977 5.01757L32.8522 0.0322266H32.5646L28.3782 5.01757L32.5966 10.0029L32.5326 10.2905C32.5326 10.6421 32.7883 10.9617 33.0759 10.9617C33.3635 10.9617 33.6192 10.674 33.6192 10.2905C33.6192 9.93901 33.3635 9.61945 33.0759 9.61945H33.1398ZM33.1398 10.6421C32.98 10.6421 32.8522 10.4823 32.8522 10.2905C32.8522 10.0988 32.98 9.93902 33.1398 9.93902C33.2996 9.93902 33.4274 10.0988 33.4274 10.2905C33.4274 10.4823 33.2996 10.6421 33.1398 10.6421Z" fill="#A6BBD6"/>
<path d="M38.285 0.159889C38.1891 0.159889 38.1252 0.159887 38.0293 0.12793L34.8975 3.86695C34.8016 3.73912 34.6418 3.6752 34.514 3.6752C34.1944 3.6752 33.9707 3.96282 33.9707 4.34631C33.9707 4.7298 34.2264 5.01741 34.5459 5.01741C34.8655 5.01741 35.0892 4.7298 35.0892 4.34631L35.0253 4.05869L38.285 0.159889ZM34.514 4.63393C34.3861 4.63393 34.2903 4.5061 34.2903 4.34631C34.2903 4.18652 34.3861 4.05869 34.514 4.05869C34.6418 4.05869 34.7377 4.18652 34.7377 4.34631C34.7377 4.5061 34.6418 4.63393 34.514 4.63393Z" fill="#A6BBD6"/>
<path d="M31.7656 11.2812C31.6059 11.2812 31.478 11.3451 31.3822 11.473L26.7803 6.00826L31.7656 0.0322266H31.478L26.4927 6.00826L31.2543 11.6647L31.1904 11.9523C31.1904 12.3039 31.4461 12.6235 31.7337 12.6235C32.0213 12.6235 32.277 12.3358 32.277 11.9523C32.277 11.6008 32.0213 11.2812 31.7337 11.2812H31.7656ZM31.7656 12.3039C31.6059 12.3039 31.478 12.1441 31.478 11.9523C31.478 11.7606 31.6059 11.6008 31.7656 11.6008C31.9254 11.6008 32.0533 11.7606 32.0533 11.9523C32.0533 12.1441 31.9254 12.3039 31.7656 12.3039Z" fill="#A6BBD6"/>
<path d="M34.546 7.63808C34.3862 7.63808 34.2584 7.70201 34.1625 7.82984L30.9348 4.0269L34.2584 0.0322266H33.9708L30.6152 4.0269L34.0027 8.02157L33.9388 8.3092C33.9388 8.66073 34.1945 8.9803 34.4821 8.9803C34.8017 8.9803 35.0254 8.69269 35.0254 8.3092C35.0254 7.95767 34.7697 7.63808 34.4821 7.63808H34.546ZM34.546 8.5968C34.4182 8.5968 34.2903 8.46899 34.2903 8.3092C34.2903 8.14941 34.4182 7.98963 34.546 7.98963C34.6738 7.98963 34.8017 8.11744 34.8017 8.27723C34.8017 8.43702 34.7058 8.56485 34.546 8.56485V8.5968Z" fill="#A6BBD6"/>
<path d="M33.1718 23.1374C33.012 23.1374 32.8842 23.2013 32.7883 23.3292L30.6791 20.8365V17.8644L25.6618 11.9523V4.698L29.5286 0.0322266H29.241L25.3422 4.698V11.9523L30.3595 17.8644V20.8365L32.6285 23.5209L32.5646 23.8085C32.5646 24.1601 32.8203 24.4796 33.1079 24.4796C33.3955 24.4796 33.6512 24.192 33.6512 23.8405C33.6512 23.457 33.3955 23.1694 33.1079 23.1694L33.1718 23.1374ZM33.1718 24.1601C33.012 24.1601 32.8842 24.0003 32.8842 23.8085C32.8842 23.6168 33.012 23.457 33.1718 23.457C33.3316 23.457 33.4594 23.6168 33.4594 23.8085C33.4594 24.0003 33.3316 24.1601 33.1718 24.1601Z" fill="#A6BBD6"/>
<path d="M29.4647 23.2011V18.5673L24.1598 12.3037V5.04932L28.3142 0.0639648H28.0266L23.8402 5.04932V12.3037L29.1451 18.5673V23.2011C28.9214 23.265 28.7297 23.5207 28.7297 23.8403C28.7297 24.1598 28.9854 24.5114 29.273 24.5114C29.5925 24.5114 29.8162 24.2238 29.8162 23.8403C29.8162 23.4568 29.6565 23.297 29.4008 23.2011H29.4647ZM29.3049 24.0959C29.1771 24.0959 29.0812 23.9681 29.0812 23.8083C29.0812 23.6485 29.1771 23.5207 29.3049 23.5207C29.4328 23.5207 29.5286 23.6485 29.5286 23.8083C29.5286 23.9681 29.4328 24.0959 29.3049 24.0959Z" fill="#A6BBD6"/>
<path d="M40.2664 17.8961V3.67501C40.2344 3.67501 42.024 1.53387 42.024 1.53387C41.9921 1.53387 41.9601 1.50191 41.8962 1.46995C41.8962 1.46995 41.8642 1.46995 41.8323 1.43799L39.9468 3.67501V17.8641C39.7231 17.928 39.5633 18.1837 39.5633 18.5032C39.5633 18.8228 39.819 19.1744 40.1066 19.1744C40.4261 19.1744 40.6498 18.8867 40.6498 18.5032C40.6498 18.2156 40.4901 17.96 40.2344 17.8641L40.2664 17.8961ZM40.1066 18.8548C39.9468 18.8548 39.819 18.695 39.819 18.5032C39.819 18.3115 39.9468 18.1517 40.1066 18.1517C40.2664 18.1517 40.3942 18.3115 40.3942 18.5032C40.3942 18.695 40.2664 18.8548 40.1066 18.8548Z" fill="#A6BBD6"/>
<path d="M46.8176 10.7056L43.2703 14.9559C43.1745 14.8281 43.0466 14.7641 42.8868 14.7641C42.5673 14.7641 42.3436 15.0518 42.3436 15.4353C42.3436 15.8187 42.5992 16.1064 42.8868 16.1064C43.2064 16.1064 43.4301 15.8187 43.4301 15.4353L43.3662 15.1476L46.8176 11.0251V10.7056ZM42.8868 15.8187C42.6951 15.8187 42.5673 15.659 42.5673 15.4353C42.5673 15.2116 42.7271 15.0518 42.8868 15.0518C43.0786 15.0518 43.2064 15.2435 43.2064 15.4353C43.2064 15.627 43.0466 15.8187 42.8868 15.8187Z" fill="#A6BBD6"/>
<path d="M45.9867 6.16804V6.13607C45.9867 6.13607 45.9867 6.10413 45.9867 6.07217C45.9867 6.04022 45.9548 6.00825 45.9228 5.94434L41.8962 10.7699C41.8003 10.6421 41.6405 10.5782 41.5127 10.5782C41.1931 10.5782 40.9694 10.8658 40.9694 11.2493C40.9694 11.6327 41.2251 11.9204 41.5127 11.9204C41.8323 11.9204 42.056 11.6327 42.056 11.2493L41.9921 10.9617L46.0187 6.16804H45.9867ZM41.4807 11.6327C41.289 11.6327 41.1612 11.473 41.1612 11.2493C41.1612 11.0256 41.321 10.8658 41.4807 10.8658C41.6725 10.8658 41.8003 11.0256 41.8003 11.2493C41.8003 11.473 41.6725 11.6327 41.4807 11.6327Z" fill="#A6BBD6"/>
<path d="M45.2516 4.76156C45.2197 4.69765 45.1558 4.63374 45.1238 4.56982L41.8641 8.46863C41.7683 8.3408 41.6404 8.27687 41.4807 8.27687C41.1611 8.27687 40.9374 8.5645 40.9374 8.94799C40.9374 9.33148 41.193 9.61909 41.4807 9.61909C41.7683 9.61909 42.0239 9.33148 42.0239 8.94799L41.96 8.66037L45.2516 4.72961V4.76156ZM41.4807 9.33146C41.3209 9.33146 41.1611 9.17169 41.1611 8.94799C41.1611 8.72429 41.3209 8.5645 41.4807 8.5645C41.6404 8.5645 41.8002 8.72429 41.8002 8.94799C41.8002 9.17169 41.6724 9.33146 41.4807 9.33146Z" fill="#A6BBD6"/>
<path d="M38.253 26.9402H32.6925C32.6285 26.6526 32.4048 26.4289 32.1492 26.4289C31.8296 26.4289 31.6059 26.7165 31.6059 27.1C31.6059 27.4835 31.8616 27.7711 32.1492 27.7711C32.4368 27.7711 32.6285 27.5794 32.6925 27.2918H38.253L46.8176 17.0334V16.7139L38.253 26.9402ZM32.1492 27.4196C31.9894 27.4196 31.8616 27.2598 31.8616 27.1C31.8616 26.9083 31.9894 26.7804 32.1492 26.7804C32.309 26.7804 32.4368 26.9402 32.4368 27.1C32.4368 27.2598 32.309 27.4196 32.1492 27.4196Z" fill="#A6BBD6"/>
<path d="M38.317 17.8961V4.3462L41.0653 1.02264C41.0014 0.990678 40.9375 0.958715 40.8736 0.926758L38.0294 4.3462V17.8961C37.8057 17.9601 37.6459 18.2157 37.6459 18.5353C37.6459 18.8868 37.9015 19.2064 38.1891 19.2064C38.4768 19.2064 38.4768 19.1425 38.5726 19.0147C38.6685 18.8868 38.7324 18.727 38.7324 18.5353C38.7324 18.2477 38.5726 17.992 38.317 17.8961ZM38.1572 18.8229C38.0294 18.8229 37.9015 18.6951 37.9015 18.5033C37.9015 18.3116 38.0294 18.1838 38.1572 18.1838C38.285 18.1838 38.4129 18.3116 38.4129 18.5033C38.4129 18.6951 38.285 18.8229 38.1572 18.8229Z" fill="#A6BBD6"/>
<path d="M37.5819 4.34627L40.554 0.798993C40.49 0.798993 40.4261 0.735082 40.3622 0.703125L37.3263 4.31432V12.2397L34.7058 15.4035C34.6099 15.2757 34.4501 15.2118 34.3223 15.2118C34.0027 15.2118 33.779 15.4994 33.779 15.8829C33.779 16.2664 34.0347 16.554 34.3223 16.554C34.6099 16.554 34.8655 16.2664 34.8655 15.8829L34.8016 15.5953L37.6139 12.2397V4.31432L37.5819 4.34627ZM34.2903 16.2025C34.1625 16.2025 34.0347 16.0746 34.0347 15.9148C34.0347 15.7551 34.1625 15.6272 34.2903 15.6272C34.4181 15.6272 34.546 15.7551 34.546 15.9148C34.546 16.0746 34.4181 16.2025 34.2903 16.2025Z" fill="#A6BBD6"/>
<path d="M43.2704 2.49258C43.2064 2.46063 43.1745 2.3967 43.1106 2.36475L41.8323 3.8987C41.7364 3.77087 41.6086 3.70696 41.4488 3.70696C41.1292 3.70696 40.9055 3.99457 40.9055 4.37806C40.9055 4.76155 41.1612 5.04918 41.4488 5.04918C41.7684 5.04918 41.9921 4.76155 41.9921 4.37806L41.9282 4.09045L43.2384 2.52453L43.2704 2.49258ZM41.4488 4.7296C41.257 4.7296 41.1292 4.56981 41.1292 4.34611C41.1292 4.12241 41.289 3.96262 41.4488 3.96262C41.6405 3.96262 41.7684 4.12241 41.7684 4.34611C41.7684 4.56981 41.6086 4.7296 41.4488 4.7296Z" fill="#A6BBD6"/>
<path d="M44.3249 3.51526C44.2929 3.45134 44.229 3.41938 44.197 3.35547L41.8641 6.16773C41.7683 6.0399 41.6085 5.97597 41.4807 5.97597C41.1611 5.97597 40.9374 6.2636 40.9374 6.64709C40.9374 6.99862 41.193 7.31818 41.4807 7.31818C41.8002 7.31818 42.0239 7.03057 42.0239 6.64709L41.96 6.35946L44.3249 3.51526ZM41.4487 7.06253C41.2569 7.06253 41.0972 6.87079 41.0972 6.64709C41.0972 6.42338 41.2569 6.23164 41.4487 6.23164C41.6404 6.23164 41.8002 6.42338 41.8002 6.64709C41.8002 6.87079 41.6404 7.06253 41.4487 7.06253Z" fill="#A6BBD6"/>
<path d="M27.2278 23.2011V17.5766L22.2104 11.6645V0.0639648H21.8909V11.6645L26.9401 17.5766V23.2011C26.7164 23.265 26.5247 23.5207 26.5247 23.8403C26.5247 24.1918 26.7804 24.5114 27.068 24.5114C27.3875 24.5114 27.6112 24.2238 27.6112 23.8403C27.6112 23.5526 27.4515 23.297 27.1958 23.2011H27.2278ZM27.068 24.1598C26.9082 24.1598 26.7804 24.0001 26.7804 23.8083C26.7804 23.6166 26.9082 23.4568 27.068 23.4568C27.2278 23.4568 27.3556 23.6166 27.3556 23.8083C27.3556 24.0001 27.2278 24.1598 27.068 24.1598Z" fill="#A6BBD6"/>
<path d="M11.9521 19.2706V13.6461L14.988 10.0029V0.0322266H14.7004V10.0029L11.6964 13.6461V19.2706C11.4727 19.3665 11.3129 19.5902 11.3129 19.9097C11.3129 20.2613 11.5686 20.5808 11.8562 20.5808C12.1438 20.5808 12.3995 20.2932 12.3995 19.9097C12.3995 19.5902 12.2077 19.3345 11.9521 19.2706ZM11.8242 20.2293C11.6645 20.2293 11.5686 20.1015 11.5686 19.9097C11.5686 19.718 11.6964 19.5902 11.8242 19.5902C11.9521 19.5902 12.0799 19.718 12.0799 19.9097C12.0799 20.0695 11.9521 20.2293 11.8242 20.2293Z" fill="#A6BBD6"/>
<path d="M14.4767 23.5529V17.2573L16.1065 15.2759V0.0322266H15.787V15.2759C15.8189 15.2759 14.1571 17.2573 14.1571 17.2573V23.5529C13.9334 23.6168 13.7417 23.8724 13.7417 24.192C13.7417 24.5116 13.9974 24.8631 14.285 24.8631C14.6045 24.8631 14.8282 24.5755 14.8282 24.192C14.8282 23.9044 14.6685 23.6487 14.4128 23.5529H14.4767ZM14.3169 24.5116C14.1571 24.5116 14.0293 24.3518 14.0293 24.192C14.0293 24.0003 14.1571 23.8724 14.3169 23.8724C14.4767 23.8724 14.6045 24.0322 14.6045 24.192C14.6045 24.3838 14.4767 24.5116 14.3169 24.5116Z" fill="#A6BBD6"/>
<path d="M21.4115 27.4834V15.9148L18.8868 12.9428V0H18.5673V12.9428L21.0919 15.9148V27.4834C20.8682 27.5473 20.7084 27.8029 20.7084 28.1225C20.7084 28.4421 20.9641 28.7936 21.2517 28.7936C21.5713 28.7936 21.795 28.506 21.795 28.1225C21.795 27.739 21.6352 27.5792 21.3795 27.4834H21.4115ZM21.2836 28.474C21.1239 28.474 20.996 28.3143 20.996 28.1545C20.996 27.9947 21.1239 27.8349 21.2836 27.8349C21.4434 27.8349 21.5713 27.9947 21.5713 28.1545C21.5713 28.3143 21.4434 28.474 21.2836 28.474Z" fill="#A6BBD6"/>
<path d="M19.2064 27.5154V23.2011L20.2929 21.8909V16.2664L18.0559 13.6458V0.0639648H17.7363V13.6458L20.0053 16.2664V21.8909L18.9188 23.2011V27.5154C18.695 27.5793 18.5033 27.8349 18.5033 28.1545C18.5033 28.4741 18.759 28.8256 19.0466 28.8256C19.3662 28.8256 19.5899 28.538 19.5899 28.1545C19.5899 27.8669 19.4301 27.6112 19.1744 27.5154H19.2064ZM19.0466 28.4741C18.8868 28.4741 18.759 28.3143 18.759 28.1545C18.759 27.9947 18.8868 27.8349 19.0466 27.8349C19.2064 27.8349 19.3342 27.9947 19.3342 28.1545C19.3342 28.3463 19.2064 28.4741 19.0466 28.4741Z" fill="#A6BBD6"/>
<path d="M16.9694 27.5156L16.9055 0.0322266H16.6179L16.6818 27.4836C16.4261 27.5476 16.2344 27.8032 16.2344 28.1228C16.2344 28.4743 16.49 28.7939 16.7777 28.7939C17.0972 28.7939 17.3209 28.5063 17.3209 28.1228C17.3209 27.7393 17.1611 27.5795 16.9055 27.4836L16.9694 27.5156ZM16.8416 28.5063C16.6818 28.5063 16.522 28.3465 16.522 28.1228C16.522 27.8991 16.6498 27.7712 16.8416 27.7712C17.0333 27.7712 17.1611 27.931 17.1611 28.1228C17.1611 28.3145 17.0333 28.5063 16.8416 28.5063Z" fill="#A6BBD6"/>
<path d="M9.77899 23.9044V13.3265L13.6139 8.69267V0.0322266H13.3263V8.69267L9.49138 13.3265V23.9044C9.26767 23.9683 9.07593 24.224 9.07593 24.5436C9.07593 24.8631 9.33159 25.2146 9.61921 25.2146C9.93878 25.2146 10.1625 24.927 10.1625 24.5436C10.1625 24.1601 10.0027 24.0003 9.74704 23.9044H9.77899ZM9.61921 24.8951C9.45942 24.8951 9.33159 24.7353 9.33159 24.5436C9.33159 24.3518 9.45942 24.192 9.61921 24.192C9.77899 24.192 9.90682 24.3518 9.90682 24.5436C9.90682 24.7353 9.77899 24.8951 9.61921 24.8951Z" fill="#A6BBD6"/>
<path d="M25.6937 27.4514L25.47 27.5154L23.201 24.8309V15.2757L20.3888 11.9841V0.0639648H20.0692V11.9841L22.8815 15.2757V24.8309L25.2783 27.6432C25.1824 27.771 25.1185 27.9308 25.1185 28.1226C25.1185 28.4741 25.3741 28.7937 25.6618 28.7937C25.9494 28.7937 26.205 28.5061 26.205 28.1226C26.205 27.7391 25.9494 27.4514 25.6618 27.4514H25.6937ZM25.6937 28.4102C25.5659 28.4102 25.4381 28.2824 25.4381 28.1226C25.4381 27.9628 25.5339 27.8349 25.6937 27.8349C25.8535 27.8349 25.9494 27.9628 25.9494 28.1226C25.9494 28.2824 25.8535 28.4102 25.6937 28.4102Z" fill="#A6BBD6"/>
<path d="M24.2877 0.0322266H23.2331C23.1692 0.128099 23.1372 0.255932 23.1372 0.415719C23.1372 0.767251 23.3929 1.08682 23.6805 1.08682C24.0001 1.08682 24.2238 0.799208 24.2238 0.415719L24.1598 0.128095L24.2557 0.0322266H24.2877ZM23.7124 0.735293C23.5527 0.735293 23.4248 0.575506 23.4248 0.415719C23.4248 0.255932 23.5527 0.0961453 23.6805 0.0961453C23.8403 0.0961453 23.9361 0.255932 23.9681 0.415719C23.9681 0.607464 23.8403 0.735293 23.7124 0.735293Z" fill="#A6BBD6"/>
<path d="M23.6485 27.4834V27.1318L22.2424 25.47V15.5632L19.7178 12.5912V0H19.3982V12.5912L21.9228 15.5632V25.47L23.329 27.1318V27.4834C23.0733 27.5473 22.9135 27.8029 22.9135 28.1225C22.9135 28.4741 23.1692 28.7936 23.4568 28.7936C23.7764 28.7936 24.0001 28.506 24.0001 28.1225C24.0001 27.8349 23.8403 27.5792 23.5846 27.4834H23.6485ZM23.4887 28.4421C23.329 28.4421 23.2011 28.2823 23.2011 28.1225C23.2011 27.9627 23.329 27.8029 23.4887 27.8029C23.6485 27.8029 23.7764 27.9627 23.7764 28.1225C23.7764 28.2823 23.6485 28.4421 23.4887 28.4421Z" fill="#A6BBD6"/>
<path d="M26.237 0.0319594H25.9494L24.0959 2.23702C24 2.10919 23.8722 2.04527 23.7124 2.04527C23.3928 2.04527 23.1691 2.33289 23.1691 2.71638C23.1691 3.06791 23.4248 3.38749 23.7124 3.38749C24.032 3.38749 24.2557 3.09987 24.2557 2.71638L24.1918 2.42876L26.2051 0L26.237 0.0319594ZM23.7124 3.06791C23.5526 3.06791 23.3928 2.90812 23.3928 2.71638C23.3928 2.52463 23.5207 2.36485 23.7124 2.36485C23.9041 2.36485 24.032 2.52463 24.032 2.71638C24.032 2.90812 23.9041 3.06791 23.7124 3.06791Z" fill="#A6BBD6"/>
<path d="M25.0226 23.2013V16.2346L21.1238 11.6328V0.0322266H20.8043V11.6328L24.735 16.2346V23.1694C24.5113 23.2333 24.3196 23.489 24.3196 23.8085C24.3196 24.1281 24.5752 24.4796 24.8629 24.4796C25.1824 24.4796 25.4061 24.192 25.4061 23.8085C25.4061 23.425 25.2463 23.2653 24.9907 23.1694L25.0226 23.2013ZM24.8629 24.192C24.7031 24.192 24.5433 24.0322 24.5433 23.8405C24.5433 23.6487 24.6711 23.489 24.8629 23.489C25.0546 23.489 25.1824 23.6487 25.1824 23.8405C25.1824 24.0322 25.0546 24.192 24.8629 24.224V24.192Z" fill="#A6BBD6"/>
<path d="M10.0027 4.7617V1.11856L9.07588 0.0639648H8.78827L9.68308 1.15051V4.79367C9.45938 4.85758 9.26763 5.11324 9.26763 5.43281C9.26763 5.75239 9.52329 6.10391 9.81091 6.10391C10.1305 6.10391 10.3542 5.8163 10.3542 5.43281C10.3542 5.04932 10.1944 4.88954 9.93874 4.79367L10.0027 4.7617ZM9.84286 5.78434C9.65112 5.78434 9.52329 5.59259 9.52329 5.40084C9.52329 5.2091 9.68308 5.01735 9.84286 5.01735C10.0027 5.01735 10.1944 5.17714 10.1944 5.40084C10.1944 5.62455 10.0346 5.78433 9.84286 5.81629V5.78434Z" fill="#A6BBD6"/>
<path d="M36.8149 35.217C35.6964 37.7417 34.5779 38.8282 34.2584 38.5406C33.811 38.1251 33.3316 36.4314 32.9161 34.2263C33.3316 33.715 33.7151 33.2357 34.0986 32.7563C35.4088 31.0945 37.0387 29.0492 37.6778 28.8255C38.6365 28.6018 38.2211 32.0532 36.8149 35.217ZM7.44608 31.6058L7.15847 31.3182C5.46472 28.8256 8.1811 26.0772 10.7057 27.8029L10.9934 28.0905C12.6871 30.5832 9.97072 33.3315 7.44608 31.6058ZM19.6538 32.5965C19.6538 33.8109 18.6631 34.8016 17.4807 34.8016C16.2983 34.8016 15.2757 33.8109 15.2757 32.5965C15.2757 31.3821 16.2663 30.3915 17.4807 30.3915C18.6951 30.3915 19.6538 31.3821 19.6538 32.5965ZM38.4128 27.004C36.6871 26.205 35.0892 28.2823 32.4048 31.6698C32.1172 30.008 31.8615 28.3142 31.6059 26.7483C30.008 16.5219 28.8895 10.2583 25.9494 10.2583C23.0093 10.2583 21.6671 13.6458 17.4488 28.9214C15.4354 28.9214 13.7737 30.5832 13.7737 32.5965C13.7737 34.6098 15.4354 36.2716 17.4488 36.2716C19.4621 36.2716 21.1239 34.6098 21.1239 32.5965C21.1239 30.5832 20.4208 30.1358 19.3662 29.4647C21.028 23.4247 21.9867 21.0599 23.0093 17.3528C24.5753 11.7603 25.534 12.2077 25.6938 12.2077C25.7257 12.2077 26.9401 12.1757 27.8349 16.8735C29.0173 22.9773 31.1585 35.5046 31.1585 35.5046C31.1585 35.5046 30.6791 34.514 30.1998 34.3222C26.7803 38.4128 22.2104 42.8548 16.7457 42.8548C11.281 42.8548 10.4181 37.6138 10.0666 33.6191C12.5273 32.98 14.0932 30.1038 12.4954 27.3236C12.2397 26.8442 11.8243 26.4607 11.3768 26.205C8.18111 24.3835 4.92145 26.6524 4.92145 29.6564C4.92145 32.6604 6.29562 33.2357 8.11719 33.6511C8.30893 36.0479 8.94808 38.5086 9.97072 40.3622C11.5686 43.2703 13.9015 44.8042 16.7457 44.8042C22.7856 44.8042 27.6432 40.3302 31.2863 36.0799C31.8935 38.6045 32.5327 39.9148 33.4275 40.2983C35.1532 41.0013 37.0706 39.3715 38.5726 35.9521C40.1385 32.3728 40.7457 28.0266 38.3809 26.9401" fill="white"/>
<path d="M57.843 29.5288H60.2718L62.7644 23.9362H74.2691L76.7298 29.5288H79.2864L69.6672 8.24514H67.4302L57.811 29.5288H57.843ZM63.7232 21.7951L68.5487 11.0254L73.3423 21.7951H63.7232ZM92.0694 29.8803C95.6167 29.8803 98.5887 28.4103 100.538 26.6526V18.2159H91.8137V20.357H98.2372V25.598C96.7991 26.7804 94.5621 27.7072 92.1333 27.7072C86.9882 27.7072 83.7605 23.9682 83.7605 18.9189V18.855C83.7605 14.1573 87.116 10.1945 91.7818 10.1945C96.4476 10.1945 96.5754 11.1852 98.2052 12.5913L99.7392 10.7698C97.63 8.98015 95.4249 7.95752 91.8457 7.95752C85.5181 7.95752 81.2358 13.1027 81.2358 18.887V18.9509C81.2358 24.9908 85.3583 29.8164 91.9735 29.8164M106.131 29.5288H108.527V8.40493H106.131V29.5288ZM114.695 29.5288H128.98V27.3237H117.092V8.40493H114.695V29.5288ZM133.39 29.5288H148.826V27.3557H135.787V19.9735H147.324V17.8004H135.787V10.578H148.666V8.40493H133.39V29.5288Z" fill="#167AA1"/>
<path d="M60.4635 37.5178C60.6552 37.7415 60.7511 38.0291 60.7511 38.3487C60.7511 38.6682 60.6872 38.828 60.5594 39.0517C60.4315 39.2435 60.2398 39.4352 59.9841 39.5311C59.7285 39.627 59.4409 39.7228 59.0893 39.7228H57.3317V34.6416H59.0574C59.5687 34.6416 59.9522 34.7694 60.2398 34.9931C60.4955 35.2168 60.6552 35.5364 60.6552 35.9199C60.6552 36.3034 60.5594 36.4951 60.3996 36.6869C60.2398 36.8786 60.0161 37.0065 59.7604 37.1023C60.048 37.1662 60.3037 37.2941 60.4954 37.5497L60.4635 37.5178ZM57.8749 36.8467H59.0574C59.4089 36.8467 59.6646 36.7508 59.8563 36.591C60.048 36.4312 60.1439 36.2075 60.1439 35.9199C60.1439 35.6323 60.048 35.4086 59.8563 35.2488C59.6646 35.089 59.4089 34.9931 59.0254 34.9931H57.8749V36.8147V36.8467ZM59.9522 39.0198C60.1439 38.86 60.2718 38.6043 60.2718 38.2848C60.2718 37.9652 60.1759 37.7415 59.9522 37.5497C59.7285 37.358 59.4409 37.2621 59.0893 37.2621H57.9069V39.2435H59.1213C59.5048 39.2435 59.7924 39.1476 59.9841 38.9878L59.9522 39.0198Z" fill="#167AA1"/>
<path d="M65.1612 35.7283V39.691H64.6499V38.9879C64.5221 39.2436 64.3623 39.4353 64.1066 39.5631C63.851 39.691 63.5953 39.7549 63.2757 39.7549C62.7964 39.7549 62.4129 39.5951 62.1253 39.3075C61.8376 39.0199 61.6779 38.5725 61.6779 38.0292V35.6963H62.1892V37.9653C62.1892 38.4127 62.285 38.7322 62.5088 38.9559C62.7325 39.1796 63.0201 39.3075 63.4036 39.3075C63.787 39.3075 64.1066 39.1796 64.3303 38.9559C64.554 38.7003 64.6819 38.3488 64.6819 37.9014V35.7283H65.1932H65.1612Z" fill="#167AA1"/>
<path d="M66.5673 39.4353C66.2797 39.2116 66.1199 38.924 66.088 38.5725H66.5993C66.5993 38.7962 66.7271 38.9879 66.9188 39.1157C67.1106 39.2436 67.3662 39.3075 67.6858 39.3075C68.0054 39.3075 68.1652 39.2436 68.325 39.1157C68.4848 38.9879 68.5487 38.8281 68.5487 38.6364C68.5487 38.4446 68.5167 38.3807 68.4208 38.3168C68.325 38.2529 68.2291 38.157 68.1013 38.1251C67.9734 38.0931 67.7817 38.0292 67.558 37.9653C67.2704 37.9014 67.0147 37.8055 66.823 37.7416C66.6312 37.6777 66.4714 37.5498 66.3436 37.39C66.2158 37.2303 66.1519 37.0385 66.1519 36.7828C66.1519 36.5272 66.2158 36.3994 66.3117 36.2396C66.4075 36.0798 66.5993 35.9519 66.791 35.8561C67.0147 35.7602 67.2384 35.6963 67.526 35.6963C67.9415 35.6963 68.293 35.7922 68.5487 36.0159C68.8043 36.2396 68.9641 36.5272 68.9641 36.9107H68.4528C68.4528 36.687 68.3569 36.4952 68.1652 36.3354C68.0054 36.2076 67.7817 36.1118 67.4621 36.1118C67.1426 36.1118 66.9828 36.1757 66.823 36.3035C66.6632 36.4313 66.5673 36.5911 66.5673 36.7509C66.5673 36.9107 66.5993 37.0385 66.6952 37.1344C66.791 37.2302 66.9188 37.3261 67.0467 37.3581C67.1745 37.422 67.3663 37.4859 67.6219 37.5498C67.9095 37.6137 68.1332 37.7096 68.293 37.7735C68.4528 37.8374 68.6126 37.9653 68.7404 38.0931C68.8683 38.2209 68.9322 38.4127 68.9322 38.6683C68.9322 38.892 68.8683 39.0838 68.7724 39.2436C68.6446 39.4034 68.4848 39.5312 68.293 39.6271C68.0693 39.7229 67.8456 39.7869 67.558 39.7869C67.1106 39.7869 66.7271 39.691 66.4395 39.4673L66.5673 39.4353Z" fill="#167AA1"/>
<path d="M70.0187 34.8655C69.9548 34.8016 69.9229 34.7057 69.9229 34.6098C69.9229 34.514 69.9548 34.4181 70.0187 34.3542C70.0826 34.2903 70.1785 34.2583 70.2744 34.2583C70.3703 34.2583 70.4661 34.2903 70.5301 34.3542C70.594 34.4181 70.6259 34.514 70.6259 34.6098C70.6259 34.7057 70.594 34.8016 70.5301 34.8655C70.4661 34.9294 70.3703 34.9614 70.2744 34.9614C70.1785 34.9614 70.0826 34.9294 70.0187 34.8655ZM70.5301 35.7284V39.6911H70.0187V35.7284H70.5301Z" fill="#167AA1"/>
<path d="M74.7165 36.0802C75.0041 36.3678 75.1639 36.8152 75.1639 37.3585V39.6914H74.6526V37.4224C74.6526 36.975 74.5567 36.6554 74.333 36.4317C74.1093 36.208 73.8217 36.0802 73.4382 36.0802C73.0547 36.0802 72.7351 36.208 72.5114 36.4317C72.2877 36.6874 72.1599 37.0389 72.1599 37.4863V39.6594H71.6486V35.6967H72.1599V36.3678C72.2877 36.1122 72.4794 35.9524 72.7032 35.8245C72.9269 35.6967 73.2145 35.6328 73.5021 35.6328C73.9814 35.6328 74.3649 35.7926 74.6526 36.0802H74.7165Z" fill="#167AA1"/>
<path d="M79.8935 37.9018H76.6019C76.6019 38.1894 76.6978 38.4451 76.8256 38.6688C76.9534 38.8925 77.1132 39.0523 77.3369 39.1481C77.5606 39.244 77.7843 39.3079 78.04 39.3079C78.2957 39.3079 78.6472 39.212 78.8709 39.0522C79.0946 38.8925 79.2544 38.6687 79.3183 38.4131H79.8616C79.7657 38.7966 79.542 39.1162 79.2544 39.3718C78.9348 39.6275 78.5513 39.7234 78.072 39.7234C77.5926 39.7234 77.3689 39.6275 77.0813 39.4677C76.7937 39.3079 76.538 39.0523 76.3782 38.7646C76.2184 38.477 76.1226 38.0935 76.1226 37.6781C76.1226 37.2626 76.2184 36.9111 76.3782 36.5915C76.538 36.272 76.7617 36.0483 77.0813 35.8885C77.3689 35.7287 77.7204 35.6328 78.1039 35.6328C78.4874 35.6328 78.807 35.7287 79.0946 35.8885C79.3822 36.0483 79.6059 36.2719 79.7337 36.5596C79.8616 36.8472 79.9574 37.1348 79.9574 37.4863C79.9574 37.8379 79.9574 37.8059 79.9574 37.9018H79.8935ZM79.1905 36.7513C79.0626 36.5276 78.9029 36.3998 78.6792 36.272C78.4554 36.1761 78.2317 36.1122 77.9761 36.1122C77.5926 36.1122 77.273 36.24 77.0174 36.4637C76.7617 36.7194 76.6019 37.0389 76.57 37.4863H79.3502C79.3502 37.1987 79.2863 36.9431 79.1585 36.7194L79.1905 36.7513Z" fill="#167AA1"/>
<path d="M81.076 39.4353C80.7884 39.2116 80.6286 38.924 80.5967 38.5725H81.108C81.108 38.7962 81.2358 38.9879 81.4276 39.1157C81.6193 39.2436 81.875 39.3075 82.1946 39.3075C82.5141 39.3075 82.6739 39.2436 82.8337 39.1157C82.9935 38.9879 83.0574 38.8281 83.0574 38.6364C83.0574 38.4446 83.0254 38.3807 82.9296 38.3168C82.8337 38.2529 82.7378 38.157 82.61 38.1251C82.4822 38.0931 82.2904 38.0292 82.0667 37.9653C81.7791 37.9014 81.5234 37.8055 81.3317 37.7416C81.14 37.6777 80.9802 37.5498 80.8523 37.39C80.7245 37.2303 80.6606 37.0385 80.6606 36.7828C80.6606 36.5272 80.7245 36.3994 80.8204 36.2396C80.9162 36.0798 81.108 35.9519 81.2997 35.8561C81.5234 35.7602 81.7471 35.6963 82.0348 35.6963C82.4502 35.6963 82.8017 35.7922 83.0574 36.0159C83.3131 36.2396 83.4728 36.5272 83.4728 36.9107H82.9615C82.9615 36.687 82.8657 36.4952 82.6739 36.3354C82.5141 36.2076 82.2904 36.1118 81.9708 36.1118C81.6513 36.1118 81.4915 36.1757 81.3317 36.3035C81.1719 36.4313 81.076 36.5911 81.076 36.7509C81.076 36.9107 81.108 37.0385 81.2039 37.1344C81.2997 37.2302 81.4276 37.3261 81.5554 37.3581C81.6832 37.422 81.875 37.4859 82.1306 37.5498C82.4182 37.6137 82.642 37.7096 82.8017 37.7735C82.9615 37.8374 83.1213 37.9653 83.2491 38.0931C83.377 38.2209 83.4409 38.4127 83.4409 38.6683C83.4409 38.892 83.377 39.0838 83.2811 39.2436C83.1533 39.4034 82.9935 39.5312 82.8017 39.6271C82.578 39.7229 82.3543 39.7869 82.0667 39.7869C81.6193 39.7869 81.2358 39.691 80.9482 39.4673L81.076 39.4353Z" fill="#167AA1"/>
<path d="M84.7831 39.4353C84.4955 39.2116 84.3357 38.924 84.3037 38.5725H84.815C84.815 38.7962 84.9429 38.9879 85.1346 39.1157C85.3264 39.2436 85.582 39.3075 85.9016 39.3075C86.2212 39.3075 86.3809 39.2436 86.5407 39.1157C86.7005 38.9879 86.7644 38.8281 86.7644 38.6364C86.7644 38.4446 86.7325 38.3807 86.6366 38.3168C86.5407 38.2529 86.4449 38.157 86.317 38.1251C86.1892 38.0931 85.9975 38.0292 85.7738 37.9653C85.4861 37.9014 85.2305 37.8055 85.0387 37.7416C84.847 37.6777 84.6872 37.5498 84.5594 37.39C84.4315 37.2303 84.3676 37.0385 84.3676 36.7828C84.3676 36.5272 84.4315 36.3994 84.5274 36.2396C84.6233 36.0798 84.815 35.9519 85.0068 35.8561C85.2305 35.7602 85.4542 35.6963 85.7418 35.6963C86.1572 35.6963 86.5088 35.7922 86.7644 36.0159C87.0201 36.2396 87.1799 36.5272 87.1799 36.9107H86.6686C86.6686 36.687 86.5727 36.4952 86.3809 36.3354C86.2212 36.2076 85.9975 36.1118 85.6779 36.1118C85.3583 36.1118 85.1985 36.1757 85.0387 36.3035C84.879 36.4313 84.7831 36.5911 84.7831 36.7509C84.7831 36.9107 84.815 37.0385 84.9109 37.1344C85.0068 37.2302 85.1346 37.3261 85.2624 37.3581C85.3903 37.422 85.582 37.4859 85.8377 37.5498C86.1253 37.6137 86.349 37.7096 86.5088 37.7735C86.6686 37.8374 86.8284 37.9653 86.9562 38.0931C87.084 38.2209 87.1479 38.4127 87.1479 38.6683C87.1479 38.892 87.084 39.0838 86.9881 39.2436C86.8603 39.4034 86.7005 39.5312 86.5088 39.6271C86.2851 39.7229 86.0614 39.7869 85.7738 39.7869C85.3264 39.7869 84.9429 39.691 84.6552 39.4673L84.7831 39.4353Z" fill="#167AA1"/>
<path d="M90.9188 39.5635C90.6632 39.4357 90.4714 39.2759 90.3117 39.0841C90.1519 38.8924 90.088 38.6367 90.088 38.3811H90.6312C90.6312 38.6367 90.7591 38.8604 90.9508 39.0202C91.1426 39.212 91.4302 39.3078 91.8137 39.3078C92.1971 39.3078 92.4208 39.2119 92.6445 39.0522C92.8363 38.8604 92.9322 38.6367 92.9322 38.3811C92.9322 38.1254 92.8682 37.9976 92.7724 37.8378C92.6765 37.71 92.5167 37.6141 92.3569 37.5502C92.1971 37.4863 91.9734 37.4223 91.6858 37.3265C91.3343 37.2306 91.0786 37.1347 90.8869 37.0708C90.6951 36.9749 90.5034 36.8471 90.3756 36.6554C90.2477 36.4636 90.1519 36.208 90.1519 35.9203C90.1519 35.6327 90.2158 35.409 90.3436 35.2173C90.4714 35.0255 90.6632 34.8657 90.9188 34.7379C91.1745 34.6101 91.4621 34.5781 91.7817 34.5781C92.2611 34.5781 92.6445 34.706 92.9322 34.9297C93.2198 35.1534 93.3796 35.4729 93.4435 35.8245H92.9002C92.8683 35.6008 92.7404 35.441 92.5487 35.2812C92.3569 35.1214 92.1013 35.0255 91.7497 35.0255C91.3982 35.0255 91.1745 35.1214 90.9828 35.2812C90.791 35.441 90.6632 35.6647 90.6632 35.9523C90.6632 36.2399 90.7271 36.3358 90.823 36.4636C90.9189 36.5914 91.0786 36.6873 91.2384 36.7512C91.3982 36.8152 91.6219 36.8791 91.9095 36.9749C92.2291 37.0708 92.5167 37.1667 92.7085 37.2626C92.9002 37.3584 93.092 37.4863 93.2198 37.678C93.3476 37.8697 93.4435 38.1254 93.4435 38.413C93.4435 38.7006 93.3796 38.8924 93.2517 39.0841C93.1239 39.2759 92.9322 39.4676 92.6765 39.5954C92.4208 39.7233 92.1332 39.7872 91.7817 39.7872C91.4302 39.7872 91.1425 39.7233 90.8869 39.6274L90.9188 39.5635Z" fill="#167AA1"/>
<path d="M95.1373 39.4994C94.8496 39.3397 94.594 39.084 94.4342 38.7964C94.2744 38.4768 94.1785 38.1253 94.1785 37.7098C94.1785 37.2944 94.2744 36.9428 94.4342 36.6233C94.594 36.3037 94.8496 36.08 95.1373 35.9202C95.4249 35.7604 95.7764 35.6646 96.1599 35.6646C96.5434 35.6646 96.8629 35.7604 97.1825 35.9202C97.4701 36.08 97.7258 36.3357 97.8856 36.6233C98.0454 36.9428 98.1412 37.2944 98.1412 37.7098C98.1412 38.1253 98.0454 38.4768 97.8856 38.7964C97.7258 39.1159 97.4701 39.3397 97.1506 39.4994C96.831 39.6592 96.5114 39.7551 96.1279 39.7551C95.7444 39.7551 95.4249 39.6592 95.1053 39.4994H95.1373ZM96.8629 39.1479C97.0867 39.0201 97.2784 38.8603 97.4062 38.6046C97.534 38.349 97.598 38.0614 97.598 37.7098C97.598 37.3583 97.534 37.0707 97.4062 36.815C97.2784 36.5594 97.0867 36.3996 96.8629 36.2717C96.6392 36.1439 96.3836 36.08 96.1279 36.08C95.8723 36.08 95.6166 36.1439 95.3929 36.2717C95.1692 36.3996 94.9775 36.5594 94.8496 36.815C94.7218 37.0707 94.6579 37.3583 94.6579 37.7098C94.6579 38.0614 94.7218 38.349 94.8496 38.6046C94.9775 38.8603 95.1692 39.0201 95.3929 39.1479C95.6166 39.2757 95.8403 39.3397 96.1279 39.3397C96.4155 39.3397 96.6392 39.2757 96.8629 39.1479Z" fill="#167AA1"/>
<path d="M99.5793 34.3223V39.7231H99.068V34.3223H99.5793Z" fill="#167AA1"/>
<path d="M104.181 35.7283V39.691H103.67V38.9879C103.542 39.2436 103.382 39.4353 103.127 39.5631C102.871 39.691 102.615 39.7549 102.296 39.7549C101.816 39.7549 101.433 39.5951 101.145 39.3075C100.858 39.0199 100.698 38.5725 100.698 38.0292V35.6963H101.209V37.9653C101.209 38.4127 101.305 38.7322 101.529 38.9559C101.752 39.1796 102.04 39.3075 102.424 39.3075C102.807 39.3075 103.127 39.1796 103.35 38.9559C103.574 38.7003 103.702 38.3488 103.702 37.9014V35.7283H104.213H104.181Z" fill="#167AA1"/>
<path d="M106.003 36.1439V38.6046C106.003 38.8603 106.035 39.0201 106.131 39.116C106.226 39.2118 106.386 39.2438 106.61 39.2438H107.089V39.6912H106.546C106.195 39.6912 105.907 39.5953 105.747 39.4355C105.587 39.2757 105.491 38.9881 105.491 38.6046V36.1439H104.948V35.7285H105.491V34.7378H106.003V35.7285H107.089V36.1439H106.003Z" fill="#167AA1"/>
<path d="M107.92 34.8655C107.856 34.8016 107.824 34.7057 107.824 34.6098C107.824 34.514 107.856 34.4181 107.92 34.3542C107.984 34.2903 108.08 34.2583 108.176 34.2583C108.272 34.2583 108.368 34.2903 108.432 34.3542C108.496 34.4181 108.527 34.514 108.527 34.6098C108.527 34.7057 108.496 34.8016 108.432 34.8655C108.368 34.9294 108.272 34.9614 108.176 34.9614C108.08 34.9614 107.984 34.9294 107.92 34.8655ZM108.464 35.7284V39.6911H107.952V35.7284H108.464Z" fill="#167AA1"/>
<path d="M110.349 39.4994C110.061 39.3397 109.806 39.084 109.646 38.7964C109.486 38.4768 109.39 38.1253 109.39 37.7098C109.39 37.2944 109.486 36.9428 109.646 36.6233C109.806 36.3037 110.061 36.08 110.349 35.9202C110.637 35.7604 110.988 35.6646 111.372 35.6646C111.755 35.6646 112.075 35.7604 112.394 35.9202C112.682 36.08 112.938 36.3357 113.097 36.6233C113.257 36.9428 113.353 37.2944 113.353 37.7098C113.353 38.1253 113.257 38.4768 113.097 38.7964C112.938 39.1159 112.682 39.3397 112.362 39.4994C112.043 39.6592 111.723 39.7551 111.34 39.7551C110.956 39.7551 110.637 39.6592 110.317 39.4994H110.349ZM112.075 39.1479C112.298 39.0201 112.49 38.8603 112.618 38.6046C112.746 38.349 112.81 38.0614 112.81 37.7098C112.81 37.3583 112.746 37.0707 112.618 36.815C112.49 36.5594 112.298 36.3996 112.075 36.2717C111.851 36.1439 111.595 36.08 111.34 36.08C111.084 36.08 110.828 36.1439 110.605 36.2717C110.381 36.3996 110.189 36.5594 110.061 36.815C109.934 37.0707 109.87 37.3583 109.87 37.7098C109.87 38.0614 109.934 38.349 110.061 38.6046C110.189 38.8603 110.381 39.0201 110.605 39.1479C110.828 39.2757 111.052 39.3397 111.34 39.3397C111.627 39.3397 111.851 39.2757 112.075 39.1479Z" fill="#167AA1"/>
<path d="M117.316 36.0802C117.603 36.3678 117.763 36.8152 117.763 37.3585V39.6914H117.252V37.4224C117.252 36.975 117.156 36.6554 116.932 36.4317C116.709 36.208 116.421 36.0802 116.037 36.0802C115.654 36.0802 115.334 36.208 115.111 36.4317C114.887 36.6874 114.759 37.0389 114.759 37.4863V39.6594H114.248V35.6967H114.759V36.3678C114.887 36.1122 115.079 35.9524 115.302 35.8245C115.526 35.6967 115.814 35.6328 116.101 35.6328C116.581 35.6328 116.964 35.7926 117.252 36.0802H117.316Z" fill="#167AA1"/>
<path d="M119.137 39.4353C118.85 39.2116 118.69 38.924 118.658 38.5725H119.169C119.169 38.7962 119.297 38.9879 119.489 39.1157C119.681 39.2436 119.936 39.3075 120.256 39.3075C120.575 39.3075 120.735 39.2436 120.895 39.1157C121.055 38.9879 121.119 38.8281 121.119 38.6364C121.119 38.4446 121.087 38.3807 120.991 38.3168C120.895 38.2529 120.799 38.157 120.671 38.1251C120.543 38.0931 120.352 38.0292 120.128 37.9653C119.84 37.9014 119.585 37.8055 119.393 37.7416C119.201 37.6777 119.041 37.5498 118.914 37.39C118.786 37.2303 118.722 37.0385 118.722 36.7828C118.722 36.5272 118.786 36.3994 118.882 36.2396C118.978 36.0798 119.169 35.9519 119.361 35.8561C119.585 35.7602 119.808 35.6963 120.096 35.6963C120.511 35.6963 120.863 35.7922 121.119 36.0159C121.374 36.2396 121.534 36.5272 121.534 36.9107H121.023C121.023 36.687 120.927 36.4952 120.735 36.3354C120.575 36.2076 120.352 36.1118 120.032 36.1118C119.713 36.1118 119.553 36.1757 119.393 36.3035C119.233 36.4313 119.137 36.5911 119.137 36.7509C119.137 36.9107 119.169 37.0385 119.265 37.1344C119.361 37.2302 119.489 37.3261 119.617 37.3581C119.745 37.422 119.936 37.4859 120.192 37.5498C120.48 37.6137 120.703 37.7096 120.863 37.7735C121.023 37.8374 121.183 37.9653 121.31 38.0931C121.438 38.2209 121.502 38.4127 121.502 38.6683C121.502 38.892 121.438 39.0838 121.342 39.2436C121.215 39.4034 121.055 39.5312 120.863 39.6271C120.639 39.7229 120.416 39.7869 120.128 39.7869C119.681 39.7869 119.297 39.691 119.009 39.4673L119.137 39.4353Z" fill="#167AA1"/>
<path d="M125.113 39.2756H126.935V39.6911H124.602V34.6099H125.113V39.2756Z" fill="#167AA1"/>
<path d="M127.638 34.8655C127.574 34.8016 127.542 34.7057 127.542 34.6098C127.542 34.514 127.574 34.4181 127.638 34.3542C127.702 34.2903 127.798 34.2583 127.894 34.2583C127.989 34.2583 128.085 34.2903 128.149 34.3542C128.213 34.4181 128.245 34.514 128.245 34.6098C128.245 34.7057 128.213 34.8016 128.149 34.8655C128.085 34.9294 127.989 34.9614 127.894 34.9614C127.798 34.9614 127.702 34.9294 127.638 34.8655ZM128.181 35.7284V39.6911H127.67V35.7284H128.181Z" fill="#167AA1"/>
<path d="M135.18 36.0802C135.468 36.3678 135.627 36.8152 135.627 37.3585V39.6914H135.116V37.4224C135.116 36.975 135.02 36.6554 134.796 36.4317C134.573 36.208 134.317 36.0802 133.934 36.0802C133.55 36.0802 133.262 36.208 133.039 36.4637C132.815 36.7194 132.719 37.0709 132.719 37.5503V39.6914H132.208V37.4224C132.208 36.975 132.112 36.6554 131.888 36.4317C131.665 36.208 131.409 36.0802 131.025 36.0802C130.642 36.0802 130.354 36.208 130.131 36.4637C129.907 36.7194 129.811 37.0709 129.811 37.5503V39.6914H129.3V35.7287H129.811V36.3998C129.939 36.1441 130.131 35.9524 130.354 35.8245C130.578 35.6967 130.834 35.6328 131.121 35.6328C131.409 35.6328 131.76 35.7287 132.016 35.8885C132.272 36.0483 132.464 36.3039 132.591 36.6235C132.687 36.3039 132.879 36.0802 133.135 35.8885C133.39 35.7287 133.678 35.6328 134.029 35.6328C134.381 35.6328 134.86 35.7926 135.18 36.0802Z" fill="#167AA1"/>
<path d="M136.746 34.8655C136.682 34.8016 136.65 34.7057 136.65 34.6098C136.65 34.514 136.682 34.4181 136.746 34.3542C136.81 34.2903 136.906 34.2583 137.001 34.2583C137.097 34.2583 137.193 34.2903 137.257 34.3542C137.321 34.4181 137.353 34.514 137.353 34.6098C137.353 34.7057 137.321 34.8016 137.257 34.8655C137.193 34.9294 137.097 34.9614 137.001 34.9614C136.906 34.9614 136.81 34.9294 136.746 34.8655ZM137.257 35.7284V39.6911H136.746V35.7284H137.257Z" fill="#167AA1"/>
<path d="M139.079 36.1439V38.6046C139.079 38.8603 139.111 39.0201 139.207 39.116C139.302 39.2118 139.462 39.2438 139.686 39.2438H140.165V39.6912H139.622C139.27 39.6912 138.983 39.5953 138.823 39.4355C138.663 39.2757 138.567 38.9881 138.567 38.6046V36.1439H138.024V35.7285H138.567V34.7378H139.079V35.7285H140.165V36.1439H139.079Z" fill="#167AA1"/>
<path d="M144.607 37.9018H141.316C141.316 38.1894 141.412 38.4451 141.539 38.6688C141.667 38.8925 141.827 39.0523 142.051 39.1481C142.274 39.244 142.498 39.3079 142.754 39.3079C143.009 39.3079 143.361 39.212 143.585 39.0522C143.808 38.8925 143.968 38.6687 144.032 38.4131H144.575C144.48 38.7966 144.256 39.1162 143.968 39.3718C143.649 39.6275 143.265 39.7234 142.786 39.7234C142.306 39.7234 142.083 39.6275 141.795 39.4677C141.507 39.3079 141.252 39.0523 141.092 38.7646C140.932 38.477 140.836 38.0935 140.836 37.6781C140.836 37.2626 140.932 36.9111 141.092 36.5915C141.252 36.272 141.476 36.0483 141.795 35.8885C142.083 35.7287 142.434 35.6328 142.818 35.6328C143.201 35.6328 143.521 35.7287 143.808 35.8885C144.096 36.0483 144.32 36.2719 144.448 36.5596C144.575 36.8472 144.671 37.1348 144.671 37.4863C144.671 37.8379 144.671 37.8059 144.671 37.9018H144.607ZM143.904 36.7513C143.776 36.5276 143.617 36.3998 143.393 36.272C143.169 36.1761 142.946 36.1122 142.69 36.1122C142.306 36.1122 141.987 36.24 141.731 36.4637C141.476 36.7194 141.316 37.0389 141.284 37.4863H144.064C144.064 37.1987 144 36.9431 143.872 36.7194L143.904 36.7513Z" fill="#167AA1"/>
<path d="M145.566 36.6232C145.726 36.3036 145.95 36.0799 146.237 35.9201C146.525 35.7603 146.844 35.6645 147.228 35.6645C147.611 35.6645 147.899 35.7603 148.187 35.9201C148.474 36.0799 148.666 36.3036 148.794 36.5913V34.3223H149.305V39.7231H148.794V38.8283C148.666 39.1159 148.474 39.3396 148.187 39.4994C147.899 39.6592 147.579 39.755 147.196 39.755C146.812 39.755 146.493 39.6592 146.205 39.4994C145.918 39.3396 145.694 39.0839 145.534 38.7644C145.374 38.4448 145.278 38.0932 145.278 37.6778C145.278 37.2623 145.374 36.9108 145.534 36.5913L145.566 36.6232ZM148.57 36.8789C148.442 36.6232 148.25 36.4634 148.027 36.3036C147.803 36.1438 147.547 36.1119 147.292 36.1119C147.036 36.1119 146.748 36.1758 146.525 36.3036C146.301 36.4315 146.141 36.6232 145.982 36.8469C145.854 37.1026 145.79 37.3582 145.79 37.7098C145.79 38.0613 145.854 38.3169 145.982 38.5726C146.109 38.8283 146.301 39.02 146.525 39.1478C146.748 39.2757 147.004 39.3396 147.292 39.3396C147.579 39.3396 147.803 39.2757 148.027 39.1478C148.25 39.02 148.442 38.8283 148.57 38.5726C148.698 38.3169 148.762 38.0613 148.762 37.7417C148.762 37.4221 148.698 37.1345 148.57 36.9108V36.8789Z" fill="#167AA1"/>
</svg>
