<svg width="187" height="60" viewBox="0 0 187 60" fill="none" xmlns="http://www.w3.org/2000/svg">
<path d="M54.767 59.9601H11.1451C4.99335 59.9601 0 54.9667 0 48.8149V3.79497C0 1.71774 1.67776 0.039978 3.755 0.039978H45.8589C52.8496 0.039978 58.562 5.71241 58.562 12.743V56.2451C58.562 58.3223 56.8842 60 54.807 60" fill="white"/>
<path d="M0.519341 5.1132C0.319607 5.1132 0.159818 5.19309 0.039978 5.35287V6.47138C0.159818 6.63117 0.359553 6.75101 0.559287 6.75101C0.958755 6.75101 1.23838 6.3915 1.23838 5.91214C1.23838 5.43278 0.918808 5.07324 0.559287 5.07324L0.519341 5.1132ZM0.519341 6.3915C0.319607 6.3915 0.119873 6.19177 0.119873 5.91214C0.119873 5.63251 0.27966 5.43277 0.519341 5.43277C0.719075 5.43277 0.918809 5.63251 0.918809 5.91214C0.918809 6.15182 0.759022 6.3915 0.519341 6.3915Z" fill="white"/>
<path d="M3.95476 17.1372C3.75503 17.1372 3.59524 17.2171 3.4754 17.3769L0.039978 13.3023V13.7018L3.35556 17.6166L3.27567 17.9761C3.27567 18.4155 3.59524 18.815 3.95476 18.815C4.35423 18.815 4.63386 18.4554 4.63386 17.9761C4.63386 17.4967 4.31428 17.1372 3.95476 17.1372ZM3.95476 18.3356C3.79498 18.3356 3.63519 18.1758 3.63519 17.9761C3.63519 17.7763 3.75503 17.6166 3.95476 17.6166C4.1545 17.6166 4.27433 17.7763 4.27433 17.9761C4.27433 18.1758 4.1545 18.3356 3.95476 18.3356Z" fill="white"/>
<path d="M3.95473 20.0533C3.755 20.0533 3.59521 20.1332 3.47537 20.293L0 16.1785V16.5779L3.31558 20.4927L3.23569 20.8123C3.23569 21.2517 3.55526 21.6512 3.91478 21.6512C4.31425 21.6512 4.59388 21.2916 4.59388 20.8123C4.59388 20.3329 4.27431 19.9734 3.91478 19.9734L3.95473 20.0533ZM3.95473 21.2916C3.755 21.2916 3.59521 21.0919 3.59521 20.8522C3.59521 20.6125 3.755 20.4128 3.95473 20.4128C4.15446 20.4128 4.31425 20.6125 4.31425 20.8522C4.31425 21.0919 4.15446 21.2916 3.95473 21.2916Z" fill="white"/>
<path d="M3.95473 22.9294C3.755 22.9294 3.59521 23.0093 3.47537 23.1691L0 19.0546V19.454L3.31558 23.4088L3.23569 23.7683C3.23569 24.2077 3.55526 24.6072 3.91478 24.6072C4.31425 24.6072 4.59388 24.2477 4.59388 23.7683C4.59388 23.3289 4.27431 22.9294 3.91478 22.9294H3.95473ZM3.95473 24.1678C3.755 24.1678 3.59521 23.968 3.59521 23.7283C3.59521 23.4887 3.755 23.3289 3.95473 23.3289C4.15446 23.3289 4.31425 23.5286 4.31425 23.7283C4.31425 23.968 4.15446 24.1678 3.95473 24.1678Z" fill="white"/>
<path d="M3.95473 25.8056C3.755 25.8056 3.59521 25.8854 3.47537 26.0452L0 21.9307V22.3302L3.31558 26.2849V26.6045C3.27564 27.0439 3.55526 27.4434 3.95473 27.4434C4.3542 27.4434 4.63382 27.0839 4.63382 26.6045C4.63382 26.1251 4.31425 25.7656 3.95473 25.7656V25.8056ZM3.95473 27.0839C3.755 27.0839 3.59521 26.8841 3.59521 26.6444C3.59521 26.4048 3.755 26.205 3.95473 26.205C4.15446 26.205 4.31425 26.4048 4.31425 26.6444C4.31425 26.8841 4.15446 27.0839 3.95473 27.0839Z" fill="white"/>
<path d="M4.43404 1.39811C4.23431 1.39811 4.07453 1.47801 3.95468 1.63779L2.71634 0.199707C2.63644 0.199707 2.5166 0.239659 2.43671 0.279605L3.7949 1.87748L3.715 2.23699C3.715 2.67641 4.03458 3.07588 4.3941 3.07588C4.79357 3.07588 5.07319 2.71635 5.07319 2.23699C5.07319 1.79758 4.75362 1.39811 4.3941 1.39811H4.43404ZM4.43404 2.67641C4.23431 2.67641 4.03458 2.47667 4.03458 2.19704C4.03458 1.91742 4.19436 1.71769 4.43404 1.71769C4.63378 1.71769 4.83351 1.91742 4.83351 2.19704C4.83351 2.47667 4.67373 2.67641 4.43404 2.67641Z" fill="white"/>
<path d="M6.67111 29.8802V16.6578L0 8.82825V9.22771L6.27164 16.6578V29.8802C5.99201 29.9601 5.75234 30.2797 5.75234 30.6791C5.75234 31.0786 6.07191 31.518 6.43143 31.518C6.8309 31.518 7.11053 31.1585 7.11053 30.6791C7.11053 30.2797 6.91079 29.9601 6.63116 29.8802H6.67111ZM6.47138 31.1185C6.27164 31.1185 6.11186 30.9188 6.11186 30.6791C6.11186 30.4394 6.27164 30.2397 6.47138 30.2397C6.67111 30.2397 6.8309 30.4394 6.8309 30.6791C6.8309 30.9188 6.67111 31.1185 6.47138 31.1185Z" fill="white"/>
<path d="M7.31023 5.55259V2.23702L5.47268 0.079895H5.11316L6.95071 2.23702V5.55259C6.63114 5.63248 6.4314 5.95206 6.4314 6.35153C6.4314 6.75099 6.75098 7.19042 7.1105 7.19042C7.50997 7.19042 7.78959 6.83089 7.78959 6.35153C7.78959 5.99201 7.58986 5.67243 7.31023 5.55259ZM7.1105 6.79096C6.91076 6.79096 6.75098 6.59121 6.75098 6.35153C6.75098 6.11185 6.91076 5.91212 7.1105 5.91212C7.31023 5.91212 7.47002 6.11185 7.47002 6.35153C7.47002 6.59121 7.31023 6.79096 7.1105 6.79096Z" fill="white"/>
<path d="M9.02802 7.58992V0.958748L8.22909 0.039978H7.86957L8.6685 0.958748V7.58992C8.38888 7.66981 8.1492 7.98939 8.1492 8.38886C8.1492 8.82827 8.46877 9.22773 8.86824 9.22773C9.2677 9.22773 9.54733 8.86822 9.54733 8.38886C9.54733 8.02934 9.3476 7.70976 9.02802 7.58992ZM8.82829 8.8682C8.62856 8.8682 8.42882 8.66848 8.42882 8.38886C8.42882 8.10923 8.58861 7.90949 8.82829 7.90949C9.02802 7.90949 9.22776 8.10923 9.22776 8.38886C9.22776 8.62854 9.06797 8.8682 8.82829 8.8682Z" fill="white"/>
<path d="M9.42742 29.8802V15.4195L3.47535 8.42878V3.87485L1.1185 1.11853C1.0386 1.19842 0.998656 1.23837 0.918762 1.31826L3.11583 3.9148V8.46872L9.02795 15.4594V29.9201C8.74833 30 8.50865 30.3196 8.50865 30.7191C8.50865 31.1185 8.82822 31.558 9.18774 31.558C9.54726 31.558 9.86684 31.1984 9.86684 30.7191C9.86684 30.3595 9.6671 30.04 9.34753 29.9201L9.42742 29.8802ZM9.22769 31.0786C9.02795 31.0786 8.90812 30.8789 8.90812 30.6791C8.90812 30.4394 9.0679 30.2797 9.22769 30.2797C9.38748 30.2797 9.58721 30.4794 9.58721 30.6791C9.58721 30.8789 9.42742 31.0786 9.22769 31.0786Z" fill="white"/>
<path d="M12.5033 5.95206V1.39813L11.3449 0.079895H10.9854L12.1039 1.43808V5.99202C11.8242 6.07191 11.5846 6.39149 11.5846 6.79096C11.5846 7.19042 11.9041 7.62983 12.2636 7.62983C12.6631 7.62983 12.9427 7.27032 12.9427 6.79096C12.9427 6.31159 12.743 6.11186 12.4234 5.99202L12.5033 5.95206ZM12.3036 7.23036C12.0639 7.23036 11.9041 6.99067 11.9041 6.75099C11.9041 6.51131 12.1039 6.27163 12.3036 6.27163C12.5033 6.27163 12.743 6.47137 12.743 6.75099C12.743 7.03062 12.5433 7.23035 12.3036 7.2703V7.23036Z" fill="white"/>
<path d="M12.2237 29.8802V16.6578L17.0174 10.8655V0.039978H16.6578V10.8655L11.8642 16.6578V29.8802C11.5846 29.9601 11.3449 30.2797 11.3449 30.6791C11.3449 31.0786 11.6645 31.518 12.024 31.518C12.4235 31.518 12.7031 31.1585 12.7031 30.6791C12.7031 30.1998 12.5034 30 12.1838 29.8802H12.2237ZM12.024 31.1185C11.8243 31.1185 11.6645 30.9188 11.6645 30.6791C11.6645 30.4395 11.8243 30.2397 12.024 30.2397C12.2237 30.2397 12.3835 30.4395 12.3835 30.6791C12.3835 30.9188 12.2237 31.1185 12.024 31.1185Z" fill="white"/>
<path d="M14.9401 24.0879V17.0573L18.7351 12.5034V0.039978H18.3755V12.5034L14.6205 17.0573V24.0879C14.3409 24.2078 14.1412 24.4874 14.1412 24.8869C14.1412 25.3263 14.4608 25.7257 14.8203 25.7257C15.1798 25.7257 15.4994 25.3662 15.4994 24.8869C15.4994 24.4874 15.2597 24.1678 14.9401 24.0879ZM14.7803 25.2863C14.5806 25.2863 14.4607 25.1265 14.4607 24.8869C14.4607 24.6472 14.6205 24.4874 14.7803 24.4874C14.9401 24.4874 15.0999 24.6472 15.0999 24.8869C15.0999 25.0866 14.9401 25.2863 14.7803 25.2863Z" fill="white"/>
<path d="M18.0959 29.4408V21.5713L20.1332 19.0946V0.039978H19.7337V19.0946C19.7737 19.0946 17.6964 21.5713 17.6964 21.5713V29.4408C17.4168 29.5207 17.1771 29.8402 17.1771 30.2397C17.1771 30.6392 17.4967 31.0786 17.8562 31.0786C18.2557 31.0786 18.5353 30.7191 18.5353 30.2397C18.5353 29.8802 18.3356 29.5606 18.016 29.4408H18.0959ZM17.8962 30.6392C17.6964 30.6392 17.5366 30.4394 17.5366 30.2397C17.5366 30 17.6964 29.8402 17.8962 29.8402C18.0959 29.8402 18.2557 30.04 18.2557 30.2397C18.2557 30.4794 18.0959 30.6392 17.8962 30.6392Z" fill="white"/>
<path d="M21.2117 34.3942L21.1318 0.039978H20.7723L20.8522 34.3542C20.5326 34.4341 20.293 34.7537 20.293 35.1532C20.293 35.5926 20.6125 35.992 20.9721 35.992C21.3715 35.992 21.6512 35.6325 21.6512 35.1532C21.6512 34.6738 21.4514 34.4741 21.1318 34.3542L21.2117 34.3942ZM21.052 35.6325C20.8522 35.6325 20.6525 35.4328 20.6525 35.1532C20.6525 34.8735 20.8123 34.7137 21.052 34.7137C21.2916 34.7137 21.4514 34.9135 21.4514 35.1532C21.4514 35.3929 21.2916 35.6325 21.052 35.6325Z" fill="white"/>
<path d="M24.008 34.3941V29.0013L25.3662 27.3635V20.3329L22.5699 17.0572V0.079895H22.1704V17.0572L25.0066 20.3329V27.3635L23.6484 29.0013V34.3941C23.3688 34.474 23.1291 34.7936 23.1291 35.1931C23.1291 35.5925 23.4487 36.032 23.8082 36.032C24.2077 36.032 24.4873 35.6724 24.4873 35.1931C24.4873 34.8336 24.2876 34.514 23.968 34.3941H24.008ZM23.8082 35.5925C23.6085 35.5925 23.4487 35.3928 23.4487 35.1931C23.4487 34.9933 23.6085 34.7936 23.8082 34.7936C24.008 34.7936 24.1677 34.9933 24.1677 35.1931C24.1677 35.4328 24.008 35.5925 23.8082 35.5925Z" fill="white"/>
<path d="M26.7643 34.3542V19.8935L23.6085 16.1784V0H23.209V16.1784L26.3648 19.8935V34.3542C26.0852 34.4341 25.8855 34.7537 25.8855 35.1531C25.8855 35.5526 26.2051 35.992 26.5646 35.992C26.964 35.992 27.2437 35.6325 27.2437 35.1531C27.2437 34.6738 27.0439 34.474 26.7244 34.3542H26.7643ZM26.6045 35.5925C26.4048 35.5925 26.245 35.3928 26.245 35.1931C26.245 34.9933 26.4048 34.7936 26.6045 34.7936C26.8043 34.7936 26.964 34.9933 26.964 35.1931C26.964 35.3928 26.8043 35.5925 26.6045 35.5925Z" fill="white"/>
<path d="M29.5607 34.3542V33.9148L27.803 31.8375V19.4541L24.6472 15.739V0H24.2477V15.739L27.4035 19.4541V31.8375L29.1612 33.9148V34.3542C28.8416 34.4341 28.6419 34.7537 28.6419 35.1531C28.6419 35.5926 28.9615 35.992 29.321 35.992C29.7204 35.992 30.0001 35.6325 30.0001 35.1531C30.0001 34.7936 29.8003 34.474 29.4808 34.3542H29.5607ZM29.3609 35.5526C29.1612 35.5526 29.0014 35.3529 29.0014 35.1531C29.0014 34.9534 29.1612 34.7537 29.3609 34.7537C29.5607 34.7537 29.7204 34.9534 29.7204 35.1531C29.7204 35.3529 29.5607 35.5526 29.3609 35.5526Z" fill="white"/>
<path d="M30.3595 0.039978H29.0413C28.9614 0.159818 28.9214 0.31961 28.9214 0.519344C28.9214 0.958758 29.241 1.35822 29.6005 1.35822C30 1.35822 30.2796 0.998705 30.2796 0.519344L30.1997 0.159813L30.3196 0.039978H30.3595ZM29.6405 0.918811C29.4408 0.918811 29.281 0.719078 29.281 0.519344C29.281 0.31961 29.4408 0.119876 29.6005 0.119876C29.8003 0.119876 29.9201 0.31961 29.9601 0.519344C29.9601 0.759024 29.8003 0.918811 29.6405 0.918811Z" fill="white"/>
<path d="M31.2783 29.0014V20.293L26.4048 14.5406V0.039978H26.0053V14.5406L30.9188 20.293V28.9614C30.6391 29.0413 30.3995 29.3609 30.3995 29.7604C30.3995 30.1598 30.719 30.5992 31.0785 30.5992C31.478 30.5992 31.7576 30.2397 31.7576 29.7604C31.7576 29.281 31.5579 29.0813 31.2383 28.9614L31.2783 29.0014ZM31.0785 30.2397C30.8788 30.2397 30.6791 30.04 30.6791 29.8003C30.6791 29.5606 30.8389 29.3609 31.0785 29.3609C31.3182 29.3609 31.478 29.5606 31.478 29.8003C31.478 30.04 31.3182 30.2397 31.0785 30.2797V30.2397Z" fill="white"/>
<path d="M32.1172 34.3142L31.8375 34.3941L29.0013 31.0386V19.0945L25.486 14.98V0.079895H25.0865V14.98L28.6019 19.0945V31.0386L31.5979 34.5539C31.478 34.7137 31.3981 34.9135 31.3981 35.1531C31.3981 35.5926 31.7177 35.992 32.0772 35.992C32.4368 35.992 32.7563 35.6325 32.7563 35.1531C32.7563 34.6738 32.4368 34.3142 32.0772 34.3142H32.1172ZM32.1172 35.5126C31.9574 35.5126 31.7976 35.3529 31.7976 35.1531C31.7976 34.9534 31.9174 34.7936 32.1172 34.7936C32.3169 34.7936 32.4368 34.9534 32.4368 35.1531C32.4368 35.3529 32.3169 35.5126 32.1172 35.5126Z" fill="white"/>
<path d="M32.7963 0.0399492H32.4368L30.1199 2.79627C30 2.63649 29.8403 2.55659 29.6405 2.55659C29.2411 2.55659 28.9614 2.91611 28.9614 3.39547C28.9614 3.83489 29.281 4.23436 29.6405 4.23436C30.04 4.23436 30.3196 3.87483 30.3196 3.39547L30.2397 3.03595L32.7564 0L32.7963 0.0399492ZM29.6405 3.83489C29.4408 3.83489 29.2411 3.63515 29.2411 3.39547C29.2411 3.15579 29.4008 2.95606 29.6405 2.95606C29.8802 2.95606 30.04 3.15579 30.04 3.39547C30.04 3.63515 29.8802 3.83489 29.6405 3.83489Z" fill="white"/>
<path d="M34.0347 29.0013V21.9707L27.7631 14.5806V0.079895H27.3636V14.5806L33.6752 21.9707V29.0013C33.3956 29.0812 33.1559 29.4008 33.1559 29.8003C33.1559 30.2397 33.4754 30.6391 33.835 30.6391C34.2344 30.6391 34.5141 30.2796 34.5141 29.8003C34.5141 29.4407 34.3143 29.1212 33.9948 29.0013H34.0347ZM33.835 30.1997C33.6352 30.1997 33.4754 30 33.4754 29.7603C33.4754 29.5207 33.6352 29.3209 33.835 29.3209C34.0347 29.3209 34.1945 29.5207 34.1945 29.7603C34.1945 30 34.0347 30.1997 33.835 30.1997Z" fill="white"/>
<path d="M36.8309 29.0013V23.2091L30.1998 15.3795V6.31159L35.3928 0.079895H35.0333L29.8003 6.31159V15.3795L36.4315 23.2091V29.0013C36.1518 29.0812 35.9121 29.4008 35.9121 29.8003C35.9121 30.1997 36.2317 30.6391 36.5912 30.6391C36.9907 30.6391 37.2703 30.2796 37.2703 29.8003C37.2703 29.3209 37.0706 29.1212 36.751 29.0013H36.8309ZM36.6312 30.1198C36.4714 30.1198 36.3516 29.9601 36.3516 29.7603C36.3516 29.5606 36.4714 29.4008 36.6312 29.4008C36.791 29.4008 36.9108 29.5606 36.9108 29.7603C36.9108 29.9601 36.791 30.1198 36.6312 30.1198Z" fill="white"/>
<path d="M39.7071 14.1012C39.5073 14.1012 39.3475 14.1811 39.2277 14.3409L33.4754 7.51002L39.7071 0.039978H39.3475L33.1158 7.51002L39.0679 14.5806L38.988 14.9401C38.988 15.3795 39.3076 15.779 39.6671 15.779C40.0266 15.779 40.3462 15.4195 40.3462 14.9401C40.3462 14.5007 40.0266 14.1012 39.6671 14.1012H39.7071ZM39.7071 15.3795C39.5073 15.3795 39.3475 15.1798 39.3475 14.9401C39.3475 14.7004 39.5073 14.5007 39.7071 14.5007C39.9068 14.5007 40.0666 14.7004 40.0666 14.9401C40.0666 15.1798 39.9068 15.3795 39.7071 15.3795Z" fill="white"/>
<path d="M41.4248 12.024C41.225 12.024 41.0653 12.1039 40.9454 12.2637L35.8722 6.27166L41.0653 0.039978H40.7057L35.4727 6.27166L40.7457 12.5034L40.6658 12.8629C40.6658 13.3023 40.9854 13.7018 41.3449 13.7018C41.7044 13.7018 42.024 13.3422 42.024 12.8629C42.024 12.4235 41.7044 12.024 41.3449 12.024H41.4248ZM41.4248 13.3023C41.225 13.3023 41.0653 13.1026 41.0653 12.8629C41.0653 12.6232 41.225 12.4235 41.4248 12.4235C41.6245 12.4235 41.7843 12.6232 41.7843 12.8629C41.7843 13.1026 41.6245 13.3023 41.4248 13.3023Z" fill="white"/>
<path d="M41.4648 28.9215C41.265 28.9215 41.1052 29.0014 40.9854 29.1612L38.3489 26.0453V22.3303L32.0773 14.9401V5.87219L36.9108 0.039978H36.5513L31.6778 5.87219V14.9401L37.9494 22.3303V26.0453L40.7857 29.4008L40.7058 29.7604C40.7058 30.1998 41.0253 30.5992 41.3849 30.5992C41.7444 30.5992 42.064 30.2397 42.064 29.8003C42.064 29.3209 41.7444 28.9614 41.3849 28.9614L41.4648 28.9215ZM41.4648 30.1998C41.265 30.1998 41.1052 30 41.1052 29.7604C41.1052 29.5207 41.265 29.3209 41.4648 29.3209C41.6645 29.3209 41.8243 29.5207 41.8243 29.7604C41.8243 30 41.6645 30.1998 41.4648 30.1998Z" fill="white"/>
<path d="M43.1824 9.5473C42.9827 9.5473 42.8229 9.62721 42.7031 9.78699L38.6684 5.03332L42.8229 0.039978H42.4634L38.269 5.03332L42.5033 10.0267L42.4234 10.3862C42.4234 10.8256 42.743 11.2251 43.1025 11.2251C43.502 11.2251 43.7816 10.8656 43.7816 10.3862C43.7816 9.94678 43.4621 9.5473 43.1025 9.5473H43.1824ZM43.1824 10.7457C43.0226 10.7457 42.8629 10.5859 42.8629 10.3862C42.8629 10.1865 43.0226 9.98673 43.1824 9.98673C43.3422 9.98673 43.502 10.1465 43.502 10.3462C43.502 10.546 43.3822 10.7058 43.1824 10.7058V10.7457Z" fill="white"/>
<path d="M47.8562 0.199739C47.7364 0.199739 47.6565 0.199737 47.5366 0.15979L43.6218 4.83356C43.502 4.67378 43.3023 4.59388 43.1425 4.59388C42.743 4.59388 42.4634 4.9534 42.4634 5.43277C42.4634 5.91213 42.783 6.27164 43.1824 6.27164C43.5819 6.27164 43.8615 5.91213 43.8615 5.43277L43.7816 5.07323L47.8562 0.199739ZM43.1425 5.7923C42.9827 5.7923 42.8628 5.6325 42.8628 5.43277C42.8628 5.23303 42.9827 5.07323 43.1425 5.07323C43.3023 5.07323 43.4221 5.23303 43.4221 5.43277C43.4221 5.6325 43.3023 5.7923 43.1425 5.7923Z" fill="white"/>
<path d="M45.5793 5.43279L49.6139 0.599234C49.534 0.599234 49.4142 0.559295 49.3343 0.519348L45.2198 5.43279V12.4235L41.5846 16.8176C41.4648 16.6578 41.305 16.5779 41.1052 16.5779C40.7058 16.5779 40.4261 16.9375 40.4261 17.4168C40.4261 17.8562 40.7457 18.2557 41.1052 18.2557C41.4648 18.2557 41.7843 17.8962 41.7843 17.4168L41.7044 17.0573L45.5793 12.4235V5.43279ZM41.1052 17.7763C40.9055 17.7763 40.7857 17.6166 40.7857 17.3769C40.7857 17.1372 40.9455 16.9774 41.1052 16.9774C41.265 16.9774 41.4248 17.1372 41.4248 17.3769C41.4248 17.6166 41.265 17.7763 41.1052 17.7763Z" fill="white"/>
<path d="M46.9774 5.43277L50.6925 0.998681C50.6126 0.998681 50.5327 0.918792 50.4528 0.878845L46.6578 5.39283V15.2996L43.3822 19.2543C43.2624 19.0945 43.0626 19.0147 42.9028 19.0147C42.5034 19.0147 42.2238 19.3742 42.2238 19.8535C42.2238 20.3329 42.5433 20.6924 42.9028 20.6924C43.2624 20.6924 43.5819 20.3329 43.5819 19.8535L43.5021 19.494L47.0174 15.2996V5.39283L46.9774 5.43277ZM42.8629 20.253C42.7031 20.253 42.5433 20.0932 42.5433 19.8935C42.5433 19.6938 42.7031 19.534 42.8629 19.534C43.0227 19.534 43.1825 19.6938 43.1825 19.8935C43.1825 20.0932 43.0227 20.253 42.8629 20.253Z" fill="white"/>
<path d="M47.8962 22.3702V5.43275L51.3316 1.27829C51.2517 1.23835 51.1718 1.19839 51.0919 1.15845L47.5367 5.43275V22.3702C47.257 22.4501 47.0573 22.7696 47.0573 23.1691C47.0573 23.6085 47.3769 24.008 47.7364 24.008C48.0959 24.008 48.0959 23.9281 48.2158 23.7683C48.3356 23.6085 48.4155 23.4088 48.4155 23.1691C48.4155 22.8096 48.2158 22.49 47.8962 22.3702ZM47.6965 23.5286C47.5367 23.5286 47.3769 23.3688 47.3769 23.1292C47.3769 22.8895 47.5367 22.7297 47.6965 22.7297C47.8562 22.7297 48.016 22.8895 48.016 23.1292C48.016 23.3688 47.8562 23.5286 47.6965 23.5286Z" fill="white"/>
<path d="M50.3329 22.3702V4.59388C50.293 4.59388 52.53 1.91745 52.53 1.91745C52.4901 1.91745 52.4501 1.8775 52.3702 1.83756C52.3702 1.83756 52.3303 1.83755 52.2903 1.79761L49.9335 4.59388V22.3302C49.6538 22.4101 49.4541 22.7297 49.4541 23.1292C49.4541 23.5286 49.7737 23.9681 50.1332 23.9681C50.5327 23.9681 50.8123 23.6085 50.8123 23.1292C50.8123 22.7696 50.6126 22.4501 50.293 22.3302L50.3329 22.3702ZM50.1332 23.5686C49.9335 23.5686 49.7737 23.3688 49.7737 23.1292C49.7737 22.8895 49.9335 22.6898 50.1332 22.6898C50.3329 22.6898 50.4927 22.8895 50.4927 23.1292C50.4927 23.3688 50.3329 23.5686 50.1332 23.5686Z" fill="white"/>
<path d="M54.088 3.11585C54.0081 3.0759 53.9681 2.996 53.8882 2.95605L52.2904 4.87349C52.1705 4.71371 52.0107 4.63382 51.811 4.63382C51.4115 4.63382 51.1319 4.99333 51.1319 5.47269C51.1319 5.95206 51.4515 6.31159 51.811 6.31159C52.2105 6.31159 52.4901 5.95206 52.4901 5.47269L52.4102 5.11319L54.048 3.15579L54.088 3.11585ZM51.811 5.91212C51.5713 5.91212 51.4115 5.71238 51.4115 5.43276C51.4115 5.15313 51.6113 4.95339 51.811 4.95339C52.0507 4.95339 52.2105 5.15313 52.2105 5.43276C52.2105 5.71238 52.0107 5.91212 51.811 5.91212Z" fill="white"/>
<path d="M55.4061 4.39413C55.3662 4.31424 55.2863 4.27429 55.2463 4.1944L52.3302 7.70972C52.2104 7.54993 52.0106 7.47002 51.8508 7.47002C51.4514 7.47002 51.1718 7.82956 51.1718 8.30892C51.1718 8.74833 51.4913 9.14779 51.8508 9.14779C52.2503 9.14779 52.5299 8.78828 52.5299 8.30892L52.45 7.94939L55.4061 4.39413ZM51.8109 8.82822C51.5712 8.82822 51.3715 8.58855 51.3715 8.30892C51.3715 8.02929 51.5712 7.78962 51.8109 7.78962C52.0506 7.78962 52.2503 8.02929 52.2503 8.30892C52.2503 8.58855 52.0506 8.82822 51.8109 8.82822Z" fill="white"/>
<path d="M56.5646 5.95207C56.5246 5.87218 56.4447 5.7923 56.4048 5.7124L52.3302 10.5859C52.2104 10.4261 52.0506 10.3462 51.8508 10.3462C51.4514 10.3462 51.1718 10.7057 51.1718 11.1851C51.1718 11.6645 51.4913 12.024 51.8508 12.024C52.2104 12.024 52.5299 11.6645 52.5299 11.1851L52.45 10.8256L56.5646 5.91214V5.95207ZM51.8508 11.6645C51.6511 11.6645 51.4514 11.4647 51.4514 11.1851C51.4514 10.9055 51.6511 10.7057 51.8508 10.7057C52.0506 10.7057 52.2503 10.9055 52.2503 11.1851C52.2503 11.4647 52.0905 11.6645 51.8508 11.6645Z" fill="white"/>
<path d="M57.4834 7.70971C57.4834 7.70971 57.4834 7.66975 57.4834 7.62981C57.4834 7.62981 57.4834 7.58986 57.4834 7.54991C57.4834 7.50996 57.4435 7.47003 57.4035 7.39014L52.3703 13.4221C52.2504 13.2623 52.0507 13.1824 51.8909 13.1824C51.4914 13.1824 51.2118 13.5419 51.2118 14.0213C51.2118 14.5006 51.5314 14.8602 51.8909 14.8602C52.2904 14.8602 52.57 14.5006 52.57 14.0213L52.4901 13.6618L57.5234 7.66974L57.4834 7.70971ZM51.8509 14.5406C51.6113 14.5406 51.4515 14.3409 51.4515 14.0612C51.4515 13.7816 51.6512 13.5819 51.8509 13.5819C52.0906 13.5819 52.2504 13.7816 52.2504 14.0612C52.2504 14.3409 52.0906 14.5406 51.8509 14.5406Z" fill="white"/>
<path d="M58.5221 13.3822L54.088 18.6951C53.9681 18.5353 53.8083 18.4554 53.6086 18.4554C53.2091 18.4554 52.9295 18.815 52.9295 19.2943C52.9295 19.7737 53.2491 20.1332 53.6086 20.1332C54.0081 20.1332 54.2877 19.7737 54.2877 19.2943L54.2078 18.9348L58.5221 13.7817V13.3822ZM53.6086 19.7737C53.3689 19.7737 53.2091 19.5739 53.2091 19.2943C53.2091 19.0147 53.4089 18.8149 53.6086 18.8149C53.8483 18.8149 54.0081 19.0546 54.0081 19.2943C54.0081 19.534 53.8083 19.7737 53.6086 19.7737Z" fill="white"/>
<path d="M47.8163 33.6751H40.8655C40.7856 33.3156 40.506 33.0359 40.1864 33.0359C39.787 33.0359 39.5073 33.3955 39.5073 33.8748C39.5073 34.3542 39.8269 34.7137 40.1864 34.7137C40.5459 34.7137 40.7856 34.474 40.8655 34.1145H47.8163L58.522 21.2916V20.8922L47.8163 33.6751ZM40.1864 34.2743C39.9867 34.2743 39.8269 34.0746 39.8269 33.8748C39.8269 33.6352 39.9867 33.4754 40.1864 33.4754C40.3862 33.4754 40.5459 33.6751 40.5459 33.8748C40.5459 34.0746 40.3862 34.2743 40.1864 34.2743Z" fill="white"/>
<path d="M3.95473 25.8056C3.755 25.8056 3.59521 25.8854 3.47537 26.0452L0 21.9307V22.3302L3.31558 26.2849V26.6045C3.27564 27.0439 3.55526 27.4434 3.95473 27.4434C4.3542 27.4434 4.63382 27.0839 4.63382 26.6045C4.63382 26.1251 4.31425 25.7656 3.95473 25.7656V25.8056ZM3.95473 27.0839C3.755 27.0839 3.59521 26.8841 3.59521 26.6444C3.59521 26.4048 3.755 26.205 3.95473 26.205C4.15446 26.205 4.31425 26.4048 4.31425 26.6444C4.31425 26.8841 4.15446 27.0839 3.95473 27.0839Z" fill="#A6BBD6"/>
<path d="M9.02802 7.58992V0.958748L8.22909 0.039978H7.86957L8.6685 0.958748V7.58992C8.38888 7.66981 8.1492 7.98939 8.1492 8.38886C8.1492 8.82827 8.46877 9.22773 8.86824 9.22773C9.2677 9.22773 9.54733 8.86822 9.54733 8.38886C9.54733 8.02934 9.3476 7.70976 9.02802 7.58992ZM8.82829 8.8682C8.62856 8.8682 8.42882 8.66848 8.42882 8.38886C8.42882 8.10923 8.58861 7.90949 8.82829 7.90949C9.02802 7.90949 9.22776 8.10923 9.22776 8.38886C9.22776 8.62854 9.06797 8.8682 8.82829 8.8682Z" fill="#A6BBD6"/>
<path d="M6.67111 29.8802V16.6578L0 8.82825V9.22771L6.27164 16.6578V29.8802C5.99201 29.9601 5.75234 30.2797 5.75234 30.6791C5.75234 31.0786 6.07191 31.518 6.43143 31.518C6.8309 31.518 7.11053 31.1585 7.11053 30.6791C7.11053 30.2797 6.91079 29.9601 6.63116 29.8802H6.67111ZM6.47138 31.1185C6.27164 31.1185 6.11186 30.9188 6.11186 30.6791C6.11186 30.4394 6.27164 30.2397 6.47138 30.2397C6.67111 30.2397 6.8309 30.4394 6.8309 30.6791C6.8309 30.9188 6.67111 31.1185 6.47138 31.1185Z" fill="#A6BBD6"/>
<path d="M9.42742 29.8802V15.4195L3.47535 8.42878V3.87485L1.1185 1.11853C1.0386 1.19842 0.998656 1.23837 0.918762 1.31826L3.11583 3.9148V8.46872L9.02795 15.4594V29.9201C8.74833 30 8.50865 30.3196 8.50865 30.7191C8.50865 31.1185 8.82822 31.558 9.18774 31.558C9.54726 31.558 9.86684 31.1984 9.86684 30.7191C9.86684 30.3595 9.6671 30.04 9.34753 29.9201L9.42742 29.8802ZM9.22769 31.0786C9.02795 31.0786 8.90812 30.8789 8.90812 30.6791C8.90812 30.4394 9.0679 30.2797 9.22769 30.2797C9.38748 30.2797 9.58721 30.4794 9.58721 30.6791C9.58721 30.8789 9.42742 31.0786 9.22769 31.0786Z" fill="#A6BBD6"/>
<path d="M7.31023 5.55259V2.23702L5.47268 0.079895H5.11316L6.95071 2.23702V5.55259C6.63114 5.63248 6.4314 5.95206 6.4314 6.35153C6.4314 6.75099 6.75098 7.19042 7.1105 7.19042C7.50997 7.19042 7.78959 6.83089 7.78959 6.35153C7.78959 5.99201 7.58986 5.67243 7.31023 5.55259ZM7.1105 6.79096C6.91076 6.79096 6.75098 6.59121 6.75098 6.35153C6.75098 6.11185 6.91076 5.91212 7.1105 5.91212C7.31023 5.91212 7.47002 6.11185 7.47002 6.35153C7.47002 6.59121 7.31023 6.79096 7.1105 6.79096Z" fill="#A6BBD6"/>
<path d="M3.95473 22.9294C3.755 22.9294 3.59521 23.0093 3.47537 23.1691L0 19.0546V19.454L3.31558 23.4088L3.23569 23.7683C3.23569 24.2077 3.55526 24.6072 3.91478 24.6072C4.31425 24.6072 4.59388 24.2477 4.59388 23.7683C4.59388 23.3289 4.27431 22.9294 3.91478 22.9294H3.95473ZM3.95473 24.1678C3.755 24.1678 3.59521 23.968 3.59521 23.7283C3.59521 23.4887 3.755 23.3289 3.95473 23.3289C4.15446 23.3289 4.31425 23.5286 4.31425 23.7283C4.31425 23.968 4.15446 24.1678 3.95473 24.1678Z" fill="#A6BBD6"/>
<path d="M0.519341 5.1132C0.319607 5.1132 0.159818 5.19309 0.039978 5.35287V6.47138C0.159818 6.63117 0.359553 6.75101 0.559287 6.75101C0.958755 6.75101 1.23838 6.3915 1.23838 5.91214C1.23838 5.43278 0.918808 5.07324 0.559287 5.07324L0.519341 5.1132ZM0.519341 6.3915C0.319607 6.3915 0.119873 6.19177 0.119873 5.91214C0.119873 5.63251 0.27966 5.43277 0.519341 5.43277C0.719075 5.43277 0.918809 5.63251 0.918809 5.91214C0.918809 6.15182 0.759022 6.3915 0.519341 6.3915Z" fill="#A6BBD6"/>
<path d="M3.95473 20.0533C3.755 20.0533 3.59521 20.1332 3.47537 20.293L0 16.1785V16.5779L3.31558 20.4927L3.23569 20.8123C3.23569 21.2517 3.55526 21.6512 3.91478 21.6512C4.31425 21.6512 4.59388 21.2916 4.59388 20.8123C4.59388 20.3329 4.27431 19.9734 3.91478 19.9734L3.95473 20.0533ZM3.95473 21.2916C3.755 21.2916 3.59521 21.0919 3.59521 20.8522C3.59521 20.6125 3.755 20.4128 3.95473 20.4128C4.15446 20.4128 4.31425 20.6125 4.31425 20.8522C4.31425 21.0919 4.15446 21.2916 3.95473 21.2916Z" fill="#A6BBD6"/>
<path d="M3.95476 17.1372C3.75503 17.1372 3.59524 17.2171 3.4754 17.3769L0.039978 13.3023V13.7018L3.35556 17.6166L3.27567 17.9761C3.27567 18.4155 3.59524 18.815 3.95476 18.815C4.35423 18.815 4.63386 18.4554 4.63386 17.9761C4.63386 17.4967 4.31428 17.1372 3.95476 17.1372ZM3.95476 18.3356C3.79498 18.3356 3.63519 18.1758 3.63519 17.9761C3.63519 17.7763 3.75503 17.6166 3.95476 17.6166C4.1545 17.6166 4.27433 17.7763 4.27433 17.9761C4.27433 18.1758 4.1545 18.3356 3.95476 18.3356Z" fill="#A6BBD6"/>
<path d="M4.43404 1.39811C4.23431 1.39811 4.07453 1.47801 3.95468 1.63779L2.71634 0.199707C2.63644 0.199707 2.5166 0.239659 2.43671 0.279605L3.7949 1.87748L3.715 2.23699C3.715 2.67641 4.03458 3.07588 4.3941 3.07588C4.79357 3.07588 5.07319 2.71635 5.07319 2.23699C5.07319 1.79758 4.75362 1.39811 4.3941 1.39811H4.43404ZM4.43404 2.67641C4.23431 2.67641 4.03458 2.47667 4.03458 2.19704C4.03458 1.91742 4.19436 1.71769 4.43404 1.71769C4.63378 1.71769 4.83351 1.91742 4.83351 2.19704C4.83351 2.47667 4.67373 2.67641 4.43404 2.67641Z" fill="#A6BBD6"/>
<path d="M45.5793 5.43279L49.6139 0.599234C49.534 0.599234 49.4142 0.559295 49.3343 0.519348L45.2198 5.43279V12.4235L41.5846 16.8176C41.4648 16.6578 41.305 16.5779 41.1052 16.5779C40.7058 16.5779 40.4261 16.9375 40.4261 17.4168C40.4261 17.8562 40.7457 18.2557 41.1052 18.2557C41.4648 18.2557 41.7843 17.8962 41.7843 17.4168L41.7044 17.0573L45.5793 12.4235V5.43279ZM41.1052 17.7763C40.9055 17.7763 40.7857 17.6166 40.7857 17.3769C40.7857 17.1372 40.9455 16.9774 41.1052 16.9774C41.265 16.9774 41.4248 17.1372 41.4248 17.3769C41.4248 17.6166 41.265 17.7763 41.1052 17.7763Z" fill="#A6BBD6"/>
<path d="M41.4248 12.024C41.225 12.024 41.0653 12.1039 40.9454 12.2637L35.8722 6.27166L41.0653 0.039978H40.7057L35.4727 6.27166L40.7457 12.5034L40.6658 12.8629C40.6658 13.3023 40.9854 13.7018 41.3449 13.7018C41.7044 13.7018 42.024 13.3422 42.024 12.8629C42.024 12.4235 41.7044 12.024 41.3449 12.024H41.4248ZM41.4248 13.3023C41.225 13.3023 41.0653 13.1026 41.0653 12.8629C41.0653 12.6232 41.225 12.4235 41.4248 12.4235C41.6245 12.4235 41.7843 12.6232 41.7843 12.8629C41.7843 13.1026 41.6245 13.3023 41.4248 13.3023Z" fill="#A6BBD6"/>
<path d="M47.8562 0.199739C47.7364 0.199739 47.6565 0.199737 47.5366 0.15979L43.6218 4.83356C43.502 4.67378 43.3023 4.59388 43.1425 4.59388C42.743 4.59388 42.4634 4.9534 42.4634 5.43277C42.4634 5.91213 42.783 6.27164 43.1824 6.27164C43.5819 6.27164 43.8615 5.91213 43.8615 5.43277L43.7816 5.07323L47.8562 0.199739ZM43.1425 5.7923C42.9827 5.7923 42.8628 5.6325 42.8628 5.43277C42.8628 5.23303 42.9827 5.07323 43.1425 5.07323C43.3023 5.07323 43.4221 5.23303 43.4221 5.43277C43.4221 5.6325 43.3023 5.7923 43.1425 5.7923Z" fill="#A6BBD6"/>
<path d="M39.7071 14.1012C39.5073 14.1012 39.3475 14.1811 39.2277 14.3409L33.4754 7.51002L39.7071 0.039978H39.3475L33.1158 7.51002L39.0679 14.5806L38.988 14.9401C38.988 15.3795 39.3076 15.779 39.6671 15.779C40.0266 15.779 40.3462 15.4195 40.3462 14.9401C40.3462 14.5007 40.0266 14.1012 39.6671 14.1012H39.7071ZM39.7071 15.3795C39.5073 15.3795 39.3475 15.1798 39.3475 14.9401C39.3475 14.7004 39.5073 14.5007 39.7071 14.5007C39.9068 14.5007 40.0666 14.7004 40.0666 14.9401C40.0666 15.1798 39.9068 15.3795 39.7071 15.3795Z" fill="#A6BBD6"/>
<path d="M43.1824 9.5473C42.9827 9.5473 42.8229 9.62721 42.7031 9.78699L38.6684 5.03332L42.8229 0.039978H42.4634L38.269 5.03332L42.5033 10.0267L42.4234 10.3862C42.4234 10.8256 42.743 11.2251 43.1025 11.2251C43.502 11.2251 43.7816 10.8656 43.7816 10.3862C43.7816 9.94678 43.4621 9.5473 43.1025 9.5473H43.1824ZM43.1824 10.7457C43.0226 10.7457 42.8629 10.5859 42.8629 10.3862C42.8629 10.1865 43.0226 9.98673 43.1824 9.98673C43.3422 9.98673 43.502 10.1465 43.502 10.3462C43.502 10.546 43.3822 10.7058 43.1824 10.7058V10.7457Z" fill="#A6BBD6"/>
<path d="M41.4648 28.9215C41.265 28.9215 41.1052 29.0014 40.9854 29.1612L38.3489 26.0453V22.3303L32.0773 14.9401V5.87219L36.9108 0.039978H36.5513L31.6778 5.87219V14.9401L37.9494 22.3303V26.0453L40.7857 29.4008L40.7058 29.7604C40.7058 30.1998 41.0253 30.5992 41.3849 30.5992C41.7444 30.5992 42.064 30.2397 42.064 29.8003C42.064 29.3209 41.7444 28.9614 41.3849 28.9614L41.4648 28.9215ZM41.4648 30.1998C41.265 30.1998 41.1052 30 41.1052 29.7604C41.1052 29.5207 41.265 29.3209 41.4648 29.3209C41.6645 29.3209 41.8243 29.5207 41.8243 29.7604C41.8243 30 41.6645 30.1998 41.4648 30.1998Z" fill="#A6BBD6"/>
<path d="M36.8309 29.0013V23.2091L30.1998 15.3795V6.31159L35.3928 0.079895H35.0333L29.8003 6.31159V15.3795L36.4315 23.2091V29.0013C36.1518 29.0812 35.9121 29.4008 35.9121 29.8003C35.9121 30.1997 36.2317 30.6391 36.5912 30.6391C36.9907 30.6391 37.2703 30.2796 37.2703 29.8003C37.2703 29.3209 37.0706 29.1212 36.751 29.0013H36.8309ZM36.6312 30.1198C36.4714 30.1198 36.3516 29.9601 36.3516 29.7603C36.3516 29.5606 36.4714 29.4008 36.6312 29.4008C36.791 29.4008 36.9108 29.5606 36.9108 29.7603C36.9108 29.9601 36.791 30.1198 36.6312 30.1198Z" fill="#A6BBD6"/>
<path d="M50.3329 22.3702V4.59388C50.293 4.59388 52.53 1.91745 52.53 1.91745C52.4901 1.91745 52.4501 1.8775 52.3702 1.83756C52.3702 1.83756 52.3303 1.83755 52.2903 1.79761L49.9335 4.59388V22.3302C49.6538 22.4101 49.4541 22.7297 49.4541 23.1292C49.4541 23.5286 49.7737 23.9681 50.1332 23.9681C50.5327 23.9681 50.8123 23.6085 50.8123 23.1292C50.8123 22.7696 50.6126 22.4501 50.293 22.3302L50.3329 22.3702ZM50.1332 23.5686C49.9335 23.5686 49.7737 23.3688 49.7737 23.1292C49.7737 22.8895 49.9335 22.6898 50.1332 22.6898C50.3329 22.6898 50.4927 22.8895 50.4927 23.1292C50.4927 23.3688 50.3329 23.5686 50.1332 23.5686Z" fill="#A6BBD6"/>
<path d="M58.5221 13.3822L54.088 18.6951C53.9681 18.5353 53.8083 18.4554 53.6086 18.4554C53.2091 18.4554 52.9295 18.815 52.9295 19.2943C52.9295 19.7737 53.2491 20.1332 53.6086 20.1332C54.0081 20.1332 54.2877 19.7737 54.2877 19.2943L54.2078 18.9348L58.5221 13.7817V13.3822ZM53.6086 19.7737C53.3689 19.7737 53.2091 19.5739 53.2091 19.2943C53.2091 19.0147 53.4089 18.8149 53.6086 18.8149C53.8483 18.8149 54.0081 19.0546 54.0081 19.2943C54.0081 19.534 53.8083 19.7737 53.6086 19.7737Z" fill="#A6BBD6"/>
<path d="M57.4834 7.70975V7.66979C57.4834 7.66979 57.4834 7.62986 57.4834 7.58991C57.4834 7.54996 57.4435 7.51001 57.4035 7.43011L52.3703 13.4621C52.2504 13.3023 52.0507 13.2224 51.8909 13.2224C51.4914 13.2224 51.2118 13.5819 51.2118 14.0613C51.2118 14.5406 51.5314 14.9002 51.8909 14.9002C52.2904 14.9002 52.57 14.5406 52.57 14.0613L52.4901 13.7018L57.5234 7.70975H57.4834ZM51.8509 14.5406C51.6113 14.5406 51.4515 14.3409 51.4515 14.0613C51.4515 13.7816 51.6512 13.5819 51.8509 13.5819C52.0906 13.5819 52.2504 13.7816 52.2504 14.0613C52.2504 14.3409 52.0906 14.5406 51.8509 14.5406Z" fill="#A6BBD6"/>
<path d="M56.5646 5.95207C56.5246 5.87218 56.4447 5.7923 56.4048 5.7124L52.3302 10.5859C52.2104 10.4261 52.0506 10.3462 51.8508 10.3462C51.4514 10.3462 51.1718 10.7057 51.1718 11.1851C51.1718 11.6645 51.4913 12.024 51.8508 12.024C52.2104 12.024 52.5299 11.6645 52.5299 11.1851L52.45 10.8256L56.5646 5.91214V5.95207ZM51.8508 11.6645C51.6511 11.6645 51.4514 11.4647 51.4514 11.1851C51.4514 10.9055 51.6511 10.7057 51.8508 10.7057C52.0506 10.7057 52.2503 10.9055 52.2503 11.1851C52.2503 11.4647 52.0905 11.6645 51.8508 11.6645Z" fill="#A6BBD6"/>
<path d="M47.8163 33.6751H40.8655C40.7856 33.3156 40.506 33.0359 40.1864 33.0359C39.787 33.0359 39.5073 33.3955 39.5073 33.8748C39.5073 34.3542 39.8269 34.7137 40.1864 34.7137C40.5459 34.7137 40.7856 34.474 40.8655 34.1145H47.8163L58.522 21.2916V20.8922L47.8163 33.6751ZM40.1864 34.2743C39.9867 34.2743 39.8269 34.0746 39.8269 33.8748C39.8269 33.6352 39.9867 33.4754 40.1864 33.4754C40.3862 33.4754 40.5459 33.6751 40.5459 33.8748C40.5459 34.0746 40.3862 34.2743 40.1864 34.2743Z" fill="#A6BBD6"/>
<path d="M47.8962 22.3702V5.43275L51.3316 1.27829C51.2517 1.23835 51.1718 1.19839 51.0919 1.15845L47.5367 5.43275V22.3702C47.257 22.4501 47.0573 22.7696 47.0573 23.1691C47.0573 23.6085 47.3769 24.008 47.7364 24.008C48.0959 24.008 48.0959 23.9281 48.2158 23.7683C48.3356 23.6085 48.4155 23.4088 48.4155 23.1691C48.4155 22.8096 48.2158 22.49 47.8962 22.3702ZM47.6965 23.5286C47.5367 23.5286 47.3769 23.3688 47.3769 23.1292C47.3769 22.8895 47.5367 22.7297 47.6965 22.7297C47.8562 22.7297 48.016 22.8895 48.016 23.1292C48.016 23.3688 47.8562 23.5286 47.6965 23.5286Z" fill="#A6BBD6"/>
<path d="M46.9774 5.43277L50.6925 0.998681C50.6126 0.998681 50.5327 0.918792 50.4528 0.878845L46.6578 5.39283V15.2996L43.3822 19.2543C43.2624 19.0945 43.0626 19.0147 42.9028 19.0147C42.5034 19.0147 42.2238 19.3742 42.2238 19.8535C42.2238 20.3329 42.5433 20.6924 42.9028 20.6924C43.2624 20.6924 43.5819 20.3329 43.5819 19.8535L43.5021 19.494L47.0174 15.2996V5.39283L46.9774 5.43277ZM42.8629 20.253C42.7031 20.253 42.5433 20.0932 42.5433 19.8935C42.5433 19.6938 42.7031 19.534 42.8629 19.534C43.0227 19.534 43.1825 19.6938 43.1825 19.8935C43.1825 20.0932 43.0227 20.253 42.8629 20.253Z" fill="#A6BBD6"/>
<path d="M54.088 3.11585C54.0081 3.0759 53.9681 2.996 53.8882 2.95605L52.2904 4.87349C52.1705 4.71371 52.0107 4.63382 51.811 4.63382C51.4115 4.63382 51.1319 4.99333 51.1319 5.47269C51.1319 5.95206 51.4515 6.31159 51.811 6.31159C52.2105 6.31159 52.4901 5.95206 52.4901 5.47269L52.4102 5.11319L54.048 3.15579L54.088 3.11585ZM51.811 5.91212C51.5713 5.91212 51.4115 5.71238 51.4115 5.43276C51.4115 5.15313 51.6113 4.95339 51.811 4.95339C52.0507 4.95339 52.2105 5.15313 52.2105 5.43276C52.2105 5.71238 52.0107 5.91212 51.811 5.91212Z" fill="#A6BBD6"/>
<path d="M55.4061 4.39413C55.3662 4.31424 55.2863 4.27429 55.2463 4.1944L52.3302 7.70972C52.2104 7.54993 52.0106 7.47002 51.8508 7.47002C51.4514 7.47002 51.1718 7.82956 51.1718 8.30892C51.1718 8.74833 51.4913 9.14779 51.8508 9.14779C52.2503 9.14779 52.5299 8.78828 52.5299 8.30892L52.45 7.94939L55.4061 4.39413ZM51.8109 8.82822C51.5712 8.82822 51.3715 8.58855 51.3715 8.30892C51.3715 8.02929 51.5712 7.78962 51.8109 7.78962C52.0506 7.78962 52.2503 8.02929 52.2503 8.30892C52.2503 8.58855 52.0506 8.82822 51.8109 8.82822Z" fill="#A6BBD6"/>
<path d="M34.0347 29.0013V21.9707L27.7631 14.5806V0.079895H27.3636V14.5806L33.6752 21.9707V29.0013C33.3956 29.0812 33.1559 29.4008 33.1559 29.8003C33.1559 30.2397 33.4754 30.6391 33.835 30.6391C34.2344 30.6391 34.5141 30.2796 34.5141 29.8003C34.5141 29.4407 34.3143 29.1212 33.9948 29.0013H34.0347ZM33.835 30.1997C33.6352 30.1997 33.4754 30 33.4754 29.7603C33.4754 29.5207 33.6352 29.3209 33.835 29.3209C34.0347 29.3209 34.1945 29.5207 34.1945 29.7603C34.1945 30 34.0347 30.1997 33.835 30.1997Z" fill="#A6BBD6"/>
<path d="M14.9401 24.0879V17.0573L18.7351 12.5034V0.039978H18.3755V12.5034L14.6205 17.0573V24.0879C14.3409 24.2078 14.1412 24.4874 14.1412 24.8869C14.1412 25.3263 14.4608 25.7257 14.8203 25.7257C15.1798 25.7257 15.4994 25.3662 15.4994 24.8869C15.4994 24.4874 15.2597 24.1678 14.9401 24.0879ZM14.7803 25.2863C14.5806 25.2863 14.4607 25.1265 14.4607 24.8869C14.4607 24.6472 14.6205 24.4874 14.7803 24.4874C14.9401 24.4874 15.0999 24.6472 15.0999 24.8869C15.0999 25.0866 14.9401 25.2863 14.7803 25.2863Z" fill="#A6BBD6"/>
<path d="M18.0959 29.4408V21.5713L20.1332 19.0946V0.039978H19.7337V19.0946C19.7737 19.0946 17.6964 21.5713 17.6964 21.5713V29.4408C17.4168 29.5207 17.1771 29.8402 17.1771 30.2397C17.1771 30.6392 17.4967 31.0786 17.8562 31.0786C18.2557 31.0786 18.5353 30.7191 18.5353 30.2397C18.5353 29.8802 18.3356 29.5606 18.016 29.4408H18.0959ZM17.8962 30.6392C17.6964 30.6392 17.5366 30.4394 17.5366 30.2397C17.5366 30 17.6964 29.8402 17.8962 29.8402C18.0959 29.8402 18.2557 30.04 18.2557 30.2397C18.2557 30.4794 18.0959 30.6392 17.8962 30.6392Z" fill="#A6BBD6"/>
<path d="M26.7643 34.3542V19.8935L23.6085 16.1784V0H23.209V16.1784L26.3648 19.8935V34.3542C26.0852 34.4341 25.8855 34.7537 25.8855 35.1531C25.8855 35.5526 26.2051 35.992 26.5646 35.992C26.964 35.992 27.2437 35.6325 27.2437 35.1531C27.2437 34.6738 27.0439 34.474 26.7244 34.3542H26.7643ZM26.6045 35.5925C26.4048 35.5925 26.245 35.3928 26.245 35.1931C26.245 34.9933 26.4048 34.7936 26.6045 34.7936C26.8043 34.7936 26.964 34.9933 26.964 35.1931C26.964 35.3928 26.8043 35.5925 26.6045 35.5925Z" fill="#A6BBD6"/>
<path d="M24.008 34.3941V29.0013L25.3662 27.3635V20.3329L22.5699 17.0572V0.079895H22.1704V17.0572L25.0066 20.3329V27.3635L23.6484 29.0013V34.3941C23.3688 34.474 23.1291 34.7936 23.1291 35.1931C23.1291 35.5925 23.4487 36.032 23.8082 36.032C24.2077 36.032 24.4873 35.6724 24.4873 35.1931C24.4873 34.8336 24.2876 34.514 23.968 34.3941H24.008ZM23.8082 35.5925C23.6085 35.5925 23.4487 35.3928 23.4487 35.1931C23.4487 34.9933 23.6085 34.7936 23.8082 34.7936C24.008 34.7936 24.1677 34.9933 24.1677 35.1931C24.1677 35.4328 24.008 35.5925 23.8082 35.5925Z" fill="#A6BBD6"/>
<path d="M21.2117 34.3942L21.1318 0.039978H20.7723L20.8522 34.3542C20.5326 34.4341 20.293 34.7537 20.293 35.1532C20.293 35.5926 20.6125 35.992 20.9721 35.992C21.3715 35.992 21.6512 35.6325 21.6512 35.1532C21.6512 34.6738 21.4514 34.4741 21.1318 34.3542L21.2117 34.3942ZM21.052 35.6325C20.8522 35.6325 20.6525 35.4328 20.6525 35.1532C20.6525 34.8735 20.8123 34.7137 21.052 34.7137C21.2916 34.7137 21.4514 34.9135 21.4514 35.1532C21.4514 35.3929 21.2916 35.6325 21.052 35.6325Z" fill="#A6BBD6"/>
<path d="M12.2237 29.8802V16.6578L17.0174 10.8655V0.039978H16.6578V10.8655L11.8642 16.6578V29.8802C11.5846 29.9601 11.3449 30.2797 11.3449 30.6791C11.3449 31.0786 11.6645 31.518 12.024 31.518C12.4235 31.518 12.7031 31.1585 12.7031 30.6791C12.7031 30.1998 12.5034 30 12.1838 29.8802H12.2237ZM12.024 31.1185C11.8243 31.1185 11.6645 30.9188 11.6645 30.6791C11.6645 30.4395 11.8243 30.2397 12.024 30.2397C12.2237 30.2397 12.3835 30.4395 12.3835 30.6791C12.3835 30.9188 12.2237 31.1185 12.024 31.1185Z" fill="#A6BBD6"/>
<path d="M32.1172 34.3142L31.8375 34.3941L29.0013 31.0386V19.0945L25.486 14.98V0.079895H25.0865V14.98L28.6019 19.0945V31.0386L31.5979 34.5539C31.478 34.7137 31.3981 34.9135 31.3981 35.1531C31.3981 35.5926 31.7177 35.992 32.0772 35.992C32.4368 35.992 32.7563 35.6325 32.7563 35.1531C32.7563 34.6738 32.4368 34.3142 32.0772 34.3142H32.1172ZM32.1172 35.5126C31.9574 35.5126 31.7976 35.3529 31.7976 35.1531C31.7976 34.9534 31.9174 34.7936 32.1172 34.7936C32.3169 34.7936 32.4368 34.9534 32.4368 35.1531C32.4368 35.3529 32.3169 35.5126 32.1172 35.5126Z" fill="#A6BBD6"/>
<path d="M30.3595 0.039978H29.0413C28.9614 0.159818 28.9214 0.31961 28.9214 0.519344C28.9214 0.958758 29.241 1.35822 29.6005 1.35822C30 1.35822 30.2796 0.998705 30.2796 0.519344L30.1997 0.159813L30.3196 0.039978H30.3595ZM29.6405 0.918811C29.4408 0.918811 29.281 0.719078 29.281 0.519344C29.281 0.31961 29.4408 0.119876 29.6005 0.119876C29.8003 0.119876 29.9201 0.31961 29.9601 0.519344C29.9601 0.759024 29.8003 0.918811 29.6405 0.918811Z" fill="#A6BBD6"/>
<path d="M29.5607 34.3542V33.9148L27.803 31.8375V19.4541L24.6472 15.739V0H24.2477V15.739L27.4035 19.4541V31.8375L29.1612 33.9148V34.3542C28.8416 34.4341 28.6419 34.7537 28.6419 35.1531C28.6419 35.5926 28.9615 35.992 29.321 35.992C29.7204 35.992 30.0001 35.6325 30.0001 35.1531C30.0001 34.7936 29.8003 34.474 29.4808 34.3542H29.5607ZM29.3609 35.5526C29.1612 35.5526 29.0014 35.3529 29.0014 35.1531C29.0014 34.9534 29.1612 34.7537 29.3609 34.7537C29.5607 34.7537 29.7204 34.9534 29.7204 35.1531C29.7204 35.3529 29.5607 35.5526 29.3609 35.5526Z" fill="#A6BBD6"/>
<path d="M32.7963 0.0399492H32.4368L30.1199 2.79627C30 2.63649 29.8403 2.55659 29.6405 2.55659C29.2411 2.55659 28.9614 2.91611 28.9614 3.39547C28.9614 3.83489 29.281 4.23436 29.6405 4.23436C30.04 4.23436 30.3196 3.87483 30.3196 3.39547L30.2397 3.03595L32.7564 0L32.7963 0.0399492ZM29.6405 3.83489C29.4408 3.83489 29.2411 3.63515 29.2411 3.39547C29.2411 3.15579 29.4008 2.95606 29.6405 2.95606C29.8802 2.95606 30.04 3.15579 30.04 3.39547C30.04 3.63515 29.8802 3.83489 29.6405 3.83489Z" fill="#A6BBD6"/>
<path d="M31.2783 29.0014V20.293L26.4048 14.5406V0.039978H26.0053V14.5406L30.9188 20.293V28.9614C30.6391 29.0413 30.3995 29.3609 30.3995 29.7604C30.3995 30.1598 30.719 30.5992 31.0785 30.5992C31.478 30.5992 31.7576 30.2397 31.7576 29.7604C31.7576 29.281 31.5579 29.0813 31.2383 28.9614L31.2783 29.0014ZM31.0785 30.2397C30.8788 30.2397 30.6791 30.04 30.6791 29.8003C30.6791 29.5606 30.8389 29.3609 31.0785 29.3609C31.3182 29.3609 31.478 29.5606 31.478 29.8003C31.478 30.04 31.3182 30.2397 31.0785 30.2797V30.2397Z" fill="#A6BBD6"/>
<path d="M12.5033 5.95206V1.39813L11.3449 0.079895H10.9854L12.1039 1.43808V5.99202C11.8242 6.07191 11.5846 6.39149 11.5846 6.79096C11.5846 7.19042 11.9041 7.62983 12.2636 7.62983C12.6631 7.62983 12.9427 7.27032 12.9427 6.79096C12.9427 6.31159 12.743 6.11186 12.4234 5.99202L12.5033 5.95206ZM12.3036 7.23036C12.0639 7.23036 11.9041 6.99067 11.9041 6.75099C11.9041 6.51131 12.1039 6.27163 12.3036 6.27163C12.5033 6.27163 12.743 6.47137 12.743 6.75099C12.743 7.03062 12.5433 7.23035 12.3036 7.2703V7.23036Z" fill="#A6BBD6"/>
<path d="M46.0187 44.0213C44.6205 47.1771 43.2224 48.5353 42.8229 48.1757C42.2637 47.6564 41.6645 45.5393 41.1452 42.7829C41.6645 42.1438 42.1438 41.5446 42.6232 40.9454C44.261 38.8682 46.2983 36.3116 47.0972 36.0319C48.2956 35.7523 47.7763 40.0665 46.0187 44.0213ZM9.30759 39.5073L8.94807 39.1478C6.83089 36.0319 10.2264 32.5965 13.3822 34.7536L13.7417 35.1132C15.8589 38.229 12.4634 41.6644 9.30759 39.5073ZM24.5673 40.7457C24.5673 42.2636 23.3289 43.502 21.8509 43.502C20.3728 43.502 19.0946 42.2636 19.0946 40.7457C19.0946 39.2277 20.3329 37.9893 21.8509 37.9893C23.3689 37.9893 24.5673 39.2277 24.5673 40.7457ZM48.016 33.755C45.8589 32.7563 43.8615 35.3528 40.506 39.5872C40.1465 37.51 39.8269 35.3928 39.5073 33.4354C37.51 20.6524 36.1119 12.8229 32.4368 12.8229C28.7617 12.8229 27.0839 17.0572 21.8109 36.1518C19.2943 36.1518 17.2171 38.229 17.2171 40.7457C17.2171 43.2623 19.2943 45.3395 21.8109 45.3395C24.3276 45.3395 26.4048 43.2623 26.4048 40.7457C26.4048 38.229 25.526 37.6697 24.2077 36.8309C26.285 29.2809 27.4834 26.3249 28.7617 21.6911C30.7191 14.7004 31.9175 15.2596 32.1172 15.2596C32.1571 15.2596 33.6751 15.2197 34.7936 21.0919C36.2717 28.7217 38.9481 44.3808 38.9481 44.3808C38.9481 44.3808 38.3489 43.1425 37.7497 42.9028C33.4754 48.016 27.763 53.5686 20.9321 53.5686C14.1012 53.5686 13.0226 47.0173 12.5832 42.0239C15.6591 41.225 17.6165 37.6298 15.6192 34.1544C15.2996 33.5552 14.7803 33.0759 14.221 32.7563C10.2264 30.4793 6.15179 33.3156 6.15179 37.0706C6.15179 40.8255 7.86951 41.5446 10.1465 42.0639C10.3862 45.0599 11.1851 48.1358 12.4634 50.4527C14.4607 54.0879 17.3768 56.0053 20.9321 56.0053C28.482 56.0053 34.5539 50.4128 39.1079 45.0998C39.8669 48.2556 40.6658 49.8935 41.7843 50.3728C43.9414 51.2516 46.3382 49.2144 48.2157 44.9401C50.1731 40.466 50.9321 35.0333 47.9761 33.6751" fill="#167AA1"/>
<path d="M72.3037 36.9108H75.3396L78.4555 29.9201H92.8363L95.9122 36.9108H99.108L87.084 10.3063H84.2877L72.2637 36.9108H72.3037ZM79.6539 27.2437L85.6858 13.7817L91.6779 27.2437H79.6539ZM115.087 37.3503C119.521 37.3503 123.236 35.5127 125.673 33.3156V22.7697H114.767V25.4461H122.796V31.9974C120.999 33.4754 118.203 34.6339 115.167 34.6339C108.735 34.6339 104.701 29.9601 104.701 23.6485V23.5686C104.701 17.6965 108.895 12.743 114.727 12.743C120.559 12.743 120.719 13.9814 122.756 15.7391L124.674 13.4621C122.037 11.2251 119.281 9.94678 114.807 9.94678C106.898 9.94678 101.545 16.3782 101.545 23.6086V23.6885C101.545 31.2384 106.698 37.2704 114.967 37.2704M132.663 36.9108H135.659V10.506H132.663V36.9108ZM143.369 36.9108H161.225V34.1545H146.365V10.506H143.369V36.9108ZM166.738 36.9108H186.032V34.1945H169.734V24.9668H184.155V22.2504H169.734V13.2224H185.832V10.506H166.738V36.9108Z" fill="white"/>
<path d="M75.5793 46.8975C75.819 47.1771 75.9389 47.5367 75.9389 47.9361C75.9389 48.3356 75.859 48.5353 75.6992 48.815C75.5394 49.0546 75.2997 49.2943 74.9801 49.4142C74.6606 49.534 74.301 49.6538 73.8616 49.6538H71.6646V43.3023H73.8217C74.4608 43.3023 74.9402 43.4621 75.2997 43.7417C75.6193 44.0214 75.819 44.4208 75.819 44.9002C75.819 45.3795 75.6992 45.6192 75.4994 45.8589C75.2997 46.0986 75.0201 46.2584 74.7005 46.3782C75.06 46.4581 75.3796 46.6179 75.6193 46.9375L75.5793 46.8975ZM72.3437 46.0586H73.8217C74.2611 46.0586 74.5807 45.9388 74.8203 45.7391C75.06 45.5393 75.1799 45.2597 75.1799 44.9002C75.1799 44.5407 75.06 44.261 74.8203 44.0613C74.5807 43.8616 74.2611 43.7417 73.7817 43.7417H72.3437V46.0187V46.0586ZM74.9402 48.775C75.1799 48.5753 75.3397 48.2557 75.3397 47.8562C75.3397 47.4568 75.2198 47.1772 74.9402 46.9375C74.6606 46.6978 74.301 46.5779 73.8616 46.5779H72.3836V49.0546H73.9016C74.3809 49.0546 74.7405 48.9348 74.9801 48.7351L74.9402 48.775Z" fill="white"/>
<path d="M81.4515 44.6605V49.6139H80.8123V48.7351C80.6525 49.0547 80.4528 49.2943 80.1332 49.4541C79.8137 49.6139 79.4941 49.6938 79.0946 49.6938C78.4954 49.6938 78.0161 49.4941 77.6565 49.1345C77.297 48.775 77.0973 48.2158 77.0973 47.5367V44.6205H77.7364V47.4568C77.7364 48.016 77.8563 48.4155 78.1359 48.6951C78.4155 48.9747 78.7751 49.1345 79.2544 49.1345C79.7338 49.1345 80.1332 48.9747 80.4129 48.6951C80.6925 48.3755 80.8523 47.9361 80.8523 47.3769V44.6605H81.4914H81.4515Z" fill="white"/>
<path d="M83.2091 49.2943C82.8496 49.0147 82.6499 48.6552 82.6099 48.2158H83.2491C83.2491 48.4954 83.4089 48.7351 83.6485 48.8949C83.8882 49.0546 84.2078 49.1345 84.6073 49.1345C85.0067 49.1345 85.2065 49.0546 85.4062 48.8949C85.6059 48.7351 85.6858 48.5353 85.6858 48.2956C85.6858 48.056 85.6459 47.9761 85.526 47.8962C85.4062 47.8163 85.2864 47.6965 85.1266 47.6565C84.9668 47.6166 84.7271 47.5367 84.4475 47.4568C84.088 47.3769 83.7684 47.257 83.5287 47.1771C83.289 47.0973 83.0893 46.9375 82.9295 46.7377C82.7697 46.538 82.6898 46.2983 82.6898 45.9787C82.6898 45.6592 82.7697 45.4994 82.8896 45.2996C83.0094 45.0999 83.2491 44.9401 83.4888 44.8203C83.7684 44.7004 84.048 44.6205 84.4075 44.6205C84.9268 44.6205 85.3663 44.7404 85.6858 45.02C86.0054 45.2996 86.2051 45.6592 86.2051 46.1385H85.566C85.566 45.8589 85.4461 45.6192 85.2065 45.4195C85.0067 45.2597 84.7271 45.1399 84.3276 45.1399C83.9282 45.1399 83.7284 45.2198 83.5287 45.3795C83.329 45.5393 83.2091 45.7391 83.2091 45.9388C83.2091 46.1385 83.2491 46.2983 83.3689 46.4181C83.4888 46.538 83.6485 46.6578 83.8083 46.6978C83.9681 46.7777 84.2078 46.8576 84.5274 46.9375C84.8869 47.0174 85.1665 47.1372 85.3663 47.2171C85.566 47.297 85.7657 47.4568 85.9255 47.6166C86.0853 47.7763 86.1652 48.016 86.1652 48.3356C86.1652 48.6152 86.0853 48.8549 85.9655 49.0546C85.8057 49.2544 85.6059 49.4142 85.3663 49.534C85.0866 49.6539 84.807 49.7337 84.4475 49.7337C83.8882 49.7337 83.4089 49.6139 83.0493 49.3343L83.2091 49.2943Z" fill="white"/>
<path d="M87.5234 43.5819C87.4435 43.502 87.4036 43.3822 87.4036 43.2624C87.4036 43.1425 87.4435 43.0227 87.5234 42.9428C87.6033 42.8629 87.7231 42.8229 87.843 42.8229C87.9628 42.8229 88.0827 42.8629 88.1626 42.9428C88.2425 43.0227 88.2824 43.1425 88.2824 43.2624C88.2824 43.3822 88.2425 43.502 88.1626 43.5819C88.0827 43.6618 87.9628 43.7018 87.843 43.7018C87.7231 43.7018 87.6033 43.6618 87.5234 43.5819ZM88.1626 44.6605V49.6139H87.5234V44.6605H88.1626Z" fill="white"/>
<path d="M93.3955 45.0999C93.7551 45.4594 93.9548 46.0187 93.9548 46.6978V49.6139H93.3157V46.7777C93.3157 46.2184 93.1958 45.8189 92.9162 45.5393C92.6366 45.2597 92.277 45.0999 91.7977 45.0999C91.3183 45.0999 90.9189 45.2597 90.6392 45.5393C90.3596 45.8589 90.1998 46.2983 90.1998 46.8576V49.5739H89.5607V44.6205H90.1998V45.4594C90.3596 45.1398 90.5993 44.9401 90.8789 44.7803C91.1585 44.6205 91.5181 44.5406 91.8776 44.5406C92.4768 44.5406 92.9561 44.7404 93.3157 45.0999H93.3955Z" fill="white"/>
<path d="M99.8669 47.3769H95.7524C95.7524 47.7364 95.8722 48.056 96.032 48.3356C96.1918 48.6152 96.3915 48.815 96.6712 48.9348C96.9508 49.0546 97.2304 49.1345 97.55 49.1345C97.8696 49.1345 98.309 49.0147 98.5886 48.8149C98.8682 48.6152 99.068 48.3356 99.1479 48.016H99.827C99.7071 48.4954 99.4275 48.8948 99.068 49.2144C98.6685 49.534 98.1891 49.6538 97.5899 49.6538C96.9907 49.6538 96.7111 49.534 96.3516 49.3343C95.9921 49.1345 95.6725 48.8149 95.4728 48.4554C95.273 48.0959 95.1532 47.6165 95.1532 47.0972C95.1532 46.5779 95.273 46.1385 95.4728 45.7391C95.6725 45.3396 95.9521 45.06 96.3516 44.8602C96.7111 44.6605 97.1505 44.5406 97.6299 44.5406C98.1093 44.5406 98.5087 44.6605 98.8682 44.8602C99.2278 45.06 99.5074 45.3396 99.6672 45.6991C99.827 46.0586 99.9468 46.4181 99.9468 46.8576C99.9468 47.297 99.9468 47.257 99.9468 47.3769H99.8669ZM98.9881 45.9388C98.8283 45.6592 98.6286 45.4994 98.3489 45.3396C98.0693 45.2197 97.7897 45.1399 97.4701 45.1399C96.9907 45.1399 96.5913 45.2996 96.2717 45.5793C95.9521 45.8988 95.7524 46.2983 95.7125 46.8576H99.1878C99.1878 46.498 99.1079 46.1785 98.9481 45.8988L98.9881 45.9388Z" fill="white"/>
<path d="M101.345 49.2943C100.985 49.0147 100.786 48.6552 100.746 48.2158H101.385C101.385 48.4954 101.545 48.7351 101.784 48.8949C102.024 49.0546 102.344 49.1345 102.743 49.1345C103.143 49.1345 103.342 49.0546 103.542 48.8949C103.742 48.7351 103.822 48.5353 103.822 48.2956C103.822 48.056 103.782 47.9761 103.662 47.8962C103.542 47.8163 103.422 47.6965 103.262 47.6565C103.103 47.6166 102.863 47.5367 102.583 47.4568C102.224 47.3769 101.904 47.257 101.665 47.1771C101.425 47.0973 101.225 46.9375 101.065 46.7377C100.906 46.538 100.826 46.2983 100.826 45.9787C100.826 45.6592 100.906 45.4994 101.025 45.2996C101.145 45.0999 101.385 44.9401 101.625 44.8203C101.904 44.7004 102.184 44.6205 102.543 44.6205C103.063 44.6205 103.502 44.7404 103.822 45.02C104.141 45.2996 104.341 45.6592 104.341 46.1385H103.702C103.702 45.8589 103.582 45.6192 103.342 45.4195C103.143 45.2597 102.863 45.1399 102.463 45.1399C102.064 45.1399 101.864 45.2198 101.665 45.3795C101.465 45.5393 101.345 45.7391 101.345 45.9388C101.345 46.1385 101.385 46.2983 101.505 46.4181C101.625 46.538 101.784 46.6578 101.944 46.6978C102.104 46.7777 102.344 46.8576 102.663 46.9375C103.023 47.0174 103.302 47.1372 103.502 47.2171C103.702 47.297 103.902 47.4568 104.061 47.6166C104.221 47.7763 104.301 48.016 104.301 48.3356C104.301 48.6152 104.221 48.8549 104.101 49.0546C103.942 49.2544 103.742 49.4142 103.502 49.534C103.222 49.6539 102.943 49.7337 102.583 49.7337C102.024 49.7337 101.545 49.6139 101.185 49.3343L101.345 49.2943Z" fill="white"/>
<path d="M105.979 49.2943C105.619 49.0147 105.42 48.6552 105.38 48.2158H106.019C106.019 48.4954 106.179 48.7351 106.418 48.8949C106.658 49.0546 106.977 49.1345 107.377 49.1345C107.776 49.1345 107.976 49.0546 108.176 48.8949C108.376 48.7351 108.455 48.5353 108.455 48.2956C108.455 48.056 108.416 47.9761 108.296 47.8962C108.176 47.8163 108.056 47.6965 107.896 47.6565C107.736 47.6166 107.497 47.5367 107.217 47.4568C106.858 47.3769 106.538 47.257 106.298 47.1771C106.059 47.0973 105.859 46.9375 105.699 46.7377C105.539 46.538 105.459 46.2983 105.459 45.9787C105.459 45.6592 105.539 45.4994 105.659 45.2996C105.779 45.0999 106.019 44.9401 106.258 44.8203C106.538 44.7004 106.818 44.6205 107.177 44.6205C107.696 44.6205 108.136 44.7404 108.455 45.02C108.775 45.2996 108.975 45.6592 108.975 46.1385H108.336C108.336 45.8589 108.216 45.6192 107.976 45.4195C107.776 45.2597 107.497 45.1399 107.097 45.1399C106.698 45.1399 106.498 45.2198 106.298 45.3795C106.099 45.5393 105.979 45.7391 105.979 45.9388C105.979 46.1385 106.019 46.2983 106.139 46.4181C106.258 46.538 106.418 46.6578 106.578 46.6978C106.738 46.7777 106.977 46.8576 107.297 46.9375C107.657 47.0174 107.936 47.1372 108.136 47.2171C108.336 47.297 108.535 47.4568 108.695 47.6166C108.855 47.7763 108.935 48.016 108.935 48.3356C108.935 48.6152 108.855 48.8549 108.735 49.0546C108.575 49.2544 108.376 49.4142 108.136 49.534C107.856 49.6539 107.577 49.7337 107.217 49.7337C106.658 49.7337 106.179 49.6139 105.819 49.3343L105.979 49.2943Z" fill="white"/>
<path d="M113.649 49.4541C113.329 49.2943 113.089 49.0945 112.89 48.8549C112.69 48.6152 112.61 48.2956 112.61 47.976H113.289C113.289 48.2956 113.449 48.5752 113.688 48.775C113.928 49.0146 114.288 49.1345 114.767 49.1345C115.246 49.1345 115.526 49.0146 115.806 48.8149C116.045 48.5752 116.165 48.2956 116.165 47.976C116.165 47.6564 116.085 47.4967 115.965 47.2969C115.846 47.1371 115.646 47.0173 115.446 46.9374C115.246 46.8575 114.967 46.7776 114.607 46.6578C114.168 46.5379 113.848 46.4181 113.609 46.3382C113.369 46.2184 113.129 46.0586 112.969 45.8189C112.81 45.5792 112.69 45.2596 112.69 44.9001C112.69 44.5406 112.77 44.261 112.93 44.0213C113.089 43.7816 113.329 43.5819 113.649 43.4221C113.968 43.2623 114.328 43.2224 114.727 43.2224C115.326 43.2224 115.806 43.3822 116.165 43.6618C116.525 43.9414 116.724 44.3409 116.804 44.7803H116.125C116.085 44.5007 115.926 44.3009 115.686 44.1012C115.446 43.9015 115.127 43.7816 114.687 43.7816C114.248 43.7816 113.968 43.9015 113.728 44.1012C113.489 44.3009 113.329 44.5806 113.329 44.9401C113.329 45.2996 113.409 45.4194 113.529 45.5792C113.649 45.739 113.848 45.8589 114.048 45.9387C114.248 46.0186 114.527 46.0985 114.887 46.2184C115.286 46.3382 115.646 46.458 115.886 46.5779C116.125 46.6977 116.365 46.8575 116.525 47.0972C116.685 47.3369 116.804 47.6564 116.804 48.016C116.804 48.3755 116.724 48.6152 116.565 48.8549C116.405 49.0945 116.165 49.3342 115.846 49.494C115.526 49.6538 115.167 49.7337 114.727 49.7337C114.288 49.7337 113.928 49.6538 113.609 49.534L113.649 49.4541Z" fill="white"/>
<path d="M118.922 49.3742C118.562 49.1745 118.242 48.8549 118.043 48.4954C117.843 48.0959 117.723 47.6565 117.723 47.1372C117.723 46.6179 117.843 46.1785 118.043 45.779C118.242 45.3796 118.562 45.0999 118.922 44.9002C119.281 44.7005 119.72 44.5806 120.2 44.5806C120.679 44.5806 121.079 44.7005 121.478 44.9002C121.838 45.0999 122.157 45.4195 122.357 45.779C122.557 46.1785 122.677 46.6179 122.677 47.1372C122.677 47.6565 122.557 48.0959 122.357 48.4954C122.157 48.8949 121.838 49.1745 121.438 49.3742C121.039 49.574 120.639 49.6938 120.16 49.6938C119.681 49.6938 119.281 49.574 118.882 49.3742H118.922ZM121.079 48.9348C121.358 48.775 121.598 48.5753 121.758 48.2557C121.918 47.9362 121.997 47.5766 121.997 47.1372C121.997 46.6978 121.918 46.3383 121.758 46.0187C121.598 45.6991 121.358 45.4994 121.079 45.3396C120.799 45.1798 120.479 45.0999 120.16 45.0999C119.84 45.0999 119.521 45.1798 119.241 45.3396C118.961 45.4994 118.722 45.6991 118.562 46.0187C118.402 46.3383 118.322 46.6978 118.322 47.1372C118.322 47.5766 118.402 47.9362 118.562 48.2557C118.722 48.5753 118.961 48.775 119.241 48.9348C119.521 49.0946 119.8 49.1745 120.16 49.1745C120.519 49.1745 120.799 49.0946 121.079 48.9348Z" fill="white"/>
<path d="M124.474 42.9028V49.6538H123.835V42.9028H124.474Z" fill="white"/>
<path d="M130.227 44.6605V49.6139H129.587V48.7351C129.428 49.0547 129.228 49.2943 128.908 49.4541C128.589 49.6139 128.269 49.6938 127.87 49.6938C127.27 49.6938 126.791 49.4941 126.432 49.1345C126.072 48.775 125.872 48.2158 125.872 47.5367V44.6205H126.511V47.4568C126.511 48.016 126.631 48.4155 126.911 48.6951C127.191 48.9747 127.55 49.1345 128.029 49.1345C128.509 49.1345 128.908 48.9747 129.188 48.6951C129.468 48.3755 129.627 47.9361 129.627 47.3769V44.6605H130.266H130.227Z" fill="white"/>
<path d="M132.503 45.1798V48.2557C132.503 48.5753 132.543 48.775 132.663 48.8948C132.783 49.0147 132.983 49.0546 133.262 49.0546H133.862V49.6139H133.183C132.743 49.6139 132.384 49.494 132.184 49.2943C131.984 49.0946 131.864 48.7351 131.864 48.2557V45.1798H131.185V44.6605H131.864V43.4221H132.503V44.6605H133.862V45.1798H132.503Z" fill="white"/>
<path d="M134.9 43.5819C134.82 43.502 134.78 43.3822 134.78 43.2624C134.78 43.1425 134.82 43.0227 134.9 42.9428C134.98 42.8629 135.1 42.8229 135.22 42.8229C135.34 42.8229 135.46 42.8629 135.539 42.9428C135.619 43.0227 135.659 43.1425 135.659 43.2624C135.659 43.3822 135.619 43.502 135.539 43.5819C135.46 43.6618 135.34 43.7018 135.22 43.7018C135.1 43.7018 134.98 43.6618 134.9 43.5819ZM135.579 44.6605V49.6139H134.94V44.6605H135.579Z" fill="white"/>
<path d="M137.936 49.3742C137.577 49.1745 137.257 48.8549 137.057 48.4954C136.858 48.0959 136.738 47.6565 136.738 47.1372C136.738 46.6179 136.858 46.1785 137.057 45.779C137.257 45.3796 137.577 45.0999 137.936 44.9002C138.296 44.7005 138.735 44.5806 139.215 44.5806C139.694 44.5806 140.093 44.7005 140.493 44.9002C140.852 45.0999 141.172 45.4195 141.372 45.779C141.571 46.1785 141.691 46.6179 141.691 47.1372C141.691 47.6565 141.571 48.0959 141.372 48.4954C141.172 48.8949 140.852 49.1745 140.453 49.3742C140.053 49.574 139.654 49.6938 139.175 49.6938C138.695 49.6938 138.296 49.574 137.896 49.3742H137.936ZM140.093 48.9348C140.373 48.775 140.613 48.5753 140.772 48.2557C140.932 47.9362 141.012 47.5766 141.012 47.1372C141.012 46.6978 140.932 46.3383 140.772 46.0187C140.613 45.6991 140.373 45.4994 140.093 45.3396C139.814 45.1798 139.494 45.0999 139.175 45.0999C138.855 45.0999 138.535 45.1798 138.256 45.3396C137.976 45.4994 137.737 45.6991 137.577 46.0187C137.417 46.3383 137.337 46.6978 137.337 47.1372C137.337 47.5766 137.417 47.9362 137.577 48.2557C137.737 48.5753 137.976 48.775 138.256 48.9348C138.535 49.0946 138.815 49.1745 139.175 49.1745C139.534 49.1745 139.814 49.0946 140.093 48.9348Z" fill="white"/>
<path d="M146.645 45.0999C147.004 45.4594 147.204 46.0187 147.204 46.6978V49.6139H146.565V46.7777C146.565 46.2184 146.445 45.8189 146.165 45.5393C145.886 45.2597 145.526 45.0999 145.047 45.0999C144.567 45.0999 144.168 45.2597 143.888 45.5393C143.609 45.8589 143.449 46.2983 143.449 46.8576V49.5739H142.81V44.6205H143.449V45.4594C143.609 45.1398 143.848 44.9401 144.128 44.7803C144.408 44.6205 144.767 44.5406 145.127 44.5406C145.726 44.5406 146.205 44.7404 146.565 45.0999H146.645Z" fill="white"/>
<path d="M148.922 49.2943C148.562 49.0147 148.362 48.6552 148.322 48.2158H148.962C148.962 48.4954 149.121 48.7351 149.361 48.8949C149.601 49.0546 149.92 49.1345 150.32 49.1345C150.719 49.1345 150.919 49.0546 151.119 48.8949C151.318 48.7351 151.398 48.5353 151.398 48.2956C151.398 48.056 151.358 47.9761 151.239 47.8962C151.119 47.8163 150.999 47.6965 150.839 47.6565C150.679 47.6166 150.44 47.5367 150.16 47.4568C149.8 47.3769 149.481 47.257 149.241 47.1771C149.001 47.0973 148.802 46.9375 148.642 46.7377C148.482 46.538 148.402 46.2983 148.402 45.9787C148.402 45.6592 148.482 45.4994 148.602 45.2996C148.722 45.0999 148.962 44.9401 149.201 44.8203C149.481 44.7004 149.76 44.6205 150.12 44.6205C150.639 44.6205 151.079 44.7404 151.398 45.02C151.718 45.2996 151.918 45.6592 151.918 46.1385H151.278C151.278 45.8589 151.159 45.6192 150.919 45.4195C150.719 45.2597 150.44 45.1399 150.04 45.1399C149.641 45.1399 149.441 45.2198 149.241 45.3795C149.041 45.5393 148.922 45.7391 148.922 45.9388C148.922 46.1385 148.962 46.2983 149.081 46.4181C149.201 46.538 149.361 46.6578 149.521 46.6978C149.681 46.7777 149.92 46.8576 150.24 46.9375C150.599 47.0174 150.879 47.1372 151.079 47.2171C151.278 47.297 151.478 47.4568 151.638 47.6166C151.798 47.7763 151.878 48.016 151.878 48.3356C151.878 48.6152 151.798 48.8549 151.678 49.0546C151.518 49.2544 151.318 49.4142 151.079 49.534C150.799 49.6539 150.519 49.7337 150.16 49.7337C149.601 49.7337 149.121 49.6139 148.762 49.3343L148.922 49.2943Z" fill="white"/>
<path d="M156.392 49.0946H158.669V49.6139H155.752V43.2624H156.392V49.0946Z" fill="white"/>
<path d="M159.547 43.5819C159.467 43.502 159.428 43.3822 159.428 43.2624C159.428 43.1425 159.467 43.0227 159.547 42.9428C159.627 42.8629 159.747 42.8229 159.867 42.8229C159.987 42.8229 160.107 42.8629 160.187 42.9428C160.266 43.0227 160.306 43.1425 160.306 43.2624C160.306 43.3822 160.266 43.502 160.187 43.5819C160.107 43.6618 159.987 43.7018 159.867 43.7018C159.747 43.7018 159.627 43.6618 159.547 43.5819ZM160.226 44.6605V49.6139H159.587V44.6605H160.226Z" fill="white"/>
<path d="M168.975 45.0999C169.334 45.4594 169.534 46.0187 169.534 46.6978V49.6139H168.895V46.7777C168.895 46.2184 168.775 45.8189 168.496 45.5393C168.216 45.2597 167.896 45.0999 167.417 45.0999C166.938 45.0999 166.578 45.2597 166.298 45.5793C166.019 45.8988 165.899 46.3383 165.899 46.9375V49.6139H165.26V46.7777C165.26 46.2184 165.14 45.8189 164.86 45.5393C164.581 45.2597 164.261 45.0999 163.782 45.0999C163.302 45.0999 162.943 45.2597 162.663 45.5793C162.384 45.8988 162.264 46.3383 162.264 46.9375V49.6139H161.625V44.6605H162.264V45.4994C162.424 45.1798 162.663 44.9401 162.943 44.7803C163.223 44.6205 163.542 44.5406 163.902 44.5406C164.261 44.5406 164.701 44.6605 165.02 44.8602C165.34 45.06 165.579 45.3795 165.739 45.779C165.859 45.3795 166.099 45.0999 166.418 44.8602C166.738 44.6605 167.097 44.5406 167.537 44.5406C167.976 44.5406 168.575 44.7404 168.975 45.0999Z" fill="white"/>
<path d="M170.932 43.5819C170.852 43.502 170.812 43.3822 170.812 43.2624C170.812 43.1425 170.852 43.0227 170.932 42.9428C171.012 42.8629 171.132 42.8229 171.252 42.8229C171.372 42.8229 171.491 42.8629 171.571 42.9428C171.651 43.0227 171.691 43.1425 171.691 43.2624C171.691 43.3822 171.651 43.502 171.571 43.5819C171.491 43.6618 171.372 43.7018 171.252 43.7018C171.132 43.7018 171.012 43.6618 170.932 43.5819ZM171.571 44.6605V49.6139H170.932V44.6605H171.571Z" fill="white"/>
<path d="M173.848 45.1798V48.2557C173.848 48.5753 173.888 48.775 174.008 48.8948C174.128 49.0147 174.328 49.0546 174.607 49.0546H175.207V49.6139H174.527C174.088 49.6139 173.729 49.494 173.529 49.2943C173.329 49.0946 173.209 48.7351 173.209 48.2557V45.1798H172.53V44.6605H173.209V43.4221H173.848V44.6605H175.207V45.1798H173.848Z" fill="white"/>
<path d="M180.759 47.3769H176.645C176.645 47.7364 176.764 48.056 176.924 48.3356C177.084 48.6152 177.284 48.815 177.563 48.9348C177.843 49.0546 178.123 49.1345 178.442 49.1345C178.762 49.1345 179.201 49.0147 179.481 48.8149C179.76 48.6152 179.96 48.3356 180.04 48.016H180.719C180.599 48.4954 180.32 48.8948 179.96 49.2144C179.561 49.534 179.081 49.6538 178.482 49.6538C177.883 49.6538 177.603 49.534 177.244 49.3343C176.884 49.1345 176.565 48.8149 176.365 48.4554C176.165 48.0959 176.045 47.6165 176.045 47.0972C176.045 46.5779 176.165 46.1385 176.365 45.7391C176.565 45.3396 176.844 45.06 177.244 44.8602C177.603 44.6605 178.043 44.5406 178.522 44.5406C179.002 44.5406 179.401 44.6605 179.76 44.8602C180.12 45.06 180.4 45.3396 180.559 45.6991C180.719 46.0586 180.839 46.4181 180.839 46.8576C180.839 47.297 180.839 47.257 180.839 47.3769H180.759ZM179.88 45.9388C179.721 45.6592 179.521 45.4994 179.241 45.3396C178.962 45.2197 178.682 45.1399 178.362 45.1399C177.883 45.1399 177.484 45.2996 177.164 45.5793C176.844 45.8988 176.645 46.2983 176.605 46.8576H180.08C180.08 46.498 180 46.1785 179.84 45.8988L179.88 45.9388Z" fill="white"/>
<path d="M181.958 45.779C182.157 45.3795 182.437 45.0999 182.796 44.9002C183.156 44.7004 183.555 44.5806 184.035 44.5806C184.514 44.5806 184.874 44.7004 185.233 44.9002C185.593 45.0999 185.832 45.3795 185.992 45.7391V42.9028H186.631V49.6538H185.992V48.5353C185.832 48.8949 185.593 49.1745 185.233 49.3742C184.874 49.5739 184.474 49.6938 183.995 49.6938C183.515 49.6938 183.116 49.5739 182.756 49.3742C182.397 49.1745 182.117 48.8549 181.918 48.4554C181.718 48.056 181.598 47.6165 181.598 47.0972C181.598 46.5779 181.718 46.1385 181.918 45.7391L181.958 45.779ZM185.713 46.0986C185.553 45.779 185.313 45.5793 185.033 45.3795C184.754 45.1798 184.434 45.1399 184.115 45.1399C183.795 45.1399 183.436 45.2197 183.156 45.3795C182.876 45.5393 182.677 45.779 182.477 46.0586C182.317 46.3782 182.237 46.6978 182.237 47.1372C182.237 47.5766 182.317 47.8962 182.477 48.2157C182.637 48.5353 182.876 48.775 183.156 48.9348C183.436 49.0946 183.755 49.1745 184.115 49.1745C184.474 49.1745 184.754 49.0946 185.033 48.9348C185.313 48.775 185.553 48.5353 185.713 48.2157C185.872 47.8962 185.952 47.5766 185.952 47.1771C185.952 46.7777 185.872 46.4182 185.713 46.1385V46.0986Z" fill="white"/>
</svg>
